<svg id="Layer_1" data-name="Layer 1" xmlns="http://www.w3.org/2000/svg" viewBox="0 0 20.88 33"><defs><style>.cls-1{fill:#848484;}</style></defs><title>admiration_marc</title><path class="cls-1" d="M3.57,32.22,3,32.14c-1.57-.29-2.3-1.41-2.2-3.38a3.32,3.32,0,0,1,1.61-2.5,4.11,4.11,0,0,1,3-.94,4.14,4.14,0,0,1,2.26,1,2.32,2.32,0,0,1,.84,2,4.1,4.1,0,0,1-1.83,2.91,4.35,4.35,0,0,1-3.12,1M19.9.63c.2.31-4.51,7.16-6.73,10.77C11,14.85,8.82,21.06,7.29,22.05a7,7,0,0,1-1.62.06,14.59,14.59,0,0,0-2.41.48c-.65-.53,2.91-16.1,5.55-18.65.78-.76,3.6-1.24,5.42-1.83C16.53,1.35,19.9.63,19.9.63"/></svg>