<?xml version="1.0" encoding="utf-8"?>
<!-- Generator: Adobe Illustrator 15.0.0, SVG Export Plug-In . SVG Version: 6.00 Build 0)  -->
<!DOCTYPE svg PUBLIC "-//W3C//DTD SVG 1.1//EN" "http://www.w3.org/Graphics/SVG/1.1/DTD/svg11.dtd">
<svg version="1.1" id="Layer_1" xmlns="http://www.w3.org/2000/svg" xmlns:xlink="http://www.w3.org/1999/xlink" x="0px" y="0px"
	 width="1174.441px" height="185.991px" viewBox="0 0 1174.441 185.991" enable-background="new 0 0 1174.441 185.991"
	 xml:space="preserve">
<polygon points="1165.674,175.155 945.88,175.155 960.88,159.155 1149.674,159.155 1149.674,23.92 26.733,23.92 26.733,159.155 
	826.694,159.155 846.88,175.155 10.733,175.155 10.733,7.92 1165.674,7.92 "/>
<g>
	<path fill="#020202" d="M59.596,56.447h36.243v0.378h3.021v0.377h1.888v0.377h1.133v0.377h1.132v0.377h0.755v0.377h0.755v0.378
		h0.755v0.377h0.755v0.377h0.755v0.377h0.377V60.6h0.377v0.378h0.378v0.377h0.755v0.377h0.377v0.377h0.377v0.377h0.378v0.755h0.377
		v0.377h0.377v0.377h0.377v0.377h0.377v0.755h0.378v0.755h0.377v0.377h0.377v0.755h0.377v1.132h0.377v0.755h0.378v1.132h0.377v1.133
		h0.377v1.888h0.377v2.265h0.377v10.193h-0.377v2.265h-0.377v1.888h-0.377v1.133h-0.377v1.132h-0.378v0.755h-0.377v1.133h-0.377
		v0.755h-0.377v0.755h-0.377v0.377h-0.378v0.756h-0.377v0.377h-0.377v0.756h-0.377v0.377h-0.377v0.378h-0.378v0.378h-0.377v0.377
		h-0.377v0.377h-0.377v0.378h-0.377v0.378h-0.378v0.377h-0.377v0.378h-0.377v0.378h-0.755v0.377h-0.377v0.378H104.9v0.378h-0.755
		v0.377h-0.755v0.377h-0.755v0.378h-0.755v0.378h-1.133v0.377h-1.51v0.378h-1.51v0.378h-3.02v0.377H83.003v-1.133h-0.377v-1.51
		h-0.377v-1.51H81.87v-1.511h-0.377v-1.51h-0.377v-1.133h-0.377V95.71H80.36v9.816h-0.378v28.693H59.596V56.447z M79.982,72.681
		V89.67h7.173v-0.377h2.265v-0.377h1.133v-0.377h0.755V88.16h0.755v-0.377h0.377v-0.377h0.755V86.65h0.377v-0.377h0.378v-0.378
		h0.377V85.14h0.377v-1.133h0.377v-1.51h0.377v-2.643h-0.377v-1.888h-0.377v-1.132h-0.377v-0.755h-0.377v-0.377h-0.378v-0.755
		h-0.377v-0.377h-0.377v-0.378h-0.755v-0.377h-0.378v-0.377h-1.132v-0.377h-1.133v-0.377H79.982z"/>
	<path fill="#020202" d="M120.303,56.447h21.142v77.773h-21.142V56.447z"/>
	<path fill="#020202" d="M174.782,53.804h10.571v0.377h2.265v0.377h1.888v0.378h1.51v0.377h1.132v0.377h0.755v0.377h1.132v0.377
		h0.755v0.378h0.755v0.377h0.755v0.377h0.755v0.377h0.377v0.377h0.755v0.377h0.377v0.378h0.378v0.377h0.755v0.377h0.377v0.377h0.377
		V60.6h0.378v0.378h0.377v0.377h0.377v0.377h0.377v0.377h0.377v0.377h0.378v0.755h0.377v0.377h0.377v0.377h0.377v0.755h0.377v0.377
		h0.377v0.755h0.378v0.377h0.377v0.755h0.377v0.755h0.377v0.377h0.377v0.755h0.378v0.755h0.377v0.755h0.377v1.133h0.377v0.755h0.377
		v1.133h0.378v0.755h0.377v1.133h0.377v1.51h0.377v1.132h-0.755v0.377h-18.5v-0.377h-0.377v-0.377h-0.377v-0.755h-0.377v-0.377
		h-0.377v-0.378h-0.378v-0.755h-0.377v-0.377h-0.377v-0.377h-0.377v-0.378h-0.755v-0.377h-0.377v-0.377h-0.755v-0.377h-0.755v-0.377
		h-0.755v-0.378h-1.133v-0.377h-5.285v0.377h-1.133v0.378h-1.132v0.377h-0.755v0.377h-0.377v0.377h-0.755v0.377h-0.378v0.378h-0.377
		v0.377h-0.377v0.377h-0.377v0.377h-0.377v0.377h-0.377v0.378h-0.378v0.755h-0.377v0.377h-0.377v0.755h-0.377v0.755h-0.377v0.755
		h-0.378v1.133h-0.377v1.132h-0.377v1.888h-0.377v1.888h-0.377v4.531h-0.378v6.795h0.378v4.908h0.377v2.265h0.377v1.889h0.377v1.132
		h0.377v1.133h0.378v1.132h0.377v0.756h0.377v0.377h0.377v0.756h0.377v0.377h0.378v0.378h0.377v0.378h0.377v0.377h0.377v0.377h0.377
		v0.379h0.377v0.377h0.755v0.377h0.755v0.378h0.755v0.378h1.132v0.377h6.418v-0.377h1.133v-0.378h1.133v-0.378h0.755v-0.377h0.377
		v-0.377h0.377v-0.379h0.378v-0.377h0.755v-0.755h0.377v-0.378h0.377v-0.377h0.378v-0.756h0.377v-0.754h0.377v-0.379h0.377v-0.754
		h0.377v-1.133h0.378v-0.756h0.377v-0.377h18.122v0.377h1.133v1.133h-0.378v1.889h-0.377v1.51h-0.377v1.133h-0.377v1.133h-0.377
		v1.132h-0.378v0.755h-0.377v1.133h-0.377v0.756h-0.377v0.754h-0.377v0.756h-0.378v0.755h-0.377v0.755h-0.377v0.755h-0.377v0.378
		h-0.377v0.755h-0.378v0.378h-0.377v0.755h-0.377v0.378h-0.377v0.377h-0.377v0.755h-0.377v0.378h-0.378v0.377h-0.377v0.378h-0.377
		v0.378h-0.377v0.377h-0.377v0.378h-0.378v0.378h-0.377v0.377h-0.377v0.377h-0.755v0.378h-0.378v0.378h-0.377v0.377h-0.755v0.378
		h-0.377v0.378h-0.755v0.377h-0.755v0.377h-0.755v0.379h-0.755v0.377h-0.755v0.377h-1.133v0.378h-1.132v0.378h-1.888v0.377h-1.888
		v0.378h-3.775v0.378h-5.286v-0.378h-4.153v-0.378h-2.265v-0.377h-1.888v-0.378h-1.133v-0.378h-1.132v-0.377h-1.133v-0.377h-1.133
		v-0.379h-0.755v-0.377h-0.755v-0.377h-0.755v-0.378h-0.377v-0.378h-0.755v-0.377h-0.377v-0.378h-0.755v-0.378h-0.377v-0.377h-0.377
		v-0.377h-0.377v-0.378h-0.755v-0.378h-0.377v-0.377h-0.377v-0.378h-0.377v-0.378h-0.378v-0.377h-0.377v-0.756h-0.377v-0.377h-0.377
		v-0.377h-0.377v-0.378h-0.378v-0.755h-0.377v-0.378h-0.377v-0.378h-0.377v-0.755h-0.377v-0.378h-0.378v-0.754h-0.377v-0.378h-0.377
		v-0.755h-0.377v-0.756h-0.377v-0.754h-0.377v-0.756h-0.378v-0.755h-0.377v-0.755h-0.377v-0.756h-0.377v-1.133h-0.377V112.7h-0.378
		v-1.133h-0.377v-1.51h-0.377v-1.133h-0.377v-1.889h-0.377v-1.887h-0.378v-2.266h-0.377v-4.152h-0.377V88.538h0.377v-3.775h0.377
		v-2.643h0.378v-1.888h0.377v-1.888h0.377v-1.132h0.377v-1.51h0.377v-1.132h0.378v-0.755h0.377v-1.132h0.377v-0.755h0.377v-1.132
		h0.377v-0.755h0.378v-0.755h0.377v-0.377h0.377V68.15h0.377v-0.755h0.377v-0.377h0.377v-0.755h0.378v-0.377h0.377V65.13h0.377
		v-0.377h0.377v-0.378h0.377v-0.377h0.378V63.62h0.377v-0.755h0.377v-0.378h0.377V62.11h0.377v-0.377h0.378v-0.377h0.377v-0.377
		h0.755V60.6h0.377v-0.377h0.378v-0.377h0.377v-0.377h0.755V59.09h0.377v-0.378h0.755v-0.377h0.377v-0.377h0.755V57.58h0.755v-0.377
		h0.755v-0.377h0.755v-0.378h0.755v-0.377h1.132v-0.377h0.755v-0.377h1.132v-0.377h1.51v-0.378h1.888v-0.377h2.265V53.804z"/>
	<path fill="#020202" d="M213.404,56.447h20.387v18.877h0.378v-0.377h0.377v-0.377h0.377v-0.755h0.377v-0.377h0.377v-0.755h0.378
		v-0.378h0.377v-0.377h0.377v-0.755h0.377v-0.377h0.377v-0.755h0.378v-0.377h0.377v-0.377h0.377v-0.755h0.377V68.15h0.377v-0.377
		h0.377v-0.755h0.378v-0.377h0.377v-0.755h0.377v-0.377h0.377V65.13h0.377v-0.755h0.378v-0.377h0.377v-0.755h0.377v-0.377h0.377
		v-0.378h0.377v-0.755h0.378v-0.377h0.377v-0.377h0.377v-0.755h0.377v-0.377h0.377V59.09h0.378v-0.378h0.377v-0.377h0.377V57.58
		h0.377v-0.377h0.377v-0.377h0.378v-0.378h26.805v0.378h-0.377v0.755h-0.377v0.377h-0.377v0.377h-0.378v0.377h-0.377v0.755h-0.377
		v0.377h-0.377v0.377h-0.377V60.6h-0.378v0.378h-0.377v0.755h-0.377v0.377h-0.377v0.377h-0.377v0.378h-0.377v0.755h-0.378v0.377
		h-0.377v0.377h-0.377v0.378h-0.377v0.755h-0.377v0.377h-0.378v0.377h-0.377v0.378h-0.377v0.377h-0.377v0.755h-0.377v0.377h-0.378
		v0.377h-0.377v0.378h-0.377v0.755h-0.377v0.377h-0.377v0.377h-0.378v0.378h-0.377v0.377h-0.377v0.755h-0.377v0.377h-0.377v0.378
		h-0.378v0.377h-0.377v0.755h-0.377v0.377h-0.377v0.378h-0.377v0.377h-0.377v0.755h-0.378v0.377h-0.377v0.378h-0.377v0.377h-0.377
		v0.377h-0.377v0.755h-0.378v0.377h-0.377v0.378h-0.377v0.377h-0.377v0.755h-0.377v0.377h-0.378v0.378h-0.377v0.377h-0.377v0.377
		h-0.377v0.755H253.8v0.378h-0.378v0.377h-0.377v0.377h-0.377v0.755h-0.377v0.378h-0.377v0.377h-0.378v0.377h-0.377v0.755h-0.377
		v0.378h0.377v0.755h0.377v0.755h0.378v0.755h0.377v0.755h0.377v0.755h0.377v0.755h0.377v0.377h0.378v0.755h0.377v0.755h0.377v0.755
		h0.377V94.2h0.377v0.756h0.378v0.754h0.377v0.756h0.377v0.755h0.377v0.755h0.377v0.756h0.378v0.754h0.377v0.756h0.377v0.755h0.377
		v0.755h0.377v0.756h0.378v0.377h0.377v0.755h0.377v0.755h0.377v0.756h0.377v0.755h0.377v0.755h0.378v0.755h0.377v0.755h0.377v0.756
		h0.377v0.754h0.377v0.756h0.378v0.755h0.377v0.755h0.377v0.756h0.377v0.754h0.377v0.379h0.378v0.754h0.377v0.756h0.377v0.755h0.377
		v0.755h0.377v0.756h0.378v0.754h0.377v0.756h0.377v0.755h0.377v0.755h0.377v0.755h0.378v0.755h0.377v0.756h0.377v0.755h0.377v0.755
		h0.377v0.755h0.377v0.378h0.378v0.755h0.377v0.755h0.377v0.756h0.377v0.754h0.377v0.756h0.378v0.755h0.377v0.755h0.377v0.756h0.377
		v0.754h0.377v0.756h0.378v0.755h0.377v0.378h-25.295v-1.133h-0.377v-0.756h-0.378v-0.754h-0.377v-1.133h-0.377v-0.756h-0.377
		v-0.755h-0.377v-1.132h-0.377v-0.756h-0.378v-0.755h-0.377v-1.133h-0.377v-0.755h-0.377v-0.755h-0.377v-1.133h-0.378v-0.755h-0.377
		v-0.756h-0.377v-0.754h-0.377v-1.133h-0.377v-0.756h-0.378v-0.754h-0.377v-1.133h-0.377v-0.756h-0.377v-0.755h-0.377v-1.132h-0.378
		v-0.756h-0.377v-0.755h-0.377v-1.133h-0.377v-0.755h-0.377v-0.756h-0.378v-1.132h-0.377v-0.755h-0.377v-0.756h-0.377v-1.132h-0.377
		v-0.755h-0.377v-0.756h-0.378v-1.133h-0.377v-0.754h-0.377v-0.378h-0.377v-1.133h-0.377v-0.755h-0.378v-0.756h-0.377v-1.132h-0.377
		v-0.755h-0.377v-0.756h-0.377V95.71h-0.378v38.51h-20.387V56.447z"/>
	<path fill="#020202" d="M323.21,56.825h22.652v0.377h0.377v0.755h0.377v0.755h0.377v0.755h0.377v0.755h0.378v0.755h0.377v0.755
		h0.377v0.755h0.377v0.755h0.377v0.755h0.377v0.755h0.378v0.755h0.377v0.755h0.377v0.755h0.377v0.755h0.377v0.755h0.378v0.755h0.377
		v0.755h0.377v0.755h0.377v0.755h0.377v0.755h0.378v0.755h0.377v0.755h0.377v0.755h0.377v0.755h0.377v0.377h0.378v0.755h0.377v0.755
		h0.377v0.755h0.377v0.755h0.377v0.755h0.378v0.755h0.377v0.755h0.377v0.755h0.377v0.755h0.377v-0.755h0.377v-0.755h0.378v-0.755
		h0.377v-0.755h0.377v-0.755h0.377v-0.755h0.377v-0.755h0.378v-0.755h0.377v-0.755h0.377v-0.755h0.377v-0.755h0.377v-0.377h0.378
		v-0.755h0.377v-0.755h0.377v-0.755h0.377v-0.755h0.377v-0.755h0.378v-0.755h0.377v-0.755h0.377v-0.755h0.377v-0.755h0.377v-0.755
		h0.378v-0.755h0.377v-0.755h0.377v-0.755h0.377v-0.755h0.377v-0.755h0.378v-0.755h0.377v-0.755h0.377v-0.755h0.377v-0.755h0.377
		v-0.755h0.377v-0.755h0.378v-0.755h0.377v-0.377h22.652v0.377h-0.377v0.377h-0.377v0.755h-0.377v0.755h-0.377v0.755h-0.378v0.377
		h-0.377v0.755h-0.377v0.755h-0.377v0.755h-0.377v0.378h-0.378v0.755h-0.377v0.755h-0.377v0.755h-0.377v0.377h-0.377v0.755h-0.377
		v0.755h-0.378v0.755h-0.377v0.755h-0.377v0.378h-0.377v0.755h-0.377v0.755h-0.378v0.755h-0.377v0.377h-0.377v0.755h-0.377v0.755
		h-0.377v0.755h-0.378v0.377h-0.377v0.755h-0.377v0.755h-0.377v0.755h-0.377v0.377h-0.378v0.755h-0.377v0.755h-0.377v0.755h-0.377
		v0.755h-0.377v0.377h-0.378v0.755h-0.377v0.755h-0.377v0.755h-0.377v0.377h-0.377v0.755h-0.377v0.755h-0.378v0.755h-0.377v0.377
		h-0.377v0.755h-0.377v0.755h-0.377v0.755h-0.378v0.377h-0.377v0.755h-0.377v0.755h-0.377v0.755h-0.377v0.755h-0.378v0.377h-0.377
		v0.755h-0.377v0.754H373.8v0.756h-0.377V94.2h-0.378v0.756h-0.377v0.754h-0.377v0.756h-0.377v0.377h-0.377v0.756h-0.378v0.755
		h-0.377v0.755h-0.377v0.755h-0.377v0.378h-0.377v0.755h-0.377v32.846h-0.378v0.378h-20.009v-0.378h-0.377v-32.846h-0.377v-0.378
		h-0.377v-0.755h-0.378v-0.755h-0.377v-0.755h-0.377v-0.378h-0.377v-0.755h-0.377v-0.755h-0.378V95.71h-0.377v-0.754h-0.377v-0.378
		h-0.377v-0.755h-0.377v-0.756h-0.378v-0.754h-0.377v-0.378h-0.377V91.18h-0.377v-0.755h-0.377V89.67h-0.378v-0.377h-0.377v-0.755
		h-0.377v-0.755h-0.377v-0.755h-0.377V86.65h-0.378v-0.755h-0.377V85.14h-0.377v-0.755h-0.377v-0.378h-0.377v-0.755h-0.377v-0.755
		h-0.378v-0.755h-0.377v-0.755h-0.377v-0.377h-0.377v-0.755h-0.377v-0.755h-0.378v-0.755h-0.377v-0.377h-0.377v-0.755h-0.377v-0.755
		h-0.377v-0.755h-0.378v-0.377h-0.377v-0.755h-0.377v-0.755h-0.377v-0.755h-0.377v-0.377h-0.378v-0.755h-0.377v-0.755h-0.377v-0.755
		h-0.377v-0.377h-0.377v-0.755h-0.378v-0.755h-0.377v-0.755h-0.377v-0.755h-0.377v-0.377h-0.377v-0.755h-0.377V65.13h-0.378v-0.755
		h-0.377v-0.377h-0.377v-0.755h-0.377v-0.755h-0.377v-0.755h-0.378v-0.377h-0.377V60.6h-0.377v-0.755h-0.377V59.09h-0.377v-0.378
		h-0.378v-0.755h-0.377v-0.755h-0.377V56.825z"/>
	<path fill="#020202" d="M431.393,56.447h4.53v0.378h4.153v0.377h2.265v0.377h1.51v0.377h1.51v0.377h1.133v0.377h1.132v0.378h0.755
		v0.377h0.755v0.377h1.133v0.377h0.755V60.6h0.377v0.378h0.755v0.377h0.755v0.377h0.377v0.377h0.755v0.377h0.377v0.378h0.377v0.377
		h0.755v0.377h0.377v0.377h0.377v0.377h0.377v0.378h0.377v0.377h0.377v0.377h0.378v0.377h0.377v0.377h0.377v0.378h0.377v0.377h0.377
		v0.377h0.378v0.755h0.377v0.377h0.377v0.378h0.377v0.755h0.377v0.377h0.378v0.755h0.377v0.377h0.377v0.755h0.377v0.755h0.377v0.755
		h0.378v0.755h0.377v0.755h0.377v1.132h0.377v0.755h0.377v1.132h0.378v1.133h0.377v1.51h0.377v1.51h0.377v1.888h0.377v2.266h0.377
		v3.775h0.378v9.816h-0.378v4.153h-0.377v2.266h-0.377v2.265h-0.377v1.511h-0.377v1.51h-0.377v1.133h-0.378v1.133h-0.377v0.754
		h-0.377v1.133h-0.377v0.756h-0.377v0.754h-0.378v0.756h-0.377v0.755h-0.377v0.755h-0.377v0.378h-0.377v0.755h-0.378v0.377h-0.377
		v0.756h-0.377v0.377h-0.377v0.378h-0.377v0.755h-0.378v0.378h-0.377v0.378h-0.377v0.377h-0.377v0.377h-0.377v0.378h-0.378v0.378
		h-0.377v0.377h-0.377v0.378h-0.377v0.378h-0.377v0.377h-0.377v0.378h-0.378v0.378h-0.755v0.377h-0.377v0.377h-0.377v0.378h-0.755
		v0.378h-0.755v0.377h-0.377v0.378h-0.755v0.378h-0.755v0.377h-0.755v0.377h-0.755v0.379h-0.755v0.377h-1.133v0.377h-1.132v0.378
		h-1.51v0.378h-1.51v0.377h-2.265v0.378h-4.531v0.378h-3.02v-0.378h-4.908v-0.378h-2.643v-0.377h-1.888v-0.378h-1.51v-0.378h-1.132
		v-0.377h-1.133v-0.377h-0.755v-0.379h-1.133v-0.377h-0.755v-0.377h-0.755v-0.378h-0.377v-0.378h-0.755v-0.377h-0.755v-0.378h-0.378
		v-0.378h-0.755v-0.377h-0.377v-0.377h-0.377v-0.378h-0.755v-0.378h-0.377v-0.377h-0.377v-0.378h-0.377v-0.378h-0.378v-0.377h-0.377
		v-0.378h-0.377v-0.378h-0.377v-0.377h-0.377v-0.377h-0.378v-0.756h-0.377v-0.377h-0.377v-0.378h-0.377v-0.755h-0.377v-0.378h-0.378
		v-0.378h-0.377v-0.754h-0.377v-0.756h-0.377v-0.377h-0.377v-0.756h-0.377v-0.754h-0.378v-0.756h-0.377v-0.755h-0.377v-0.755h-0.377
		v-0.756H402.7v-1.133h-0.378v-1.132h-0.377v-1.133h-0.377v-1.132h-0.377v-1.511h-0.377v-1.888h-0.378v-2.266h-0.377v-3.397h-0.377
		V90.047h0.377V86.65h0.377v-2.265h0.378v-1.888h0.377v-1.51h0.377v-1.51h0.377v-1.133h0.377v-1.132h0.378v-0.755h0.377v-1.133
		h0.377v-0.755h0.377v-0.755h0.377v-0.755h0.378v-0.755h0.377v-0.755h0.377v-0.377h0.377v-0.755h0.377v-0.755h0.377v-0.377h0.378
		v-0.377h0.377V68.15h0.377v-0.377h0.377v-0.377h0.377v-0.377h0.378v-0.377h0.377v-0.755h0.377v-0.377h0.377V65.13h0.377v-0.377
		h0.378v-0.378h0.755v-0.377h0.377V63.62h0.377v-0.377h0.378v-0.377h0.377v-0.378h0.755V62.11h0.377v-0.377h0.755v-0.377h0.377
		v-0.377h0.755V60.6h0.755v-0.377h0.755v-0.377h0.755v-0.377h0.755V59.09h1.132v-0.378h0.755v-0.377h1.132v-0.377h1.51V57.58h1.51
		v-0.377h2.265v-0.377h4.153V56.447z M431.77,74.191v0.378h-1.888v0.377h-1.132v0.377h-0.755v0.377h-0.755v0.377h-0.377v0.378
		h-0.755v0.377h-0.377v0.377h-0.377v0.377h-0.377v0.377h-0.377v0.377h-0.377v0.378h-0.378v0.755h-0.377v0.377h-0.377v0.755h-0.377
		v0.755h-0.377v0.755h-0.378v0.755h-0.377v1.132h-0.377v1.51h-0.377v2.265h-0.377v3.021h-0.378v9.061h0.378v3.397h0.377v1.889h0.377
		v1.51h0.377v1.133h0.377v1.133h0.378v0.754h0.377v0.756h0.377v0.755h0.377v0.378h0.377v0.377h0.378v0.756h0.377v0.377h0.377v0.377
		h0.377v0.379h0.755v0.377h0.378v0.377h0.377v0.378h0.755v0.378h0.755v0.377h1.132v0.378h1.51v0.378h5.663v-0.378h1.51v-0.378h0.755
		v-0.377h0.755v-0.378h0.755v-0.378h0.755v-0.377h0.377v-0.377h0.378v-0.379h0.377v-0.377h0.377V112.7h0.377v-0.378h0.377v-0.378
		h0.378v-0.755h0.377v-0.755h0.377v-0.756h0.377v-0.754h0.377v-1.133h0.378v-1.133h0.377v-1.51h0.377v-2.266h0.377v-4.152h0.377
		v-7.929h-0.377v-3.398h-0.377v-1.888h-0.377v-1.51h-0.377v-1.132h-0.378v-0.755h-0.377v-0.755h-0.377v-0.755h-0.377v-0.755h-0.377
		v-0.377h-0.378v-0.755h-0.377v-0.378h-0.377v-0.377h-0.377v-0.377h-0.377v-0.377h-0.378v-0.377h-0.377v-0.377h-0.755v-0.378h-0.377
		v-0.377h-0.755v-0.377h-1.132v-0.377h-1.133v-0.377h-1.888v-0.378H431.77z"/>
	<path fill="#020202" d="M472.468,56.447h20.387v50.212h0.378v1.51h0.377v1.51h0.377v0.756h0.377v0.755h0.377v0.755h0.378v0.378
		h0.377v0.378h0.377v0.377h0.377v0.377h0.377v0.379h0.378v0.377h0.377v0.377h0.755v0.378h0.377v0.378h1.133v0.377h1.132v0.378h6.041
		v-0.378h1.132v-0.377h1.133v-0.378h0.755v-0.378h0.377v-0.377h0.377v-0.377h0.755v-0.379h0.377v-0.377h0.377v-0.755h0.377v-0.378
		h0.378v-0.755h0.377v-0.755h0.377v-0.756h0.377v-1.132h0.377v-1.511h0.378V56.447h20.387v50.967h-0.377v2.644h-0.377v1.887h-0.378
		v1.51h-0.377v1.511h-0.377v1.133h-0.377v1.132h-0.377v0.756h-0.378v0.755h-0.377v0.755h-0.377v0.756h-0.377v0.754h-0.377v0.756
		h-0.378v0.377h-0.377v0.756h-0.377v0.377h-0.377v0.756h-0.377v0.377h-0.377v0.377h-0.378v0.378h-0.377v0.755h-0.377v0.378h-0.377
		v0.378h-0.377v0.377h-0.378v0.378h-0.377v0.378h-0.377v0.377h-0.377v0.377h-0.755v0.378h-0.377v0.378h-0.377v0.377h-0.377v0.378
		h-0.755v0.378h-0.755v0.377h-0.377v0.377h-0.755v0.379h-0.755v0.377h-1.132v0.377h-1.133v0.378h-1.133v0.378h-1.51v0.377h-1.888
		v0.378h-2.643v0.378h-10.193v-0.378h-3.775v-0.378h-2.643v-0.377h-1.888v-0.378h-1.133v-0.378h-1.132v-0.377h-1.133v-0.377h-0.755
		v-0.379h-0.755v-0.377h-0.755v-0.377h-0.755v-0.378h-0.378v-0.378h-0.755v-0.377h-0.377v-0.378h-0.377v-0.378h-0.755v-0.377h-0.377
		v-0.377h-0.377v-0.378h-0.377v-0.378h-0.378v-0.377h-0.377v-0.378h-0.377v-0.378h-0.377v-0.755h-0.377v-0.378h-0.378v-0.377h-0.377
		v-0.377h-0.377v-0.756h-0.377v-0.377h-0.377v-0.756h-0.377v-0.377h-0.378v-0.756h-0.377v-0.754h-0.377v-0.756h-0.377v-0.755h-0.377
		v-0.755h-0.378v-0.756h-0.377v-1.132h-0.377v-1.511h-0.377v-1.51h-0.377v-1.888h-0.378v-1.888h-0.377v-2.643h-0.377V56.447z"/>
	<path fill="#020202" d="M541.67,56.447h34.356v0.378h3.775v0.377h2.266v0.377h1.888v0.377h1.51v0.377h1.133v0.377h1.133v0.378
		h0.755v0.377h1.132v0.377h0.755v0.377h0.756V60.6h0.377v0.378h0.756v0.377h0.377v0.377h0.755v0.377h0.378v0.377h0.377v0.378h0.378
		v0.377h0.755v0.755h0.378v0.377h0.378v0.378h0.377v0.377h0.377v0.377h0.378v0.755h0.378v0.378h0.377v0.755h0.378v0.755h0.378v0.377
		h0.377v1.133h0.377v0.755h0.379v1.133h0.377v1.133h0.377v1.51h0.378v1.888h0.378v3.775h0.377v6.041h-0.377v3.775h-0.378v1.888
		h-0.378v1.888h-0.377v1.133h-0.377v1.132h-0.379v1.133h-0.377v0.756h-0.377v0.755h-0.378v0.755h-0.378v0.755h-0.377v0.378h-0.378
		v0.755h-0.378v0.378h-0.377v0.755h-0.377v0.378h-0.378v0.377h-0.378v0.377h-0.377v0.378h-0.378v0.378h-0.378v0.377h-0.377v0.378
		h-0.378v0.378h-0.378v0.377h-0.377v0.378h-0.755v0.378h-0.378v0.377h-0.755v0.377h-0.755v0.378h-0.756v0.378h-0.754v0.377h0.377
		v0.378h0.377v0.378h0.378v0.377h0.378v0.377h0.377v0.379h0.378v0.377h0.378v0.377h0.377v0.378h0.378v0.755h0.378v0.378h0.377v0.378
		h0.377v0.754h0.378v0.379h0.378v0.754h0.377v0.378h0.378v0.755h0.378v0.756h0.377v0.377h0.378v0.756h0.378v0.754h0.377v0.756h0.377
		v0.755h0.378v1.132h0.378v0.378h0.377v0.755h0.378v0.756h0.378v0.755h0.377v0.378h0.377v0.754h0.379v0.756h0.377v0.377h0.377v0.756
		h0.378v0.377h0.378v0.378h0.377v0.755h0.378v0.377h0.378v0.756h0.377v0.377h0.377v0.378h0.379v0.378h0.377v0.754h0.377v0.379h0.378
		v0.377h0.378v0.377h0.377v0.756h0.378v0.377h0.378v0.378h0.377v0.378h0.377v0.377h0.379v0.377h0.377v0.756h0.377v0.377h0.378v0.378
		h0.378v0.378h0.377v0.377h0.378v0.378h0.378v0.378h0.377v0.377h0.377v0.377h0.378v0.379h0.378v0.377h0.377v0.377h0.378v0.378h0.378
		v0.378h0.377v0.377h0.378v0.378h0.378v0.378h0.377v0.377h0.377v0.377h0.378v0.378h0.378v0.378h0.377v0.377h-25.295v-0.755h-0.377
		v-0.378h-0.378v-0.754h-0.378v-0.378h-0.377v-0.378h-0.377v-0.755h-0.377v-0.378h-0.377v-0.754h-0.378v-0.379h-0.377v-0.754h-0.377
		v-0.378h-0.377v-0.755h-0.377v-0.378h-0.378v-0.755h-0.377v-0.377h-0.377v-0.756h-0.377v-0.377h-0.377v-0.756h-0.378v-0.377h-0.377
		v-0.756h-0.377v-0.377h-0.377v-0.756h-0.377v-0.377h-0.378v-0.755h-0.377v-0.378h-0.377v-0.755h-0.377v-0.378h-0.377v-0.754h-0.378
		v-0.378h-0.377v-0.755h-0.377v-0.378h-0.377v-0.755h-0.377v-0.378h-0.378v-0.378h-0.377v-0.754h-0.377v-0.378h-0.377v-0.755h-0.377
		v-0.378h-0.377v-0.755h-0.378v-0.378h-0.377v-0.755h-0.377v-0.377h-0.377v-0.756h-0.377v-0.377h-0.378v-0.378h-0.377v-0.755h-0.377
		v-0.377h-0.377v-0.379h-0.377v-0.754h-0.378v-0.378h-0.377v-0.378h-0.377v-0.755h-0.377v-0.378h-0.377v-0.377h-0.378v-0.756h-0.377
		v-0.377h-0.377V112.7h-0.377v-0.378h-0.377v-0.755h-0.378v-0.378h-0.377v-0.378h-0.377v-0.377h-0.377v-0.756h-0.377v-0.377h-0.377
		v-0.377h-0.378v-0.378h-0.377v-0.378h-0.377v-0.755H564.7v-0.378h-0.377v-0.377h-0.378v-0.377h-0.377v-0.378h-0.377v-0.378h-0.377
		v28.693H541.67V56.447z M562.812,72.303v25.295h3.398v-0.378h1.51v-0.378h1.51v-0.377h0.755v-0.377h0.755V95.71h0.755v-0.377h0.755
		v-0.377h0.755v-0.378h0.377V94.2h0.377v-0.377h0.378v-0.378h0.377v-0.378h0.377V92.69h0.377v-0.377h0.377v-0.378h0.378v-0.377
		h0.377v-0.755h0.377v-0.755h0.377v-0.755h0.377V88.16h0.377v-1.132h0.378v-2.265h0.377v-3.398h-0.377v-2.265h-0.378v-1.133h-0.377
		v-0.755h-0.377v-0.755h-0.377v-0.378h-0.377v-0.755h-0.377v-0.377h-0.378v-0.377h-0.755v-0.378h-0.377v-0.377h-0.755v-0.377h-0.755
		v-0.377h-0.755v-0.377h-1.51v-0.378H562.812z"/>
	<path fill="#020202" d="M650.815,56.447h41.529v15.479h-0.377v0.377h-9.816v61.917h-21.143V72.303h-9.815v-0.377h-0.378V56.447z"/>
	<path fill="#020202" d="M699.632,56.447h34.355v0.378h3.775v0.377h2.266v0.377h1.887v0.377h1.51v0.377h1.133v0.377h1.133v0.378
		h0.756v0.377h1.132v0.377h0.755v0.377h0.756V60.6h0.377v0.378h0.756v0.377h0.377v0.377h0.755v0.377h0.378v0.377h0.377v0.378h0.378
		v0.377h0.755v0.755h0.378v0.377h0.378v0.378h0.377v0.377h0.377v0.377h0.378v0.755h0.378v0.378h0.377v0.755h0.378v0.755h0.378v0.377
		h0.377v1.133h0.377v0.755h0.379v1.133h0.377v1.133h0.377v1.51h0.378v1.888h0.378v3.775h0.377v6.041h-0.377v3.775h-0.378v1.888
		h-0.378v1.888h-0.377v1.133h-0.377v1.132h-0.379v1.133h-0.377v0.756h-0.377v0.755h-0.378v0.755h-0.378v0.755h-0.377v0.378h-0.378
		v0.755h-0.378v0.378h-0.377v0.755h-0.377v0.378h-0.378v0.377h-0.378v0.377h-0.377v0.378h-0.378v0.378h-0.378v0.377h-0.377v0.378
		h-0.378v0.378h-0.378v0.377h-0.377v0.378h-0.755v0.378h-0.378v0.377h-0.755v0.377h-0.755v0.378H747.2v0.378h-0.754v0.377h0.377
		v0.378h0.377v0.378h0.378v0.377h0.378v0.377h0.377v0.379h0.378v0.377h0.378v0.377h0.377v0.378h0.378v0.755h0.378v0.378h0.377v0.378
		h0.377v0.754h0.378v0.379h0.378v0.754h0.377v0.378h0.378v0.755h0.378v0.756h0.377v0.377h0.378v0.756h0.378v0.754h0.377v0.756h0.377
		v0.755h0.378v1.132h0.378v0.378h0.377v0.755h0.378v0.756h0.378v0.755h0.377v0.378h0.377v0.754h0.379v0.756h0.377v0.377h0.377v0.756
		h0.378v0.377h0.378v0.378h0.377v0.755h0.378v0.377h0.378v0.756h0.377v0.377h0.377v0.378h0.379v0.378h0.377v0.754h0.377v0.379h0.378
		v0.377h0.378v0.377h0.377v0.756h0.378v0.377h0.378v0.378h0.377v0.378h0.377v0.377h0.379v0.377h0.377v0.756h0.377v0.377h0.378v0.378
		h0.378v0.378h0.377v0.377h0.378v0.378h0.378v0.378h0.377v0.377h0.377v0.377h0.378v0.379h0.378v0.377h0.377v0.377h0.378v0.378h0.378
		v0.378h0.377v0.377h0.378v0.378h0.378v0.378h0.377v0.377h0.377v0.377h0.378v0.378h0.378v0.378h0.377v0.377h-25.295v-0.755h-0.377
		v-0.378h-0.378v-0.754H747.2v-0.378h-0.377v-0.378h-0.377v-0.755h-0.378v-0.378h-0.378v-0.754h-0.377v-0.379h-0.378v-0.754h-0.378
		v-0.378h-0.377v-0.755h-0.377v-0.378h-0.379v-0.755h-0.377v-0.377h-0.377v-0.756h-0.378v-0.377h-0.378v-0.756h-0.377v-0.377h-0.378
		v-0.756h-0.378v-0.377h-0.377v-0.756h-0.377v-0.377h-0.379v-0.755h-0.377v-0.378h-0.377v-0.755h-0.378v-0.378h-0.378v-0.754h-0.377
		v-0.378h-0.378v-0.755h-0.378v-0.378h-0.377v-0.755h-0.377v-0.378h-0.379v-0.378h-0.377v-0.754h-0.377v-0.378h-0.378v-0.755h-0.378
		v-0.378h-0.377v-0.755h-0.378v-0.378h-0.378v-0.755h-0.377v-0.377h-0.377v-0.756H732.1v-0.377h-0.378v-0.378h-0.377v-0.755h-0.378
		v-0.377h-0.378v-0.379h-0.377v-0.754h-0.378v-0.378h-0.378v-0.378h-0.377v-0.755h-0.377v-0.378h-0.378v-0.377h-0.378v-0.756h-0.377
		v-0.377h-0.378V112.7h-0.378v-0.378h-0.377v-0.755h-0.378v-0.378h-0.378v-0.378h-0.377v-0.377h-0.377v-0.756h-0.378v-0.377h-0.378
		v-0.377h-0.377v-0.378h-0.378v-0.378h-0.378v-0.755h-0.377v-0.378h-0.377v-0.377h-0.379v-0.377h-0.377v-0.378h-0.377v-0.378h-0.378
		v28.693h-21.142V56.447z M720.773,72.303v25.295h3.397v-0.378h1.51v-0.378h1.511v-0.377h0.755v-0.377h0.756V95.71h0.754v-0.377
		h0.756v-0.377h0.755v-0.378h0.378V94.2h0.377v-0.377h0.378v-0.378h0.378v-0.378h0.377V92.69h0.377v-0.377h0.378v-0.378h0.378
		v-0.377h0.377v-0.755h0.378v-0.755h0.378v-0.755h0.377V88.16h0.377v-1.132h0.379v-2.265h0.377v-3.398h-0.377v-2.265h-0.379v-1.133
		h-0.377v-0.755h-0.377v-0.755h-0.378v-0.378h-0.378v-0.755h-0.377v-0.377h-0.378v-0.377h-0.755v-0.378h-0.377v-0.377h-0.756v-0.377
		h-0.755v-0.377h-0.755v-0.377h-1.51v-0.378H720.773z"/>
	<path fill="#020202" d="M766.19,56.447h40.396v15.856h-19.254v15.479h15.856v16.234h-15.856v14.724h19.254v15.479H766.19v-30.203
		h-14.346v-0.378h0.377v-0.755h0.378v-0.755h0.378v-0.378h0.377v-0.755h0.378v-0.755h0.378v-0.756h0.377v-0.377h0.377v-0.755h0.378
		v-0.755h0.378v-0.378h0.377v-0.755h0.378V95.71h0.378v-0.377h0.377v-0.755h0.378v-0.755h0.378v-0.378h0.377V92.69h0.377v-0.755
		h0.378v-0.377h0.378v-0.755h0.377v-0.755h0.378V89.67h0.378v-0.755h0.377V88.16h0.377v-0.377h4.908V56.447z"/>
	<path fill="#020202" d="M827.843,56.447h28.314v1.51h0.378v1.51h0.378v1.51h0.377v1.51h0.378v1.888h0.378v1.51h0.377v1.51h0.377
		v1.888h0.379v1.51h0.377v1.51h0.377v1.51h0.378v1.888h0.378v1.51h0.377v1.51h0.378v1.51h0.378v1.888h0.377v1.51h0.377v1.51h0.378
		v1.888h0.378v1.51h0.377v1.51h0.378v1.51h0.378v1.888h0.377v1.511h0.378v1.51h0.378v1.51h0.377v1.888h0.377v1.511h0.378v1.51h0.378
		v1.888h0.377v1.511h0.378v1.51h0.378v1.51h0.377v1.888h0.378v1.511h0.378v1.51h0.377v1.888h0.377v1.511h0.378v1.51h0.378v1.51
		h0.377v1.888h0.378v1.511h0.378v1.51h0.377v1.51h0.377v1.888h0.379v1.511h0.377v1.51h0.377v1.888h0.378v0.378h-20.765v-1.511
		h-0.377v-1.888h-0.378v-1.888h-0.378v-1.888h-0.377v-1.51h-0.377v-1.888h-0.378v-1.888h-0.378v-1.888h-0.377v-1.133h-15.857v-0.755
		h-0.377v-1.133h-0.377v-0.755h-0.379v-1.133h-0.377v-1.132h-0.377v-0.379h-0.378v1.133h-0.378v1.511h-0.377v1.511h-0.378v1.51
		h-0.378v1.51h-0.377v1.133h-0.377v1.51h-0.378v1.51h-0.378v1.511h-0.377v1.511h-0.378v1.132h-0.378v1.511h-0.377v1.51h-0.378v1.51
		h-0.378v0.756H805.19v-0.756h0.377v-1.51h0.378v-1.133h0.378v-1.51h0.377v-1.133h0.378v-1.133h0.378v-1.51h0.377v-1.133h0.378
		v-1.51h0.378v-1.133h0.377v-1.133h0.377v-1.51h0.378v-1.133h0.378v-1.51h0.377v-1.133h0.378v-1.133h0.378v-1.51h0.377v-1.133h0.377
		v-1.51h0.379v-1.133h0.377v-1.133h0.377v-1.51h0.378v-1.133h0.378v-1.511h0.377v-1.132h0.378v-1.133h0.378v-1.511h0.377v-1.132
		h0.377v-1.511h0.379v-1.132h0.377v-1.133h0.377v-1.511h0.378v-1.132h0.378v-1.51h0.377V89.67h0.378v-1.132h0.378v-1.51h0.377
		v-1.133h0.377v-1.51h0.379v-1.133h0.377v-1.133h0.377v-1.51h0.378v-1.133h0.378v-1.51h0.377v-1.132h0.378v-1.133h0.378v-1.51h0.377
		v-1.132h0.377v-1.51h0.378v-1.133h0.378v-1.132h0.377v-1.51h0.378v-1.132h0.378v-1.51h0.377v-1.133h0.378v-1.132h0.378v-1.51h0.377
		v-1.133h0.377v-1.51h0.378V57.58h0.378V56.447z M841.812,77.966v1.133h-0.378v1.51h-0.378v1.132h-0.377v1.51h-0.377v1.51h-0.378
		v1.51h-0.378v1.51h-0.377v1.133h-0.378v1.51h-0.378v1.51h-0.377v1.51h-0.377v1.511h-0.379v1.133h-0.377v1.51h-0.377v1.51h-0.378
		v1.51h10.571v-0.755h-0.378v-1.888h-0.378v-1.887h-0.377V94.2h-0.378v-1.887h-0.378v-1.888h-0.377v-1.51h-0.377v-1.888h-0.378
		V85.14h-0.378v-1.888h-0.377v-1.888h-0.378v-1.888h-0.378v-1.51H841.812z"/>
	<path fill="#020202" d="M906.767,53.427h2.266v0.377h4.529v0.377h1.889v0.377h1.51v0.378h1.51v0.377h1.133v0.377h0.756v0.377h0.754
		v0.377h1.133v0.378h0.378v0.377h0.755v0.377h0.756v0.377h0.377v0.377h0.755v0.377h0.378v0.378h0.755v0.377h0.378v0.377h0.377v0.377
		h0.377V60.6h0.378v0.378h0.378v0.377h0.377v0.377h0.378v0.377h0.378v0.377h0.377v0.378h0.378v0.377h0.378v0.755h0.377v0.377h0.377
		v0.378h0.378v0.755h0.378v0.377h0.377v0.755h0.378v0.755h0.378v0.755h0.377v0.755h0.378v0.755h0.378v0.755h0.377v1.133h0.377v1.133
		h0.378v1.132h0.378v1.133h0.377v1.51h0.378v2.265h0.378v3.02h0.377v0.377h-23.407v-2.643h-0.378v-1.888h-0.377v-1.132h-0.377
		v-0.755h-0.378v-0.755h-0.378v-0.377h-0.377v-0.378h-0.378v-0.377h-0.378v-0.377h-0.755v-0.377h-1.132v-0.377h-1.511v0.377h-1.133
		v0.377h-0.755v0.377h-0.755v0.377h-0.378v0.378h-0.377v0.755h-0.378v0.377h-0.378v0.755h-0.377v1.51h-0.377v1.51h0.377v1.51h0.377
		v0.755h0.378v0.377h0.378v0.378h0.377v0.377h0.378v0.377h0.378v0.377h0.377v0.377h0.755v0.378h0.378v0.377h0.755v0.377h0.755v0.377
		h1.133v0.377h1.133v0.378h1.133v0.377h1.133v0.377h1.132v0.377h1.133v0.377h1.132v0.377h1.133v0.378h0.756v0.377h1.133v0.377h0.754
		v0.377h0.756v0.377h1.133v0.378h0.755v0.377h0.755v0.377h0.756v0.377h0.377v0.377h0.755v0.378h0.755v0.377h0.756v0.377h0.377v0.378
		h0.755v0.378h0.378V94.2h0.755v0.378h0.378v0.378h0.755v0.377h0.378v0.377h0.377v0.379h0.755v0.377h0.378v0.377h0.377v0.378h0.378
		v0.378h0.378v0.377h0.377v0.378h0.378v0.378h0.378v0.377h0.377v0.377h0.377v0.378h0.378v0.378h0.378v0.377h0.377v0.378h0.378v0.378
		h0.378v0.377h0.377v0.756h0.377v0.377h0.379v0.377h0.377v0.756h0.377v0.377h0.378v0.756h0.378v0.755h0.377v0.378h0.378v0.754h0.378
		v0.756h0.377v0.755h0.377v0.755h0.379v0.756h0.377v1.132h0.377v1.133h0.378v0.755h0.378v1.51h0.377v1.133h0.378v1.51h0.378v1.889
		h0.377v2.265h0.377v3.021h0.378v12.081h-0.378v3.021h-0.377v1.888h-0.377v1.51h-0.378v1.511h-0.378v1.133h-0.377v1.132h-0.378
		v1.133h-0.378v1.133h-0.377v0.755h-0.377v0.755h-0.379v0.755h-0.377v0.756h-0.377v0.754h-0.378v0.756h-0.378v0.755h-0.377v0.378
		h-0.378v0.755h-0.378v0.755h-0.377v0.377h-0.377v0.756h-0.379v0.377h-0.377v0.378h-0.377v0.755h-0.378v0.378h-0.378v0.378h-0.377
		v0.377h-0.378v0.377h-0.378v0.756h-0.377v0.377h-0.377v0.378h-0.378v0.378h-0.378v0.377h-0.377v0.378h-0.378v0.378h-0.378v0.377
		h-0.377v0.377h-0.756v0.378h-0.377v0.378h-0.377v0.377h-0.378v0.378h-0.378v0.378h-0.755v0.377h-0.378v0.378h-0.377v0.378h-0.756
		v0.377h-0.377v0.377h-0.755v0.378h-0.378v0.378h-0.755v0.377h-0.755v0.378h-0.377v0.378h-0.756v0.377h-0.755v0.377h-0.755v0.379
		h-0.756v0.377h-1.133v0.377h-0.754v0.378h-0.756v0.378h-1.133v0.377h-1.133v0.378h-1.132v0.378h-1.133v0.377h-1.51v0.377h-1.511
		v0.379h-1.887v0.377h-2.266v0.377h-3.021v0.378h-13.214v-0.378h-3.397v-0.377h-2.644v-0.377h-2.265v-0.379h-1.888v-0.377h-1.51
		v-0.377h-1.51v-0.378h-1.511v-0.378h-1.133v-0.377h-1.132v-0.378h-1.133v-0.378h-1.133v-0.377h-1.133v-0.377h-0.755v-0.379h-1.133
		v-0.377h-0.755v-0.377h-1.133v-0.378h-0.755v-0.378h-0.755v-0.377h-0.756v-0.378h-0.754v-0.378h-0.756v-0.377h-0.755v-0.377h-0.755
		v-0.378h-0.756v-0.378h-0.754v-0.377h-0.756v-0.378h-0.377v-0.378h-0.756V164.8h-0.755v-0.378h-0.378v-0.378H855.8v-0.377h-0.379
		v-0.377h-0.754v-0.378h-0.378v-0.378h-0.755v-0.377h-0.378v-0.378h-0.378v-0.378h-0.754v-0.377h-0.378v-0.378h-0.378v-0.378h-0.755
		v-0.377h-0.378v-0.377h-0.377v-0.378h-0.378v-0.378h32.468v0.378h1.133v0.378h1.133v0.377h1.133v0.377h1.51v0.378h1.51v0.378h1.889
		v0.377h2.643v0.378h11.703v-0.378h2.266v-0.377h1.51v-0.378h1.133v-0.378h1.133v-0.377h0.755v-0.377h0.755v-0.378h0.756v-0.378
		h0.377v-0.377h0.755v-0.378h0.378v-0.378h0.377v-0.377h0.756v-0.377h0.377v-0.379h0.377v-0.377h0.379v-0.755h0.377v-0.378h0.377
		v-0.377h0.378v-0.378h0.378v-0.755h0.377v-0.756h0.378v-0.377h0.378v-0.755h0.377v-0.755h0.377v-0.756h0.379v-1.132h0.377v-1.133
		h0.377v-1.133h0.378v-1.51h0.378v-1.888h0.377v-2.643h0.378v-8.684h-0.378v-2.266h-0.377v-1.51h-0.378v-1.133h-0.378v-1.133h-0.377
		v-0.755h-0.377v-0.755h-0.379v-0.755h-0.377v-0.755h-0.377v-0.756h-0.378v-0.755h-0.378v-0.378h-0.377v-0.754h-0.378v-0.378h-0.378
		v-0.378h-0.377v-0.755h-0.377v-0.378h-0.379v-0.377h-0.377v-0.377h-0.377v-0.379h-0.378v-0.377h-0.378v-0.377h-0.377v-0.378h-0.378
		v-0.378h-0.378v-0.377h-0.377v-0.378h-0.377v-0.378h-0.378v-0.377h-0.378v-0.377h-0.755v-0.379h-0.378v-0.377h-0.377V112.7h-0.756
		v-0.378h-0.377v-0.378h-0.377v-0.377h-0.756v-0.378h-0.377v-0.378h-0.756v-0.377h-0.755v-0.377h-0.378v-0.379h-0.754v-0.377h-0.756
		v-0.377h-0.755v-0.378h-0.755v-0.378h-0.756v-0.377h-0.754v-0.378h-0.756v-0.378h-1.133v-0.377h-0.754v-0.377h-0.756v-0.378h-1.133
		v-0.378h-1.133v-0.377h-0.754v-0.378h-1.133v-0.378h-0.756v-0.377h-0.755v-0.378h-0.378v-0.378h-0.754v-0.377h-0.756v-0.377h-0.377
		v-0.378h-0.378v-0.378h-0.755v-0.377h-0.378v-0.378h-0.378v-0.378h-0.377v-0.377h-0.377v-0.378h-0.378v-0.378h-0.378v-0.377h-0.377
		v-0.377h-0.378v-0.378h-0.378v-0.378h-0.377v-0.377h-0.378v-0.756h-0.378v-0.377h-0.377V95.71h-0.377v-0.377h-0.378v-0.755h-0.378
		v-0.755h-0.377v-0.756h-0.378v-0.754h-0.378v-0.755h-0.377v-1.132h-0.377v-1.133h-0.379V88.16h-0.377v-1.51h-0.377v-1.888h-0.378
		v-6.796h0.378v-1.888h0.377v-1.888h0.377v-1.51h0.379v-1.133h0.377v-1.133h0.377v-0.755h0.378v-0.755h0.378v-1.133h0.377v-0.377
		h0.378v-0.755h0.378v-0.755h0.377V65.13h0.377v-0.377h0.378v-0.755h0.378V63.62h0.377v-0.377h0.378v-0.755h0.378V62.11h0.377
		v-0.377h0.378v-0.377h0.378v-0.377h0.377V60.6h0.377v-0.377h0.378v-0.377h0.378v-0.377h0.755V59.09h0.378v-0.378h0.377v-0.377
		h0.756v-0.377h0.377V57.58h0.755v-0.377h0.755v-0.377h0.378v-0.378h1.132v-0.377h0.756v-0.377h0.755v-0.377h1.133v-0.377h1.511
		v-0.378h1.51v-0.377h1.887v-0.377h4.531V53.427z"/>
	<path fill="#020202" d="M940.292,56.447h20.387v50.212h0.377v1.51h0.378v1.51h0.378v0.756h0.377v0.755h0.377v0.755h0.379v0.378
		h0.377v0.378h0.377v0.377h0.378v0.377h0.378v0.379h0.377v0.377h0.378v0.377h0.755v0.378h0.377v0.378h1.133v0.377h1.133v0.378h6.041
		v-0.378h1.133v-0.377h1.133v-0.378h0.754v-0.378h0.378v-0.377h0.378v-0.377h0.755v-0.379h0.378v-0.377h0.377v-0.755h0.377v-0.378
		h0.379v-0.755h0.377v-0.755h0.377v-0.756h0.378v-1.132h0.378v-1.511h0.377V56.447h20.387v50.967h-0.377v2.644h-0.377v1.887h-0.379
		v1.51h-0.377v1.511h-0.377v1.133h-0.378v1.132h-0.378v0.756h-0.377v0.755h-0.378v0.755h-0.378v0.756h-0.377v0.754h-0.377v0.756
		h-0.379v0.377h-0.377v0.756H997.3v0.377h-0.378v0.756h-0.378v0.377h-0.377v0.377h-0.378v0.378h-0.378v0.755h-0.377v0.378h-0.377
		v0.378h-0.378v0.377h-0.378v0.378h-0.377v0.378h-0.378v0.377h-0.378v0.377h-0.755v0.378h-0.378v0.378h-0.377v0.377h-0.377v0.378
		h-0.756v0.378h-0.755v0.377h-0.378v0.377h-0.755v0.379h-0.755v0.377h-1.133v0.377h-1.133v0.378h-1.133v0.378h-1.51v0.377h-1.887
		v0.378h-2.644v0.378h-10.193v-0.378h-3.775v-0.378h-2.643v-0.377h-1.888v-0.378h-1.133v-0.378h-1.133v-0.377h-1.133v-0.377h-0.754
		v-0.379h-0.756v-0.377h-0.755v-0.377h-0.755v-0.378h-0.378v-0.378h-0.755v-0.377h-0.377v-0.378h-0.378v-0.378h-0.755v-0.377h-0.378
		v-0.377h-0.378v-0.378h-0.377v-0.378h-0.378v-0.377h-0.378v-0.378h-0.377v-0.378h-0.377v-0.755h-0.378v-0.378h-0.378v-0.377h-0.377
		v-0.377h-0.378v-0.756h-0.378v-0.377h-0.377v-0.756H945.2v-0.377h-0.379v-0.756h-0.377v-0.754h-0.377v-0.756h-0.378v-0.755h-0.378
		v-0.755h-0.377v-0.756h-0.378v-1.132h-0.378v-1.511h-0.377v-1.51h-0.377v-1.888h-0.379v-1.888h-0.377v-2.643h-0.377V56.447z"/>
	<path fill="#020202" d="M1009.493,56.447h34.356v0.378h3.774v0.377h2.266v0.377h1.889v0.377h1.51v0.377h1.133v0.377h1.133v0.378
		h0.754v0.377h1.133v0.377h0.756v0.377h0.754V60.6h0.378v0.378h0.755v0.377h0.379v0.377h0.754v0.377h0.377v0.377h0.379v0.378h0.377
		v0.377h0.756v0.755h0.377v0.377h0.377v0.378h0.377v0.377h0.379v0.377h0.377v0.755h0.377v0.378h0.379v0.755h0.377v0.755h0.377v0.377
		h0.379v1.133h0.377v0.755h0.377v1.133h0.377v1.133h0.379v1.51h0.377v1.888h0.377v3.775h0.379v6.041h-0.379v3.775h-0.377v1.888
		h-0.377v1.888h-0.379v1.133h-0.377v1.132h-0.377v1.133h-0.377v0.756h-0.379v0.755h-0.377v0.755h-0.377v0.755h-0.379v0.378h-0.377
		v0.755h-0.377v0.378h-0.379v0.755h-0.377v0.378h-0.377v0.377h-0.377v0.377h-0.379v0.378h-0.377v0.378h-0.377v0.377h-0.379v0.378
		h-0.377v0.378h-0.377v0.377h-0.377v0.378h-0.756v0.378h-0.378v0.377h-0.755v0.377h-0.755v0.378h-0.755v0.378h-0.756v0.377h0.378
		v0.378h0.378v0.378h0.377v0.377h0.378v0.377h0.378v0.379h0.377v0.377h0.377v0.377h0.378v0.378h0.378v0.755h0.377v0.378h0.379v0.378
		h0.377v0.754h0.377v0.379h0.377v0.754h0.379v0.378h0.377v0.755h0.377v0.756h0.379v0.377h0.377v0.756h0.377v0.754h0.377v0.756h0.379
		v0.755h0.377v1.132h0.377v0.378h0.379v0.755h0.377v0.756h0.377v0.755h0.379v0.378h0.377v0.754h0.377v0.756h0.377v0.377h0.379v0.756
		h0.377v0.377h0.377v0.378h0.379v0.755h0.377v0.377h0.377v0.756h0.379v0.377h0.377v0.378h0.377v0.378h0.377v0.754h0.379v0.379h0.377
		v0.377h0.377v0.377h0.379v0.756h0.377v0.377h0.377v0.378h0.379v0.378h0.377v0.377h0.377v0.377h0.377v0.756h0.379v0.377h0.377v0.378
		h0.377v0.378h0.379v0.377h0.377v0.378h0.377v0.378h0.379v0.377h0.377v0.377h0.377v0.379h0.377v0.377h0.379v0.377h0.377v0.378h0.377
		v0.378h0.379v0.377h0.377v0.378h0.377v0.378h0.377v0.377h0.379v0.377h0.377v0.378h0.377v0.378h0.379v0.377h-25.295v-0.755h-0.378
		v-0.378h-0.378v-0.754h-0.377v-0.378h-0.378v-0.378h-0.378v-0.755h-0.377v-0.378h-0.377v-0.754h-0.379v-0.379h-0.377v-0.754h-0.377
		v-0.378h-0.378v-0.755h-0.378v-0.378h-0.377v-0.755h-0.378v-0.377h-0.378v-0.756h-0.377v-0.377h-0.377v-0.756h-0.379v-0.377h-0.377
		v-0.756h-0.377v-0.377h-0.378v-0.756h-0.378v-0.377h-0.377v-0.755h-0.378v-0.378h-0.378v-0.755h-0.377v-0.378h-0.377v-0.754h-0.379
		v-0.378h-0.377v-0.755h-0.377v-0.378h-0.378v-0.755h-0.378v-0.378h-0.377v-0.378h-0.378v-0.754h-0.378v-0.378h-0.377v-0.755h-0.377
		v-0.378h-0.378v-0.755h-0.378v-0.378h-0.377v-0.755h-0.378v-0.377h-0.378v-0.756h-0.377v-0.377h-0.378v-0.378h-0.378v-0.755h-0.377
		v-0.377h-0.377v-0.379h-0.378v-0.754h-0.378v-0.378h-0.377v-0.378h-0.378v-0.755h-0.378v-0.378h-0.377v-0.377h-0.378v-0.756h-0.378
		v-0.377h-0.377V112.7h-0.377v-0.378h-0.378v-0.755h-0.378v-0.378h-0.377v-0.378h-0.378v-0.377h-0.378v-0.756h-0.377v-0.377h-0.377
		v-0.377h-0.379v-0.378h-0.377v-0.378h-0.377v-0.755h-0.378v-0.378h-0.378v-0.377h-0.377v-0.377h-0.378v-0.378h-0.378v-0.378h-0.377
		v28.693h-21.143V56.447z M1030.636,72.303v25.295h3.398v-0.378h1.51v-0.378h1.51v-0.377h0.755v-0.377h0.755V95.71h0.756v-0.377
		h0.755v-0.377h0.755v-0.378h0.377V94.2h0.378v-0.377h0.378v-0.378h0.377v-0.378h0.378V92.69h0.378v-0.377h0.377v-0.378h0.378
		v-0.377h0.378v-0.755h0.377v-0.755h0.377v-0.755h0.378V88.16h0.378v-1.132h0.377v-2.265h0.378v-3.398h-0.378v-2.265h-0.377v-1.133
		h-0.378v-0.755h-0.378v-0.755h-0.377v-0.378h-0.377v-0.755h-0.378v-0.377h-0.378v-0.377h-0.755v-0.378h-0.378v-0.377h-0.755v-0.377
		h-0.755v-0.377h-0.755v-0.377h-1.511v-0.378H1030.636z"/>
	<path fill="#020202" d="M1076.053,56.447h40.396v15.856h-19.255v15.479h15.856v16.234h-15.856v14.724h19.255v15.479h-40.396
		v-30.203h-14.347v-0.378h0.378v-0.755h0.378v-0.755h0.377v-0.378h0.378v-0.755h0.377v-0.755h0.378v-0.756h0.378v-0.377h0.377
		v-0.755h0.378v-0.755h0.377v-0.378h0.378v-0.755h0.377V95.71h0.378v-0.377h0.378v-0.755h0.377v-0.755h0.378v-0.378h0.377V92.69
		h0.378v-0.755h0.378v-0.377h0.377v-0.755h0.378v-0.755h0.377V89.67h0.378v-0.755h0.378V88.16h0.377v-0.377h4.908V56.447z"/>
</g>
</svg>
