<svg id="Layer_1" data-name="Layer 1" xmlns="http://www.w3.org/2000/svg" xmlns:xlink="http://www.w3.org/1999/xlink" viewBox="0 0 94.75 79.5"><defs><style>.cls-1{fill:none;}.cls-2{clip-path:url(#clip-path);}.cls-3{clip-path:url(#clip-path-2);}.cls-4{clip-path:url(#clip-path-3);}.cls-5{fill:#24242a;}.cls-6{fill:#f68b1f;}.cls-7{fill:#fbdc2f;}.cls-8{fill:#fcf8cb;}.cls-9{fill:#dd2127;}</style><clipPath id="clip-path"><rect class="cls-1" x="-12.5" y="-4.54" width="113.33" height="89.12"/></clipPath><clipPath id="clip-path-2"><rect class="cls-1" x="-36.36" y="-53.2" width="283.79" height="226.72"/></clipPath><clipPath id="clip-path-3"><rect class="cls-1" x="-36.36" y="-53.2" width="283.79" height="226.72"/></clipPath></defs><title>BOOM</title><g class="cls-2"><g class="cls-3"><g class="cls-4"><polygon class="cls-5" points="56.53 59.88 50.43 78.66 40.31 66.03 24.71 77.77 22.83 59.57 0.78 55.72 19.91 38.18 10.53 13.87 34.28 23.48 43.08 0.98 56.01 16.71 77.22 4.57 79.14 18.62 94.26 18.17 79.42 34.3 90.77 50.81 68.51 49.22 71.73 67.69 56.53 59.88"/><polygon class="cls-6" points="23.37 39.01 14.51 17.72 35.23 25.63 43.63 5.03 55.45 19.93 75.69 7.89 77.88 20.08 88.63 20.43 75.65 34.05 86.28 48.38 66.38 47.16 68.52 63.16 55 56.03 49.52 74.47 40.62 63.74 28.15 73.27 29.34 56.12 5.79 54.1 23.37 39.01"/><polygon class="cls-7" points="40.79 62.25 29.4 70.94 30.5 55.13 8.47 53.24 24.68 39.32 16.48 19.64 35.84 27.03 43.94 7.17 55.19 21.35 74.9 9.63 76.97 21.13 86.17 21.43 74.23 33.96 84.02 47.15 65.12 45.99 67.16 61.22 54.34 54.45 49.06 72.21 40.79 62.25"/><polygon class="cls-8" points="41.29 57.77 33.14 64 33.96 52.16 16.46 50.66 28.59 40.25 22.39 25.37 37.65 31.19 44.85 13.54 54.41 25.59 72.53 14.81 74.23 24.3 78.81 24.45 69.99 33.7 77.25 43.48 61.38 42.5 63.1 55.4 52.35 49.73 47.68 65.45 41.29 57.77"/><path d="M25.34,58.13a3.55,3.55,0,0,0-1.27-.93A6,6,0,0,0,24,52.56a4.58,4.58,0,0,0-.47-.82,3.71,3.71,0,0,0-3.13-1.65,4.88,4.88,0,0,0-1.17.15,8.17,8.17,0,0,0-2,.66c-.12.06-.41.22-1.65,1-.35.2-.66.4-.93.59a32.79,32.79,0,0,0-3.76,3.21l-.39.38,3.64,3.28.14-.16c0,.26.08.48.12.68a52.74,52.74,0,0,0,1.29,5.33c.65,2.09,1.35,4.11,2.09,6l.28.72.56-.53c.61-.57,1.27-1.17,2-1.8l1.94-1.73L24.58,66l0,0a6,6,0,0,0,1.2-7,5.11,5.11,0,0,0-.47-.83m-5.87,3.62.08,0a1.86,1.86,0,0,0,.25-.14l.23-.16a2.88,2.88,0,0,1,.82-.47,2.35,2.35,0,0,1,.55-.08.62.62,0,0,1,.58.27c.21.29.43.77-.17,1.68a6.86,6.86,0,0,1-1.61,1.64l-.15.11c-.07-.23-.11-.38-.12-.44-.16-.73-.28-1.34-.35-1.82l-.16-.49c0-.05.06-.06,0-.06M20,56.4a6.69,6.69,0,0,1-1.64,1.65l-.13.1c-.09-.33-.12-.42-.12-.45a13.13,13.13,0,0,1-.33-1.79l-.05-.52a2.32,2.32,0,0,1,.25-.22l.23-.17a2.46,2.46,0,0,1,.81-.45,2.09,2.09,0,0,1,.56-.09.66.66,0,0,1,.59.26c.21.29.42.78-.17,1.68"/><path d="M38,44.12a6.86,6.86,0,0,0-1.49-1.44l.44-1.15-.47-.19c-2.6-1.09-5.4-.61-8.25,1.42a8.77,8.77,0,0,0-3.56,5.71,9.61,9.61,0,0,0,1,6.65,13.8,13.8,0,0,0,.8,1.23A8.3,8.3,0,0,0,31,59.71a6.43,6.43,0,0,0,1.61.22,6.7,6.7,0,0,0,3.91-1.36,8.59,8.59,0,0,0,3.73-5.88A11.56,11.56,0,0,0,39,45.84a12.66,12.66,0,0,0-1-1.72m-4.42,3.13a1.93,1.93,0,0,1,1.39.91,5.1,5.1,0,0,1,.33.58A6.48,6.48,0,0,1,36,52.08a3.57,3.57,0,0,1-1.54,2.73,2.74,2.74,0,0,1-1.63.55h0a3.2,3.2,0,0,1-.79-.11,3.74,3.74,0,0,1-2.13-1.5,5.13,5.13,0,0,1-.4-.67,5.37,5.37,0,0,1-.63-3.47,4.43,4.43,0,0,1,1.9-2.88,2.83,2.83,0,0,1,1.66-.59,2.58,2.58,0,0,1,.85.15l-.41.88Z"/><path d="M52,34.15a6.89,6.89,0,0,0-1.49-1.45l.44-1.14-.46-.19c-2.61-1.09-5.4-.61-8.25,1.42a8.78,8.78,0,0,0-3.57,5.71,9.67,9.67,0,0,0,1,6.65c.26.45.53.86.79,1.23A8.3,8.3,0,0,0,45,49.73a6.08,6.08,0,0,0,1.62.22,6.71,6.71,0,0,0,3.91-1.35,8.61,8.61,0,0,0,3.72-5.89A11.64,11.64,0,0,0,53,35.86a11.89,11.89,0,0,0-1-1.71m-4.41,3.12a2,2,0,0,1,1.39.92,3.19,3.19,0,0,1,.32.58A6.25,6.25,0,0,1,50,42.1a3.58,3.58,0,0,1-1.53,2.74,2.76,2.76,0,0,1-2.42.44,3.78,3.78,0,0,1-2.14-1.51,5,5,0,0,1-.39-.66,5.47,5.47,0,0,1-.64-3.48,4.41,4.41,0,0,1,1.91-2.87,2.82,2.82,0,0,1,1.66-.6,2.31,2.31,0,0,1,.84.16l-.41.88Z"/><path d="M71,27.81l-1.27-3c-.57-1.35-.88-2.1-1-2.27l-3.38-8.22-.54.45c-.25.21-.52.45-.82.74l-1.14,1.27a9.87,9.87,0,0,1-1.1,1.09l-.09.07-.05.11a13.23,13.23,0,0,0-1,3.34,26.76,26.76,0,0,0-.21,7.8,27.89,27.89,0,0,0-2.51-2.27c-1.11-.89-2.34-1.86-3.65-2.86l-.39-.3L50.45,27.6l.44.34,1,.72a3.74,3.74,0,0,1,.76.62s0,0,0,.11c.18,1.47.38,2.68.57,3.6a52,52,0,0,0,1.29,5.33c.58,1.83,1.21,3.63,1.86,5.34l.31.82,3.58-4.17L60.16,40a14.35,14.35,0,0,1-1.56-4.09l-.49-2.1a43.9,43.9,0,0,1,4,4.6,3.63,3.63,0,0,1,.33.51l.34.73,3.5-4-.1-.28a23.25,23.25,0,0,1-1.31-5.26,28.35,28.35,0,0,1-.14-4.72c.16.54.32,1,.46,1.4.58,1.68,1,2.88,1.21,3.56.73,2.27,1.35,4.07,1.83,5.35l.32.84,4-4.95-.14-.3C72,30.14,71.45,29,71,27.81"/><path d="M70.07,18.49c1.15,3.16,1.92,5.4,2.28,6.67l.22.79,3.81-3.26-1.2-3.63c-.45-1.39-.75-2.29-.89-2.66a23.22,23.22,0,0,0-2.14-4.85l-.34-.47-.43.39c-1.14,1-2.06,1.86-2.72,2.5l-.25.24L69.13,16c.26.62.57,1.44.94,2.46"/><path d="M78.14,27.24c-.58-1.43-1-2.48-1.2-3.1l-.25-.76-3.77,3.48.11.31c.39,1.17.85,2.39,1.35,3.64l.33.81.56-.68c1-1.18,1.87-2.21,2.68-3.06l.32-.32Z"/><path class="cls-9" d="M26.5,56.82a4.32,4.32,0,0,0-1.5-1,5.62,5.62,0,0,0,.07-4.66,4.36,4.36,0,0,0-.41-.74,3.36,3.36,0,0,0-3.78-1.3,7.74,7.74,0,0,0-1.89.63c-.15.06-.68.38-1.61.94-.34.2-.64.39-.89.57a33.47,33.47,0,0,0-3.7,3.15L15.63,57c.15-.17.32-.39.51-.64.12.77.22,1.37.31,1.81a51.09,51.09,0,0,0,1.27,5.27c.65,2.1,1.34,4.08,2.08,6,.61-.57,1.27-1.17,2-1.81l1.94-1.72L25.8,64a5.45,5.45,0,0,0,1.12-6.4,4.18,4.18,0,0,0-.42-.75m-7,.59q-.31-1.12-.33-1.2a14.43,14.43,0,0,1-.34-1.86l-.88.13a9.39,9.39,0,0,1,1.29-1.34l.23-.17a3.45,3.45,0,0,1,1-.53,1.43,1.43,0,0,1,1.71.37A1.87,1.87,0,0,1,22,55.07a7.1,7.1,0,0,1-1.75,1.77Zm4.34,4.07a7.34,7.34,0,0,1-1.73,1.77l-.76.55c-.19-.65-.3-1-.34-1.19-.16-.75-.28-1.36-.35-1.84l-.22-.67a1.62,1.62,0,0,1,.34-.39l.14-.08a.65.65,0,0,0,.17-.09l.23-.16a3.18,3.18,0,0,1,1-.54,1.42,1.42,0,0,1,1.7.37,1.87,1.87,0,0,1-.16,2.27"/><path class="cls-9" d="M39.14,42.81a6.85,6.85,0,0,0-1.69-1.56l.4-1q-3.68-1.53-7.75,1.37A8.29,8.29,0,0,0,26.74,47a9.12,9.12,0,0,0,1,6.3,12.91,12.91,0,0,0,.77,1.19,7.79,7.79,0,0,0,4.23,3.16,5.83,5.83,0,0,0,5.08-1.06A8,8,0,0,0,41.33,51a11.14,11.14,0,0,0-1.25-6.55,11,11,0,0,0-.94-1.64m-1.08,7.7a4.06,4.06,0,0,1-1.75,3.1,3.24,3.24,0,0,1-2.85.53A4.32,4.32,0,0,1,31,52.43a5.36,5.36,0,0,1-.44-.73,5.89,5.89,0,0,1-.68-3.8A5,5,0,0,1,32,44.7a3.12,3.12,0,0,1,3.51-.28l-.33.7A2.44,2.44,0,0,1,37,46.25a4.8,4.8,0,0,1,.37.65,6.8,6.8,0,0,1,.73,3.61"/><path class="cls-9" d="M53.14,32.83a7.1,7.1,0,0,0-1.7-1.55l.4-1.05Q48.17,28.7,44.1,31.6A8.21,8.21,0,0,0,40.74,37a9.08,9.08,0,0,0,1,6.3c.26.43.51.83.77,1.19a7.72,7.72,0,0,0,4.23,3.15,5.84,5.84,0,0,0,5.09-1A8.08,8.08,0,0,0,55.32,41a11,11,0,0,0-1.25-6.55,13.08,13.08,0,0,0-.93-1.65m-1.08,7.71a4.09,4.09,0,0,1-1.76,3.1,3.27,3.27,0,0,1-2.85.53A4.26,4.26,0,0,1,45,42.46a5,5,0,0,1-.44-.73,5.9,5.9,0,0,1-.68-3.8A4.92,4.92,0,0,1,46,34.73a3.11,3.11,0,0,1,3.5-.28l-.32.7A2.46,2.46,0,0,1,51,36.27a3.78,3.78,0,0,1,.37.66,6.82,6.82,0,0,1,.74,3.61"/><path class="cls-9" d="M70.79,23.41c-.57-1.35-.88-2.11-1-2.28l-3.11-7.56c-.24.2-.5.43-.77.69l-1.12,1.26a10.92,10.92,0,0,1-1.17,1.15,12.65,12.65,0,0,0-.94,3.21,26.59,26.59,0,0,0,.05,9.37,22.24,22.24,0,0,0-3.62-3.53q-1.63-1.34-3.63-2.86l-2.74,3.06,1,.7a3.91,3.91,0,0,1,.9.75,1.47,1.47,0,0,1,.13.3c.19,1.47.38,2.68.57,3.61a53.38,53.38,0,0,0,1.28,5.27q.87,2.75,1.85,5.31l2.77-3.22a14.52,14.52,0,0,1-1.61-4.23l-.84-3.61c.08-.06.49.28,1.2,1a44.49,44.49,0,0,1,4.12,4.69,4.14,4.14,0,0,1,.37.59l2.78-3.2A24,24,0,0,1,66,28.51q-.5-5.53.34-6.74c.39,1.34.71,2.41,1,3.2.59,1.7,1,2.89,1.22,3.57q1.1,3.42,1.82,5.32l3.28-4c-.55-1.12-1.06-2.27-1.56-3.46Z"/><path class="cls-9" d="M78,22.69l-2.93,2.7c.39,1.16.83,2.36,1.34,3.62,1-1.21,1.9-2.24,2.71-3.1l.09-.09c-.59-1.45-1-2.49-1.21-3.13"/><path class="cls-9" d="M76.27,17.6c-.45-1.39-.75-2.27-.89-2.63a23.36,23.36,0,0,0-2.07-4.73c-1.14,1-2,1.85-2.71,2.49l.6,1.49c.26.63.57,1.45.94,2.48,1.17,3.18,1.93,5.42,2.3,6.71l2.93-2.5Z"/></g></g></g></svg>