<svg id="Layer_1" data-name="Layer 1" xmlns="http://www.w3.org/2000/svg" viewBox="0 0 110.69 42.75"><defs><style>.cls-1{fill:#f99d1c;}</style></defs><title>cool</title><path d="M109.58,19.77A21.87,21.87,0,0,0,101,14.19c-3-.88-5.3,2.36-6.87,4.47-2.16,2.89-3.57,6.41-6,9.05-1-1.76-2.35-2.16-4.17-2.86.28-.63.58-1.26.86-1.9s.5-1.16.66-1.44l.14-.23.35-.91,3-7.26a3.47,3.47,0,0,0,0-2.72C87.48,7.08,78.85,5.72,76.14,7.6a8.75,8.75,0,0,0-.6-1.67L74.56,4c-2.25.07-5.8.62-7.77-.28A15.74,15.74,0,0,0,50.43,5.18a13.74,13.74,0,0,0-1.54,1.3,12.64,12.64,0,0,0-2.26-4.05L45.14.83c-.6-.64-3.42,1-4,1.31-1.28.75-1.22.88-2.68.54a15.14,15.14,0,0,0-9.49.8,26,26,0,0,0-8.72,6.79c-.78-1.74-1.78-3.7-3.93-3.7a5.89,5.89,0,0,0-2,.38,24.13,24.13,0,0,0-9.77,6.36A18.35,18.35,0,0,0,1,20.18C-.42,25.23.43,31,4.44,34.6a15.48,15.48,0,0,0,12.67,3.81c4.16-.65,8.42-4.07,11-7.27-.36.45,2.77,1.4,3,1.5,5.23,1.88,10.48-.92,14.15-4.87a16.37,16.37,0,0,0,1.67-2.14,7.87,7.87,0,0,0,.44.69,13.34,13.34,0,0,0,7.63,5,16.75,16.75,0,0,0,11.39-1A3.82,3.82,0,0,0,68,33.72l.77.54a55.24,55.24,0,0,1,7.62,1.52c2.53.85,4.34,1.86,7.07,1.56A8.7,8.7,0,0,0,94.51,41.9c1.72-.66,3.6-2.76,3.7-4.63.06-1.22-.44-2.11,0-3.3,1.8-4.57,6.9-7.7,10.66-10.53,1.55-1.17,2.33-1.8.69-3.67m-51.8-3.46a2.64,2.64,0,0,1,.18-.58,2.69,2.69,0,0,1,.33-.5c.09-.12.19-.25.29-.41a3.06,3.06,0,0,1,.88-.57,4,4,0,0,1,.61-.13c.4,0,.71.08,1.11.14.19.12.44.32.6.44a8.15,8.15,0,0,0,.8.57l.2.11-.11.57a9.05,9.05,0,0,1-.75,1.6,7.57,7.57,0,0,1-.74,1l0,.06a4.2,4.2,0,0,1-.9.68.31.31,0,0,1-.13.05l-.13,0a3.05,3.05,0,0,1-.71,0l-.53-.1-.19,0-.17-.09A1.24,1.24,0,0,1,58,18.8q0-.15-.09-.36a7.6,7.6,0,0,1-.23-1ZM36.31,18.57a3.79,3.79,0,0,1-.67.91l-.12.08-.13.06a2.8,2.8,0,0,1-.66.23l-.54,0-.2,0a.91.91,0,0,1-.2,0,1.77,1.77,0,0,1-.44-.25l-.18-.31a8.88,8.88,0,0,1-.5-.88l-.25-1.12c0-.08,0-.3,0-.61a3.89,3.89,0,0,1,.18-.55c.06-.15.12-.31.18-.49a2.89,2.89,0,0,1,.69-.8,4.17,4.17,0,0,1,.56-.3c.4-.07.72-.12,1.12-.17a6.19,6.19,0,0,1,.69.25,7.7,7.7,0,0,0,1,.33l.21.05,0,.58a9.68,9.68,0,0,1-.28,1.74,7.55,7.55,0,0,1-.44,1.13h0Zm-17,.42a15.27,15.27,0,0,0,.56,2.75c.09.33.19.63.3.92l-.35.38-.87.76a16.78,16.78,0,0,1-1.55.86l-.52.2a9.39,9.39,0,0,0-1.31.19l-.36.07a4.37,4.37,0,0,1-1.36-.49l-.2-.23-.14-.29a1.7,1.7,0,0,1,0-.31,4.9,4.9,0,0,0,0-.65c0-.08.05-.16.08-.24a5.21,5.21,0,0,1,.69-1.45,6.61,6.61,0,0,1,1-.87l.22-.17a7.46,7.46,0,0,1,1.71-.82,9.2,9.2,0,0,1,1-.28A11,11,0,0,0,19.26,19M29.39,31.76a3.58,3.58,0,0,0,.65.42,3,3,0,0,1-.65-.42m74.85-4a4.07,4.07,0,0,0,.72-.23,3.38,3.38,0,0,1-.72.23"/><path class="cls-1" d="M23.05,23.21a1.26,1.26,0,0,0-1,.33l-1,.85a9.82,9.82,0,0,1-5.95,2.16c-4.87-.16-6.45-5.63-3.63-9.18a10.64,10.64,0,0,1,1.83-1.62A10.84,10.84,0,0,1,16,14.44c1-.35,2.07-.5,2.34-.71s0-1.48-.53-3.22l0-.1-.38-.92.07,0,0-.09c-1.15-1.89-2.51-1-4.27-.29a18,18,0,0,0-9.39,9.75,16.68,16.68,0,0,0-.56,5.22,8.79,8.79,0,0,0,5.25,8.31,14.77,14.77,0,0,0,8,.47c1.9-.43,4.18-.88,5.81-2,1-.68,2.64-1.62,3.12-2.76.6-1.44-.82-4.67-2.37-4.84"/><path class="cls-1" d="M47,11.25a18.56,18.56,0,0,0-1.25-5.38,10.75,10.75,0,0,0-1.64-3.11l-1.06.35a2.6,2.6,0,0,1-.79.3l-1,.31-1.69.54h-.07a5.9,5.9,0,0,0-1.1-.35,3.53,3.53,0,0,0-.56-.14c-4-.22-7.61.3-10.82,2.84A12.3,12.3,0,0,0,24.93,8.8a11,11,0,0,0-2.23,5.06c-.06.72-.08,1.08-.13,1.79C22.29,20,26.24,26,30.49,27.16s9.4-.75,12.38-4.06A15.6,15.6,0,0,0,47,11.25m-7,5.17a10.1,10.1,0,0,1-.74,1.82A7.07,7.07,0,0,1,37.94,20a4.71,4.71,0,0,1-7.1-.33c-2-2.27-1.83-4.3-1.28-7,.66-3.21,5.68-3.55,8.09-2.93a2.72,2.72,0,0,0,1.45-.65l.26,0a12.87,12.87,0,0,1,.89,2.16c.09,1,.14,1.45.22,2.42A12.67,12.67,0,0,1,40,16.42"/><path class="cls-1" d="M70.5,19.92a18.07,18.07,0,0,0,2.72-11,10.46,10.46,0,0,0-.72-3.45l-1.11,0a2.58,2.58,0,0,1-.84.07l-1,0-1.77,0h-.07a5.33,5.33,0,0,0-1-.63,2.64,2.64,0,0,0-.49-.29c-2.57-.9-4.66-1.62-7.46-1.28a14.41,14.41,0,0,0-3.68,1A12.6,12.6,0,0,0,52.43,6a10.89,10.89,0,0,0-3.52,4.24c-.25.67-.37,1-.61,1.69A10,10,0,0,0,47.9,15a12.08,12.08,0,0,0,5.25,10.23c3.53,2.5,8.69,1.88,12.27-.26a15.36,15.36,0,0,0,5.08-5.09m-4.78-5.11A20.28,20.28,0,0,1,63.52,19c-2.11,2-4.36,2.61-6.93,1.07-1.78-1.07-2.15-3.22-2.22-5.13a6.19,6.19,0,0,1,3.75-5.77A8,8,0,0,1,60,8.72L62.1,9a9.66,9.66,0,0,1,2.22,1.4,2.77,2.77,0,0,0,1.58-.23l.25.05c1.07.19.48,2.43-.43,4.6"/><path class="cls-1" d="M87.12,27.72l-.23-.06a26.12,26.12,0,0,0-3.43-1.35c-2.24-.59-3.86-1.15-4.5-1.22L78.77,25a13.71,13.71,0,0,1,.92-1.61A93.89,93.89,0,0,0,85.8,9.88q.08-.18-.3-.33l-.19-.07c-1.89-.75-5.37-2.17-7.3-1.14-1.57.82-.85,1.42-1,2.76-.36,3.37-2.49,7.11-3.83,10.21-1,2.39-1.67,3.75-1.81,4-.61,1.13-1.64,2.06-2,3.28a67.37,67.37,0,0,1,12.74,3.82c.49.21,5-4,5-4.55a.81.81,0,0,1,0-.16"/><path class="cls-1" d="M92.65,32.25c-2.14-1.41-5.55-2-6.88,0-1.06,1.59.75,3.12,1.94,4a5.19,5.19,0,0,0,6,.06c1.57-1.29.66-2.93-1-4"/><path class="cls-1" d="M106.8,19.94c-1.54-1.84-4.75-3.21-6.8-4.4-.09,0-.54.15-.89.58s-.87,1-1.15,1.33a40.16,40.16,0,0,0-8,11.79,39.08,39.08,0,0,1,4.52,2.51c.82-1.51,11.91-12.31,12.44-11.63l-.15-.18"/></svg>