<svg id="Layer_1" data-name="Layer 1" xmlns="http://www.w3.org/2000/svg" viewBox="0 0 248.17 207.63"><defs><style>.cls-1{fill:#fff;}.cls-1,.cls-2,.cls-3{fill-rule:evenodd;}.cls-2{fill:#010101;}.cls-3{fill:#e41e26;}</style></defs><title>crash</title><path class="cls-1" d="M154.66,59.64C140.13,44,115.93,37,97.72,56.61c-18.52-7-39.5,1.62-37.15,27C44.9,95,43.37,117.55,65.63,127.94c10,24.37,26.53,27.29,49.32,21,21.53,10.4,31.76,5.81,46.35-12.64,18.65-3.34,31.46-19.65,22-37.73C187.5,72,183.12,62.54,154.66,59.64Z"/><path class="cls-2" d="M102.37,59.57c-21.24-12.8-48,3.07-39.71,32.73C48.94,52.64,88,45.31,102.37,59.57Z"/><path class="cls-2" d="M65.51,80.89C41.3,95.36,47.83,122.62,73,130.79,38.93,122,41.59,89.62,65.51,80.89Z"/><path class="cls-2" d="M64,120.65c10,29,28.32,37,61.72,22.95-15.2,10.45-30.92,14-42.78,9C73.29,148.45,66.19,139,64,120.65Z"/><path class="cls-2" d="M108.83,143.94c22.65,16.72,43,9.25,55.67-14.09C156,156.06,130.79,167.17,108.83,143.94Z"/><path class="cls-2" d="M177.07,91.19c17.52,20.77,2.49,45.66-23.75,44.95C183,142.3,199.53,108.37,177.07,91.19Z"/><path class="cls-2" d="M148.31,59.87c26-5,50.53,8.52,32.61,43.9C190.47,71,177.16,60.61,148.31,59.87Z"/><path class="cls-2" d="M94.62,60.33C117,36.4,141.29,46.05,157.39,63.24,146.62,41.6,112,32,94.62,60.33Z"/><path class="cls-2" d="M76.34,103c-2.77,10.51-.72,19.32,15.14,20.56C74.05,124.46,71.26,113.58,76.34,103Z"/><path class="cls-2" d="M98.88,120.36c5.51,9.37,14.83,12.25,26,3.72C114.36,136.39,102.81,131.41,98.88,120.36Z"/><path class="cls-2" d="M117.79,124.31c7.87,5.43,18.9,6.67,25.08-4.75C137.93,134.25,125.26,132.47,117.79,124.31Z"/><path class="cls-2" d="M111,76.55C101.58,71,92,73,86.44,85.89,89.63,70,102.15,68.79,111,76.55Z"/><path class="cls-2" d="M132,76.76c-6.46-8.75-16-10.65-26.2-1C114.9,62.43,126.91,66.18,132,76.76Z"/><path class="cls-2" d="M95.35,80.29c-10.84-.91-18.57,5-18,19C73.32,83.68,84.06,77.12,95.35,80.29Z"/><path class="cls-2" d="M152.77,99.35c7.48-7.9,7.67-17.66-3.61-26C163.89,80,162.3,92.51,152.77,99.35Z"/><path class="cls-2" d="M144.65,114.9c10.4-3.17,15.38-11.56,9.68-24.36C163.85,103.6,156.31,113.67,144.65,114.9Z"/><path class="cls-1" d="M35.05,67.89C33.86,93.9.6,92.36,4.79,64.16-.83,49.29,6.29,34.6,24.06,37.75c18.29-15.83,38.84,10.9,16.16,23A22.75,22.75,0,0,1,35.05,67.89Z"/><path class="cls-2" d="M26.24,38.45C6.4,33.9-3.53,52.14,8.45,68.68-5.77,56.65,3.27,29.69,26.24,38.45Z"/><path class="cls-2" d="M40.72,47.65c2.34,14.14-.42,21.57-16.6,26.05C37.27,67.29,41,61,40.72,47.65Z"/><path class="cls-2" d="M4.76,64.31c-2.95,12.8,2.16,21.1,9.63,23.3,8,2.36,26.28-5,19.63-22.6C37,81.08,22.36,87,15.09,85.13,9,83.53,4.43,77.28,4.76,64.31Z"/><path class="cls-2" d="M24,37.78c8.46-6.09,16.16-4.69,20.69-.27C51.26,43.9,51.2,56.6,37.29,62.1c18.07-5.64,17-19.7,9.29-26.66C40.83,30.25,31.23,29.17,24,37.78Z"/><polygon class="cls-2" points="44.69 58.4 75.61 86.53 75.09 87.1 43.08 60.16 44.69 58.4"/><polygon class="cls-2" points="34.36 74.05 73.05 90.87 72.78 91.59 33.03 76.51 34.36 74.05"/><polygon class="cls-2" points="39.89 66 72.97 87.95 72.57 88.6 38.38 68.11 39.89 66"/><path class="cls-1" d="M85.72,7.52C76.19,4.34,64.62,9.46,66.5,21,59,34.51,78.84,44.61,87.06,30.81c4.5.48,4,.4,8.47-.72,18,10.28,26.43-8.5,14.58-17.16C102.55.59,93,.46,85.72,7.52Z"/><path class="cls-2" d="M83.1,10.6C93-1.06,107.43,2.33,111,19,110-3,87.79-1.68,83.1,10.6Z"/><path class="cls-2" d="M87.93,8.68C75,2.61,61.14,13.14,69.88,30.11,57.32,12.71,75.52-.73,87.93,8.68Z"/><path class="cls-2" d="M67.43,18.7c-6,7.55-3.17,15.14,2.44,18.12,4.39,2.34,13.42,2.61,17.19-6.19-4,6.75-12,6.89-16.1,4.65C66.21,32.7,63.61,26.65,67.43,18.7Z"/><path class="cls-2" d="M107.61,11.59c9.45,5.7,9,17.07.28,20.45-2.62,1-7.27.79-12.1-1.87a13.24,13.24,0,0,0,12.45,3.6C117.87,30.92,121,16.6,107.61,11.59Z"/><path class="cls-2" d="M78.5,27.37c8.73,6.8,21,5.63,25.5-4.95C97.26,31.44,88.81,31.8,78.5,27.37Z"/><path class="cls-2" d="M77.49,33.25c6-1.78,7.22-6.53,4.36-12.84C82.8,25.67,82.33,30.14,77.49,33.25Z"/><path class="cls-2" d="M96.84,19.3c.62,7.3,6.16,10.86,13.21,8.8C104.13,28.5,99,25.86,96.84,19.3Z"/><polygon class="cls-2" points="102.7 60.48 100.09 32.66 101.95 33.07 103.47 60.44 102.7 60.48"/><polygon class="cls-2" points="84.8 34.05 99.73 61.3 99.06 61.69 83.19 35.38 84.8 34.05"/><polygon class="cls-2" points="93.31 31.91 101.47 60.7 100.73 60.92 91.43 32.41 93.31 31.91"/><path class="cls-1" d="M187.72,11.9C176.92-1.62,166.59.47,156.24,13.61c-8.3,3.86-10.22,8.9-8.92,12.56,3,8.39,11,11.1,17.82,11.47,2.23,6.89,14.14,11.63,20.1,9.32,3.59-1.39,6-4.69,8.71-10C205.66,26.61,201.33,13.53,187.72,11.9Z"/><path class="cls-2" d="M188.72,15.64C181.88-1.51,160,.11,154.91,18.55,157.07-4.86,186.48-4.43,188.72,15.64Z"/><path class="cls-2" d="M195.11,32c-.76,8.41-4.66,13.71-10.05,15.32-4.4,1.32-16.94.45-20-10,4.76,9.37,15.75,9.51,20,8C189.92,43.77,193.46,39.33,195.11,32Z"/><path class="cls-2" d="M157.79,13.35C144.3,16.61,146,36.29,165.21,37.63,140.19,37.54,142.42,13.82,157.79,13.35Z"/><path class="cls-2" d="M183.14,11.91c25.06-2.64,22.12,22,6.48,27.65C204.12,31.39,203.82,12,183.14,11.91Z"/><path class="cls-2" d="M167.52,32.08c8.57,5.8,15.19,5.94,22-1.29C184.62,40.08,174.88,40.51,167.52,32.08Z"/><path class="cls-2" d="M155.47,22.62c1.61,9.74,9,12.66,18.44,9.51C165.21,38,154.11,33.59,155.47,22.62Z"/><path class="cls-2" d="M165.67,18.81c3.45,6.53,11.07,9,19.42,7.32C177.84,30.92,166.47,27.34,165.67,18.81Z"/><polygon class="cls-2" points="159.85 36.82 149.66 69.48 148.92 69.27 158.19 36.39 159.85 36.82"/><polygon class="cls-2" points="151.64 70.99 170.16 43.65 171.68 44.76 152.26 71.44 151.64 70.99"/><polygon class="cls-2" points="165.27 39.84 151.04 70.25 150.34 69.94 163.65 38.9 165.27 39.84"/><path class="cls-1" d="M171,160.91c-12.08-1.49-18.49,9.67-15.83,18.56,2.31,7.71,11.84,13.52,25.53,10.2,12.78,2.67,24.82-5.47,24.33-20.7,3.78-8,1.4-14-2.75-16.91-4.66-3.3-11.13-4.57-20.25,4.34C178.65,157,175.56,156.89,171,160.91Z"/><path class="cls-2" d="M172.35,160.86c-24.5-4.72-28.24,37.65,8.56,28.77C153.2,194.88,148.11,161.83,172.35,160.86Z"/><path class="cls-2" d="M164.09,173.68c1.52-15.15,13.7-21.63,28.73-15.09C175.87,156.94,170.18,160.32,164.09,173.68Z"/><path class="cls-2" d="M198.49,174.09c18.17-10.46,2.83-34.36-17-17C197.19,134.05,224,162.05,198.49,174.09Z"/><path class="cls-2" d="M173.78,174c3,23.13,28.13,17.81,29.46-3.35l2.67-3.14c1.21,11.73-6.36,21.52-15.08,23.63C183.05,193,173.46,188.93,173.78,174Z"/><polygon class="cls-2" points="166.73 160.91 153.99 121.32 154.72 121.09 169.47 160.56 166.73 160.91"/><polygon class="cls-2" points="157.81 119.39 189.81 149.74 187.79 151.27 157.28 119.95 157.81 119.39"/><polygon class="cls-2" points="156.54 120.33 178.97 153.24 176.32 154.51 155.89 120.75 156.54 120.33"/><path class="cls-1" d="M106,168.67c-13.38-6.48-26.89-5-28,11.52-5,13,1.86,23.74,18.83,19.59,15.83,11.42,29.2,4.28,32.55-11.15,7.05-8.71,2.22-17.94-5.12-21.59C118.74,164.34,112.21,165.26,106,168.67Z"/><path class="cls-2" d="M123.37,183.9c-10.71-6.87-16.9-7.2-26.2,1.17C104.88,173.69,114.43,174.75,123.37,183.9Z"/><path class="cls-2" d="M106.14,182.16c-4-5.49-12-9.11-18.86-6.73-6.55,2.28-9.62,7.41-9.78,12.2-.47,13.94,17.41,14.21,24,9.78-12,9.45-26.81,2.68-26.64-9.78.08-6.11,4.35-12.46,11.71-14.76A16,16,0,0,1,106.14,182.16Z"/><path class="cls-2" d="M106.08,168.77c-15.62-12.36-34.7-1.15-27.19,17.7C76,169.54,89.42,160.42,106.08,168.77Z"/><path class="cls-2" d="M105.94,168.68c25.38-15.87,35.26,16,20,22.79C140,179.57,125.65,158.72,105.94,168.68Z"/><path class="cls-2" d="M129.78,185.07c-.59,25.06-27.59,28.18-36.1,11.18C106,209.7,126.06,206.48,129.78,185.07Z"/><path class="cls-2" d="M127.33,173.42c-7.8-1-14.07,1.57-16.65,11.3C112.49,179.88,117.78,174,127.33,173.42Z"/><polygon class="cls-2" points="114.97 136.95 98.57 164.91 96.57 164.25 114.3 136.59 114.97 136.95"/><polygon class="cls-2" points="118.17 137.01 117.82 165.42 115.33 165.47 117.4 137 118.17 137.01"/><polygon class="cls-2" points="116.63 137.47 106.91 166.43 104.74 166.08 115.9 137.23 116.63 137.47"/><path class="cls-1" d="M17.45,163.44c-11.51-3.34-19.38-16.2-9.73-26.21,1.85-18.34,28.12-14.83,26.83,4.27,4.74,2.59,4.15,2.3,7.82,6.45,24.66,2.15,20.17,26.26,2.68,26.72C29.27,181.65,19.84,175.33,17.45,163.44Z"/><path class="cls-2" d="M17,158.64c1.84,18.18,18.26,24.61,33.1,10.72C34.11,190.23,13.25,173.86,17,158.64Z"/><path class="cls-2" d="M20.41,163.8C3.56,161-2.84,141.27,17.22,130.55-6.89,139.1,1.86,164.62,20.41,163.8Z"/><path class="cls-2" d="M7.09,140.08c-.73-11.44,7.15-17,14.68-16.12,5.89.68,14.93,6.54,12.66,17.72.66-9.32-7.09-14.87-12.64-15.47C15.39,125.52,8.73,129.7,7.09,140.08Z"/><path class="cls-2" d="M41.68,174.28c13.14.82,20.42-10.63,14.14-19.87-1.88-2.77-6.6-5.69-13.14-6.36A15.82,15.82,0,0,1,57.34,153C64.85,162.28,58.17,178.42,41.68,174.28Z"/><path class="cls-2" d="M23.82,139.07c13.18-.74,24.42,8.73,21.66,22.14C45,147.8,36.94,141.72,23.82,139.07Z"/><path class="cls-2" d="M26.82,132.63c4.69,5.81,2.66,11.3-4.43,15.55C26.89,143.66,29.46,139,26.82,132.63Z"/><path class="cls-2" d="M36.34,159.43c5.56-6.75,13.4-6.48,18.92.32C49.73,155.34,42.94,154.48,36.34,159.43Z"/><polygon class="cls-2" points="77.06 119.4 50.62 149.35 47.98 148.04 76.48 118.89 77.06 119.4"/><polygon class="cls-2" points="33.89 134.46 73.05 116.61 73.37 117.31 34.49 136.88 33.89 134.46"/><polygon class="cls-2" points="39.5 142.08 74.25 118.38 74.71 118.99 41.57 144.24 39.5 142.08"/><path class="cls-1" d="M209.8,94.87C199.5,71.26,229.72,58.11,238.3,85c11.48,10.75,11.56,26.91-5.59,31.86-9.34,22-39.26,7.26-24.41-13.41A22.4,22.4,0,0,1,209.8,94.87Z"/><path class="cls-2" d="M230.46,117.18c19.61-4.61,20.47-25.15,2.62-34.61C251,87.05,254.68,114.94,230.46,117.18Z"/><path class="cls-2" d="M213.59,115.32c-8.25-11.53-9-19.33,3.38-30.38C208.08,96.38,207.53,103.56,213.59,115.32Z"/><path class="cls-2" d="M238.26,84.84c-3-12.66-11.12-17.8-18.72-16.49-8.15,1.4-21.16,15.9-7.58,28.63-9.62-13,.76-24.64,8-26.12C226.13,69.61,232.89,73.18,238.26,84.84Z"/><path class="cls-2" d="M232.73,116.8c-4.87,9.1-12.31,11.22-18.26,9.27-8.61-2.82-14.09-14.13-4.14-25.08-13.59,12.89-6.49,24.91,3.37,27.73C221.08,130.83,230.08,127.6,232.73,116.8Z"/><polygon class="cls-2" points="205.37 107.51 165.64 96.02 165.85 95.28 206.16 105.71 205.37 107.51"/><polygon class="cls-2" points="207.84 88.02 166.02 91.04 165.94 90.28 207.83 86.33 207.84 88.02"/><polygon class="cls-2" points="206.59 97.83 166.04 93.52 166.12 92.75 206.89 95.6 206.59 97.83"/><path class="cls-3" d="M84.39,110.55q-4.4-.43-6.51,2.67-2.94,4.35-4.8,4.1a2.34,2.34,0,0,1-1.68-1.24,9.61,9.61,0,0,1-1.11-2.91,21.84,21.84,0,0,1-.52-4,38.21,38.21,0,0,1,.06-4.53,42.94,42.94,0,0,1,2.36-9.8A19.72,19.72,0,0,1,74,91.08c.64-1,1.26-1.46,1.88-1.39A1.8,1.8,0,0,1,77.22,91a14.62,14.62,0,0,1,.59,2.52,14.63,14.63,0,0,0,.44,1.69,7.36,7.36,0,0,0,.93,1.84,5,5,0,0,0,1.32,1.28,6.28,6.28,0,0,0,1.87.8,10.69,10.69,0,0,0,2.55.28,4.61,4.61,0,0,0,1.2-.12,1.47,1.47,0,0,0,.65-.35,1.11,1.11,0,0,0,.28-.55c0-.22.1-.46.15-.71.08-.56.13-1.18.16-1.87s0-1.39,0-2.13-.11-1.47-.2-2.21-.21-1.44-.36-2.11a14.88,14.88,0,0,0-.48-1.62,5.91,5.91,0,0,0-.72-1.39,7.24,7.24,0,0,0-1.14-1.23A10,10,0,0,0,82.81,84a19,19,0,0,0-2.18-.76,21.1,21.1,0,0,0-2.52-.59,23.26,23.26,0,0,0-2.69-.33,19.37,19.37,0,0,0-2.64,0,11,11,0,0,0-3.5,1,9.53,9.53,0,0,0-3.36,2.75,24,24,0,0,0-3.24,5.33,33.82,33.82,0,0,0-2,6.12,35.74,35.74,0,0,0-.91,6.41,33.92,33.92,0,0,0,.23,6.18,25.48,25.48,0,0,0,1.33,5.44,13.18,13.18,0,0,0,2.41,4.17,6.93,6.93,0,0,0,2.24,1.82,10.36,10.36,0,0,0,2.63,1c.93.13,2,.27,3.16.4a16.71,16.71,0,0,0,3.86,0,12.22,12.22,0,0,0,2-.36,13.54,13.54,0,0,0,1.92-.67,11.94,11.94,0,0,0,1.7-.9,8.5,8.5,0,0,0,1.34-1,16.8,16.8,0,0,0,2.06-2.65,12.51,12.51,0,0,0,1.5-3.26,4.53,4.53,0,0,0,.27-2.41C86.22,111,85.56,110.64,84.39,110.55Z"/><path class="cls-2" d="M84.28,111.73a6.73,6.73,0,0,0-3.26.37,4.74,4.74,0,0,0-2.15,1.79h0A17.47,17.47,0,0,1,76,117.32a4,4,0,0,1-3,1.18,2.94,2.94,0,0,1-1.47-.59,4.11,4.11,0,0,1-1.07-1.21,8,8,0,0,1-.73-1.5,12.65,12.65,0,0,1-.54-1.77,19.91,19.91,0,0,1-.35-2c-.1-.71-.16-1.44-.2-2.21s0-1.53,0-2.32,0-1.6.11-2.35v0c.09-.79.2-1.59.34-2.41s.34-1.72.55-2.62.44-1.74.71-2.63h0c.25-.83.52-1.64.83-2.44s.61-1.52.93-2.17a16.72,16.72,0,0,1,1-1.81A5.18,5.18,0,0,1,74.26,89,2.41,2.41,0,0,1,76,88.51h.11a2.76,2.76,0,0,1,1.4.74,3.39,3.39,0,0,1,.81,1.34,13.4,13.4,0,0,1,.38,1.3q.15.69.27,1.44h0q.06.33.15.69c.07.26.15.52.23.78h0a6,6,0,0,0,.35.85,4.29,4.29,0,0,0,.42.68,3.8,3.8,0,0,0,1,1,3.41,3.41,0,0,0,.66.35,5.51,5.51,0,0,0,.84.28,9.48,9.48,0,0,0,1,.19,12.36,12.36,0,0,0,1.24.07,5,5,0,0,0,.56,0l.31,0h0l.1,0c0-.13,0-.22.06-.3a2.15,2.15,0,0,0,.06-.29h0c0-.24.06-.51.09-.83s0-.65.06-.92,0-.67,0-1,0-.66,0-1,0-.65-.08-1.07h0c0-.27-.06-.63-.11-1.07s-.1-.71-.15-1-.12-.66-.19-1h0c-.07-.29-.13-.55-.2-.78h0c-.07-.24-.15-.47-.23-.71s-.16-.38-.25-.57h0a5.84,5.84,0,0,0-.33-.53,6,6,0,0,0-.42-.52c-.16-.17-.34-.34-.52-.5a7.35,7.35,0,0,0-.65-.5c-.21-.14-.46-.3-.75-.47l-.89-.34-1.08-.35q-.52-.15-1.17-.3c-.44-.1-.85-.19-1.23-.26s-.79-.13-1.26-.19l-1.3-.12c-.41,0-.83,0-1.27,0s-.83,0-1.2,0h0a8.27,8.27,0,0,0-1.48.3,11.16,11.16,0,0,0-1.61.59,6.86,6.86,0,0,0-1.49.94,10.06,10.06,0,0,0-1.44,1.47h0a23.09,23.09,0,0,0-1.69,2.4,24,24,0,0,0-1.39,2.67c-.42,1-.8,1.91-1.13,2.9s-.6,2-.85,3-.43,2.06-.58,3.08-.24,2.08-.29,3.11a31.6,31.6,0,0,0,.22,6,27.14,27.14,0,0,0,.51,2.71,21.64,21.64,0,0,0,.75,2.47,13.67,13.67,0,0,0,1,2.11,10.42,10.42,0,0,0,1.21,1.69l0,0a5.85,5.85,0,0,0,.82.83,6.9,6.9,0,0,0,1,.68,10.56,10.56,0,0,0,1.2.54,7.31,7.31,0,0,0,1.08.31l1.44.2,1.66.2a15.72,15.72,0,0,0,1.7.09,18.79,18.79,0,0,0,1.88-.13h0l.89-.12c.27,0,.58-.12.91-.21a9.11,9.11,0,0,0,.91-.28c.29-.1.58-.21.85-.33a7,7,0,0,0,.79-.38c.27-.14.52-.28.74-.42s.44-.3.65-.46h0c.17-.13.33-.27.49-.41.33-.34.64-.7,1-1.09s.62-.85.94-1.35a10.17,10.17,0,0,0,.79-1.44,10.62,10.62,0,0,0,.57-1.51v-.05a5.72,5.72,0,0,0,.27-1.11,2.08,2.08,0,0,0,0-.63h0s0,0,0,0a2.36,2.36,0,0,0-.91-.2Zm-4.16-1.83a9,9,0,0,1,4.36-.54h0a4.63,4.63,0,0,1,1.84.47,2.26,2.26,0,0,1,1.21,1.47,4.22,4.22,0,0,1,.08,1.48,7.89,7.89,0,0,1-.37,1.6,13.89,13.89,0,0,1-.68,1.8,14.67,14.67,0,0,1-1,1.74c-.34.53-.7,1-1.07,1.52s-.76.91-1.14,1.31l0,0c-.2.18-.43.38-.7.58h0c-.23.17-.5.35-.81.55a9.69,9.69,0,0,1-.91.53c-.29.16-.61.31-1,.46s-.67.28-1,.4-.73.24-1.07.33-.71.17-1.1.24a9.83,9.83,0,0,1-1.07.15h0a19.36,19.36,0,0,1-2.13.14,15.68,15.68,0,0,1-2-.1l-1.69-.21c-.63-.08-1.14-.14-1.51-.2h-.07a9.69,9.69,0,0,1-1.47-.43,13.36,13.36,0,0,1-1.47-.66,8.92,8.92,0,0,1-1.44-.94,8.29,8.29,0,0,1-1.18-1.19h0a13.7,13.7,0,0,1-1.44-2,16.09,16.09,0,0,1-1.15-2.47,23.6,23.6,0,0,1-.84-2.74,27,27,0,0,1-.55-3,34.49,34.49,0,0,1-.25-6.4c.06-1.12.17-2.23.32-3.32s.36-2.22.62-3.3.56-2.16.91-3.23.76-2.09,1.21-3.1A24.72,24.72,0,0,1,65,85.3h0a12.88,12.88,0,0,1,1.79-1.82,9.54,9.54,0,0,1,2-1.26,14.6,14.6,0,0,1,1.95-.72,10,10,0,0,1,1.93-.37h0c.46,0,.92-.05,1.37-.05s.91,0,1.42.05,1,.08,1.43.13.89.13,1.4.22l1.35.27c.41.1.84.21,1.29.35s.83.25,1.2.38.77.28,1.1.42l.08,0,.06,0c.33.19.66.39,1,.61a8.64,8.64,0,0,1,.85.66,7.88,7.88,0,0,1,.72.69,6.06,6.06,0,0,1,.6.74,8,8,0,0,1,.5.81h0a8.47,8.47,0,0,1,.38.87c.09.26.19.55.28.85h0c.09.31.17.61.24.91h0c.08.36.15.73.21,1.09s.13.77.17,1.14.07.68.12,1.15h0c0,.32.06.7.08,1.14s0,.74,0,1.14,0,.75,0,1.1,0,.76-.06,1-.06.63-.11.95v0c0,.16,0,.29-.07.4s-.06.28-.08.37a2.86,2.86,0,0,1-.21.58,2.44,2.44,0,0,1-.37.52,2.48,2.48,0,0,1-.57.42h0a3.37,3.37,0,0,1-.61.24h0a4.87,4.87,0,0,1-.72.13c-.23,0-.5,0-.8,0h0a13.27,13.27,0,0,1-1.49-.08,11.73,11.73,0,0,1-1.35-.24,8.75,8.75,0,0,1-1.19-.4,5.86,5.86,0,0,1-1-.57,6.24,6.24,0,0,1-1.63-1.57,8.53,8.53,0,0,1-.6-1c-.17-.35-.33-.73-.48-1.13v0c-.11-.34-.21-.65-.28-1s-.15-.61-.2-.91v0c-.07-.44-.15-.86-.24-1.25a11.14,11.14,0,0,0-.31-1.07,1,1,0,0,0-.23-.42l-.11-.08-.09.06a3.3,3.3,0,0,0-.65.78,14,14,0,0,0-.86,1.56c-.29.6-.57,1.25-.85,2s-.53,1.47-.77,2.29h0q-.34,1.13-.66,2.49c-.21.86-.38,1.69-.52,2.48s-.25,1.53-.32,2.21h0c-.06.78-.09,1.52-.1,2.21s0,1.45,0,2.18.1,1.39.18,2a15.7,15.7,0,0,0,.32,1.76,10.67,10.67,0,0,0,.43,1.46,7,7,0,0,0,.53,1.1,2.26,2.26,0,0,0,.47.55.72.72,0,0,0,.32.13h0c.27,0,.67-.17,1.2-.62a14.94,14.94,0,0,0,2.46-3h0a7.13,7.13,0,0,1,3.22-2.65Zm5.11,2h0s0,0,0,0Z"/><path class="cls-3" d="M93.46,105.19A33.63,33.63,0,0,0,96.05,108c1,.94,1.91,1.84,2.86,2.7s1.88,1.66,2.77,2.37,1.68,1.31,2.37,1.79a6.66,6.66,0,0,0,2.75,1,6.14,6.14,0,0,0,2.17-.15l1.36-.25a3.43,3.43,0,0,0,1.36-.74,1.72,1.72,0,0,0,.76-.94c.06-.29-.21-.7-.8-1.2-.75-.6-1.54-1.3-2.39-2.1s-1.71-1.64-2.57-2.51-1.71-1.72-2.53-2.59-1.57-1.68-2.26-2.46a49.17,49.17,0,0,0,8.61-4.82,16.14,16.14,0,0,0,5.16-5.68,7.35,7.35,0,0,0,.45-4.92,15.87,15.87,0,0,0-2-4.76,28.67,28.67,0,0,0-2.84-3.64,8.4,8.4,0,0,0-4.58-2.35,16.7,16.7,0,0,0-5.54.09,30.63,30.63,0,0,0-6,1.72q-3,1.22-5.79,2.46a3.16,3.16,0,0,0-1.11,1.59,19.82,19.82,0,0,0-1,3.22c-.29,1.29-.58,2.75-.85,4.38s-.51,3.3-.73,5-.44,3.46-.63,5.19-.36,3.34-.51,4.85-.28,2.85-.38,4-.19,2.1-.25,2.73A4,4,0,0,0,84.2,114a2.7,2.7,0,0,0,1.17,1.18,6.3,6.3,0,0,0,1.78.63c.63.11,1.35.28,2.15.49a2.16,2.16,0,0,0,1.41,0,1.6,1.6,0,0,0,.6-.94c.33-1.61.66-3.25,1-4.92s.72-3.41,1.14-5.23Zm4.78-18.14a13.6,13.6,0,0,1,3.31-1.17,15.28,15.28,0,0,1,2.86-.31c1.75,0,2.81.42,3.17,1.25a2.88,2.88,0,0,1-.45,2.15,11.56,11.56,0,0,1-2.32,2.93,25.42,25.42,0,0,1-4,3,26.15,26.15,0,0,1-5.48,2.52c.57-2,1.08-3.81,1.52-5.54S97.76,88.57,98.24,87.05Z"/><path class="cls-2" d="M94.38,104.44c.36.45.76.91,1.18,1.38h0c.4.44.84.89,1.32,1.36s.93.91,1.41,1.36l1.41,1.32,1.39,1.21c.49.43.94.79,1.33,1.11s.78.61,1.24,1,.72.54,1.07.77a6.78,6.78,0,0,0,1.21.6,4,4,0,0,0,1,.25h0a4.93,4.93,0,0,0,.94,0,3.82,3.82,0,0,0,.8-.13l.08,0h0l.73-.12.6-.11h0a.89.89,0,0,0,.29-.12,3.23,3.23,0,0,0,.57-.39l0,0,.11-.08-.22-.2h0c-.4-.32-.79-.65-1.17-1s-.85-.76-1.27-1.16l-1.29-1.24c-.55-.53-1-1-1.31-1.29l-1.28-1.3-1.26-1.31L102.11,105c-.33-.36-.7-.77-1.09-1.22l-1.08-1.21,1.48-.66q2.43-1.08,4.56-2.28a40.88,40.88,0,0,0,3.83-2.43,18.44,18.44,0,0,0,2.91-2.55,12.25,12.25,0,0,0,1.89-2.7v0a4.31,4.31,0,0,0,.49-1.74,8,8,0,0,0-.15-2.33,17.33,17.33,0,0,0-.79-2.43,12.6,12.6,0,0,0-1-2c-.42-.64-.85-1.24-1.28-1.8s-.92-1.12-1.42-1.67a7.63,7.63,0,0,0-1.81-1.31,7.1,7.1,0,0,0-2.1-.69,13.65,13.65,0,0,0-2.49-.17,17,17,0,0,0-2.66.26,28.86,28.86,0,0,0-5.71,1.66c-1,.39-2,.79-2.93,1.2s-1.83.79-2.75,1.21a.64.64,0,0,0-.14.18,3.74,3.74,0,0,0-.43.81c-.16.39-.32.83-.47,1.32s-.3,1.06-.45,1.7-.29,1.3-.43,2-.28,1.5-.4,2.28-.25,1.56-.39,2.45-.25,1.8-.35,2.53-.18,1.44-.32,2.59l-.3,2.58-.27,2.5h0q-.14,1.29-.24,2.34c-.09.85-.16,1.55-.21,2.11,0,.25-.08.86-.17,1.92-.07.86-.16,1.77-.25,2.71h0a4.47,4.47,0,0,0,0,.82,1.7,1.7,0,0,0,.12.46.91.91,0,0,0,.21.3,2.39,2.39,0,0,0,.44.33,5.15,5.15,0,0,0,.69.3,6.21,6.21,0,0,0,.74.2c.34.06.69.14,1.06.22s.7.17,1.12.28h0c.3.07.46.12.52.14a1.38,1.38,0,0,0,.09-.23l.49-2.35.5-2.48c.21-1,.39-1.86.55-2.58s.37-1.68.6-2.68l.54-2.37,1.54,1.88Zm.84,4.44c-.38-.37-.75-.75-1.12-1.15l-.08.38q-.33,1.53-.54,2.55L93,113.14l-.5,2.44v.11a3.59,3.59,0,0,1-.4.88,2.15,2.15,0,0,1-.74.73,3.17,3.17,0,0,1-2.26.14h0c-.36-.1-.73-.19-1.1-.27l-1-.21a7.58,7.58,0,0,1-1.09-.29,6.4,6.4,0,0,1-1-.45l0,0a5,5,0,0,1-1-.74,3.43,3.43,0,0,1-.68-1,4,4,0,0,1-.31-1.16,6.6,6.6,0,0,1,0-1.27v0c0-.3.11-1.21.24-2.72,0-.15.08-.81.18-1.92.07-.79.14-1.5.21-2.14.07-.8.16-1.58.24-2.34h0c.09-.87.18-1.7.27-2.51l.3-2.6c.07-.58.18-1.46.33-2.6s.25-1.86.35-2.58.25-1.62.39-2.49.28-1.63.42-2.35.29-1.44.44-2.11.32-1.27.5-1.85a15.5,15.5,0,0,1,.55-1.56A7.24,7.24,0,0,1,87.89,81a2.88,2.88,0,0,1,1-.91L89,80c.9-.41,1.86-.83,2.85-1.25s2-.82,3-1.23,2.07-.77,3.11-1.07a31.45,31.45,0,0,1,3.07-.72,18.61,18.61,0,0,1,3-.29,16.24,16.24,0,0,1,2.9.2,9.4,9.4,0,0,1,2.8.92,9.86,9.86,0,0,1,2.42,1.75l0,0c.54.57,1,1.18,1.56,1.83s1,1.31,1.4,2a13.81,13.81,0,0,1,1.24,2.36,19,19,0,0,1,.91,2.76v.07a10.88,10.88,0,0,1,.2,3.06,6.84,6.84,0,0,1-.75,2.61h0a14.48,14.48,0,0,1-2.25,3.23,21.85,21.85,0,0,1-3.28,2.88,42.83,42.83,0,0,1-4.06,2.58q-1.55.86-3.27,1.68c.38.43.77.84,1.15,1.24l1.24,1.29c.31.32.73.75,1.27,1.28s1,1,1.27,1.27l1.27,1.22c.43.4.83.77,1.2,1.09s.78.67,1.12.94l0,0a4.24,4.24,0,0,1,.86.93h0a1.9,1.9,0,0,1,.33,1.42,2.32,2.32,0,0,1-.48,1,4.28,4.28,0,0,1-.72.67h0a6.29,6.29,0,0,1-.91.61,3.4,3.4,0,0,1-1,.36h0l-.64.12-.73.13a5.71,5.71,0,0,1-1.17.19,7.45,7.45,0,0,1-1.33,0h0a6,6,0,0,1-1.59-.39,10.15,10.15,0,0,1-1.66-.82l-.07,0-1.14-.83-1.29-1c-.5-.4-1-.79-1.4-1.15s-.91-.79-1.43-1.27-1-.93-1.45-1.34-1-.91-1.44-1.39ZM97.72,86a15.85,15.85,0,0,1,1.83-.77,12,12,0,0,1,1.76-.49c.54-.11,1.08-.19,1.61-.25a13.33,13.33,0,0,1,1.49-.09q3.42,0,4.26,2l0,.07a3,3,0,0,1,.07,1.55,6.12,6.12,0,0,1-.58,1.53,10.26,10.26,0,0,1-1.07,1.62,14.46,14.46,0,0,1-1.49,1.62,21.54,21.54,0,0,1-1.91,1.62c-.69.53-1.45,1-2.28,1.57a24.88,24.88,0,0,1-2.7,1.45,30.36,30.36,0,0,1-3,1.2l-2.14.71.62-2.17c.34-1.16.6-2.11.8-2.84.25-.89.48-1.78.71-2.67s.48-1.8.69-2.54.47-1.6.71-2.39l.16-.49.46-.22Zm2.61,1.47a11.19,11.19,0,0,1,1.45-.4c.5-.1,1-.17,1.39-.22a10.43,10.43,0,0,1,1.24-.07c1.18,0,1.87.16,2.06.48a1.7,1.7,0,0,1,0,.26,3.57,3.57,0,0,1-.36.92,6.92,6.92,0,0,1-.82,1.23A14.2,14.2,0,0,1,104,91a20.71,20.71,0,0,1-1.7,1.44c-.64.49-1.35,1-2.11,1.45a23,23,0,0,1-2.43,1.31l-.63.28.16-.61c.26-1,.51-1.86.72-2.69s.43-1.61.68-2.49q.27-1,.54-1.83Q99.79,87.65,100.33,87.45Z"/><path class="cls-3" d="M128,103.37c.09,1.22.18,2.35.27,3.37s.19,2,.31,2.84a3.55,3.55,0,0,0,.6,1.75,3.26,3.26,0,0,0,1.5.8,7.52,7.52,0,0,0,2,.42c.66,0,1.37.07,2.15.07a2.35,2.35,0,0,0,1.49-.31,1.47,1.47,0,0,0,.34-1.12q0-3.84,0-8.33t.11-9q.09-4.47.27-8.58t.44-7.28a4,4,0,0,0-.24-2.1,2.86,2.86,0,0,0-1.77-1.3c-.68-.18-1.36-.37-2-.58s-1.4-.4-2.19-.58-1.66-.34-2.62-.47-2-.23-3.26-.29a4.72,4.72,0,0,0-3.17.58,5.84,5.84,0,0,0-1.75,2c-1.25,2.23-2.56,4.79-4,7.66s-2.74,5.79-4.07,8.74-2.56,5.81-3.71,8.58-2.08,5.19-2.79,7.24a5.25,5.25,0,0,0-.25,1.5,1.92,1.92,0,0,0,.25.92,2,2,0,0,0,.62.6c.27.16.59.36.94.6s1,.46,1.41.65.89.37,1.28.51a2.87,2.87,0,0,0,1.54.23,1.48,1.48,0,0,0,.87-.9l1.29-2.92c.45-1,1-2.08,1.57-3.24a50.44,50.44,0,0,1,5.88-1.14c2.22-.32,4.44-.62,6.68-.92Zm-8.54-6.26q2.1-4.24,4.18-8.2c1.39-2.64,2.67-5,3.87-7.22-.06,2.39-.08,4.79,0,7.22s.08,4.86.14,7.31c-1.37.09-2.74.21-4.09.36S120.78,96.9,119.44,97.11Z"/><path class="cls-2" d="M129.16,103.29c0,.53.09,1.1.14,1.74,0,.49.08,1,.13,1.61s.1,1,.14,1.45.11.94.16,1.33h0a4.9,4.9,0,0,0,.18.85,1.11,1.11,0,0,0,.14.29,1.25,1.25,0,0,0,.25.18,4.24,4.24,0,0,0,.68.26l.06,0a7,7,0,0,0,.87.24,6.15,6.15,0,0,0,.83.12l1,0h1.08a3.62,3.62,0,0,0,.63,0,1.15,1.15,0,0,0,0-.2h0c0-1.28,0-2.61,0-4s0-2.84,0-4.34,0-3,0-4.5,0-3,.07-4.48.07-3,.12-4.39.09-2.87.15-4.22.13-2.71.2-3.89.16-2.43.25-3.44v0a4.08,4.08,0,0,0,0-.92,2,2,0,0,0-.15-.56.72.72,0,0,0-.26-.27,2.83,2.83,0,0,0-.8-.4l-1-.26-1-.32h0l-1-.28-1.1-.27-1.2-.25-1.32-.21c-.48-.06-1-.12-1.47-.16s-1.07-.09-1.68-.12h-.05a5.78,5.78,0,0,0-1.53,0,2.21,2.21,0,0,0-.86.33,4.15,4.15,0,0,0-.77.69,4.77,4.77,0,0,0-.62.88h0c-.63,1.12-1.26,2.31-1.91,3.55s-1.32,2.62-2,4-1.32,2.77-2.05,4.33-1.42,3.06-2,4.37q-1,2.3-1.92,4.35c-.59,1.37-1.19,2.77-1.78,4.2s-1.09,2.67-1.55,3.87-.85,2.24-1.2,3.25h0a5.62,5.62,0,0,0-.16.71,1.69,1.69,0,0,0,0,.41,1,1,0,0,0,0,.25.39.39,0,0,0,0,.09l.08.1a.58.58,0,0,0,.15.11l.46.29.47.31.6.28.66.29h0l.65.27.56.22h0a2.82,2.82,0,0,0,.67.18l.13,0a1.06,1.06,0,0,0,.13-.22h0c.32-.74.55-1.25.64-1.45l.66-1.49c.24-.53.49-1.06.74-1.59s.53-1.07.85-1.7l.25-.48.51-.13c.88-.23,1.82-.45,2.82-.64s2-.37,3.19-.53l3.34-.46,3.36-.46,1.24-.16.09,1.26Zm-2.23,1.92,0-.5-2.1.29-3.33.46c-1.08.15-2.1.32-3.07.51-.77.15-1.48.31-2.16.47l-.58,1.18c-.27.55-.5,1.06-.71,1.53l-.66,1.48c-.34.77-.54,1.22-.63,1.44l0,0a3.16,3.16,0,0,1-.62.92,2.17,2.17,0,0,1-1,.62,2.85,2.85,0,0,1-1.1,0,5.38,5.38,0,0,1-1.13-.29h0l-.63-.24-.68-.28h0c-.24-.11-.49-.21-.73-.33l-.75-.36-.08,0,0,0-.49-.32-.41-.26a3,3,0,0,1-.57-.43,3,3,0,0,1-.45-.56,2.51,2.51,0,0,1-.31-.73,3,3,0,0,1-.11-.76,4.85,4.85,0,0,1,.06-.9c0-.3.13-.63.22-1l0-.07c.36-1,.77-2.16,1.25-3.39s1-2.52,1.56-3.91,1.16-2.75,1.8-4.24,1.29-3,1.93-4.37c.73-1.64,1.41-3.11,2-4.42s1.32-2.81,2.07-4.36,1.38-2.81,2-4.1,1.33-2.51,2-3.63h0a7.16,7.16,0,0,1,.92-1.31,7.31,7.31,0,0,1,1.17-1.05,4.52,4.52,0,0,1,1.8-.72,8,8,0,0,1,2.16-.08h0q.89,0,1.74.12l1.59.18c.46.07.93.14,1.41.23s.9.17,1.3.26.82.19,1.18.29l1.1.31h0l1,.3,1,.27.1,0a5.7,5.7,0,0,1,1.44.73,3.09,3.09,0,0,1,1,1.18,4.09,4.09,0,0,1,.36,1.3,6.54,6.54,0,0,1,0,1.4h0c-.09,1.11-.18,2.24-.25,3.39s-.14,2.53-.2,3.85-.11,2.8-.15,4.19-.09,2.9-.12,4.37,0,3-.07,4.46,0,3,0,4.48,0,2.94,0,4.33,0,2.71,0,4h0a4,4,0,0,1-.13,1,2.06,2.06,0,0,1-.59,1h0a2.31,2.31,0,0,1-1.11.53,5.87,5.87,0,0,1-1.19.1c-.31,0-.7,0-1.16,0l-1.07-.05a9.34,9.34,0,0,1-1.15-.16,10.61,10.61,0,0,1-1.16-.32,6.32,6.32,0,0,1-1.09-.44,3,3,0,0,1-.92-.72,3.11,3.11,0,0,1-.59-1.07,6.89,6.89,0,0,1-.3-1.28h0c-.06-.47-.12-.93-.17-1.39s-.11-1-.15-1.5-.08-1-.13-1.64Zm-8.55-8.62c.75-1.53,1.45-2.92,2.1-4.19s1.35-2.63,2.09-4l2-3.79,1.87-3.45,2.35-4.29-.13,4.89c0,1.2,0,2.39,0,3.57s0,2.4,0,3.61,0,2.42.05,3.64,0,2.41.08,3.65l0,1.14-1.14.07-2,.16c-.73.06-1.4.13-2,.2h0l-2,.24-2,.28-2.26.35,1-2Zm4.22-3.11q1.11-2.17,2.07-4l1.57-3c0,.81,0,1.62,0,2.43,0,1.23,0,2.45,0,3.66,0,.85,0,1.7,0,2.53l-.94.08c-.64,0-1.33.12-2.06.2h0l-1.85.23C121.86,94.93,122.22,94.21,122.6,93.48Z"/><path class="cls-3" d="M191.82,83.72a2.77,2.77,0,0,0,.11-1.79,4,4,0,0,0-1.41-1.48A23,23,0,0,0,187.89,79a16.75,16.75,0,0,0-2.68-1,4.25,4.25,0,0,0-2.13-.21c-.49.14-.87.68-1.14,1.64-.68,2.53-1.38,5.35-2.08,8.47s-1.42,6.25-2.16,9.4l-3.51.27q-1.81.14-3.69.36c.6-2.62,1.15-5.08,1.68-7.37s1-4.3,1.49-6a8.32,8.32,0,0,0,.18-1,1.65,1.65,0,0,0-.11-.81,2.09,2.09,0,0,0-.54-.71,6,6,0,0,0-1-.76,16.94,16.94,0,0,0-2.83-1.5,24.38,24.38,0,0,0-3.07-1.09,2.84,2.84,0,0,0-2-.23c-.45.18-.79.75-1,1.7-.36,2.5-.71,5.24-1,8.2s-.69,5.94-1.05,8.92-.73,5.84-1.12,8.58-.8,5.14-1.25,7.2a2.22,2.22,0,0,0,.18,1.81,3.72,3.72,0,0,0,1.47,1.14,8.77,8.77,0,0,0,2,.8l2.3.63a2.4,2.4,0,0,0,1.54,0,1.47,1.47,0,0,0,.56-1c.24-1.43.51-3,.8-4.85s.69-3.73,1.17-5.79c1.25-.21,2.48-.39,3.68-.56l3.69-.51c-.33,1.73-.61,3.29-.85,4.69s-.41,2.64-.53,3.71a2.11,2.11,0,0,0,.62,2.39,9,9,0,0,0,2.86,1.32l1.68.43a7.17,7.17,0,0,0,1.36.22,1.76,1.76,0,0,0,.92-.18.89.89,0,0,0,.33-.83q.9-3.7,2-8T187,99.76q1.22-4.38,2.48-8.53C190.33,88.45,191.11,86,191.82,83.72Z"/><path class="cls-2" d="M190.69,83.37a3.28,3.28,0,0,0,.15-.75h0a.88.88,0,0,0,0-.25,1.61,1.61,0,0,0-.23-.29,5.38,5.38,0,0,0-.72-.62h0a20.85,20.85,0,0,0-2.5-1.37,15.64,15.64,0,0,0-2.49-.94h0a5.25,5.25,0,0,0-1-.2h0a1.71,1.71,0,0,0-.48,0s0,0,0,0a2.77,2.77,0,0,0-.31.75h0c-.35,1.29-.69,2.63-1,4h0c-.34,1.4-.69,2.87-1,4.43s-.73,3.24-1.07,4.69c-.39,1.7-.75,3.27-1.1,4.72l-.2.85-.86.07-1.73.13-1.79.14-1.8.15-1.83.2-1.67.2.37-1.64L171,90.29c.27-1.21.53-2.29.77-3.24s.49-1.92.73-2.78a3.58,3.58,0,0,0,.09-.45h0q0-.24.06-.39a.33.33,0,0,0,0-.14.14.14,0,0,0,0-.07,1.07,1.07,0,0,0-.26-.33,2.88,2.88,0,0,0-.34-.27h0c-.15-.1-.32-.22-.52-.33l0,0a11.9,11.9,0,0,0-1.2-.72c-.45-.23-.93-.46-1.44-.68s-1-.41-1.52-.59-1-.33-1.4-.45h0l0,0a3.36,3.36,0,0,0-.86-.23h0a1,1,0,0,0-.25,0h0s0,0,0,.07a2.87,2.87,0,0,0-.28.77c-.19,1.33-.37,2.61-.53,3.84s-.32,2.62-.51,4.26c-.17,1.48-.34,3-.52,4.45-.19,1.65-.37,3.14-.53,4.47s-.34,2.76-.55,4.39-.39,2.92-.57,4.21-.4,2.71-.61,3.9-.43,2.35-.66,3.39h0a2.05,2.05,0,0,0-.07.65.38.38,0,0,0,.07.22,1.38,1.38,0,0,0,.34.35,4,4,0,0,0,.66.4l.09,0a6.18,6.18,0,0,0,.77.37,9.17,9.17,0,0,0,1,.31c.81.22,1.58.42,2.3.63a4.64,4.64,0,0,0,.6.1,1.55,1.55,0,0,0,0-.15l.38-2.29.41-2.49c.15-.89.32-1.84.53-2.85s.42-2,.65-3l.18-.78.78-.13,1.88-.3c.51-.08,1.12-.17,1.85-.26l1.82-.26,1.85-.26,1.65-.23-.31,1.63c-.19,1-.34,1.8-.46,2.45s-.24,1.38-.39,2.22c-.11.68-.22,1.33-.3,1.94s-.16,1.18-.22,1.7v.09l0,.07a1.7,1.7,0,0,0-.05.82.6.6,0,0,0,.24.34,5,5,0,0,0,1,.58,10.08,10.08,0,0,0,1.42.53h0l.85.21h0l.82.21h0c.21,0,.42.1.63.13a3.13,3.13,0,0,0,.49,0h0l0-.09c.34-1.44.67-2.73,1-3.88s.68-2.67,1.08-4.19.82-3.09,1.16-4.36.76-2.77,1.21-4.38c.37-1.32.79-2.76,1.24-4.33s.88-3,1.25-4.22.78-2.58,1.21-4c.38-1.22.75-2.41,1.12-3.55Zm2.52-.61a5.87,5.87,0,0,1-.25,1.31h0q-.52,1.64-1.11,3.54c-.35,1.11-.75,2.43-1.2,3.94s-.89,3-1.25,4.21-.78,2.71-1.23,4.31c-.37,1.31-.77,2.76-1.2,4.36s-.84,3.09-1.17,4.34-.71,2.75-1.07,4.17-.67,2.69-.92,3.7a2.46,2.46,0,0,1-.17.84h0a1.78,1.78,0,0,1-.74.88,2.34,2.34,0,0,1-.79.29,2.77,2.77,0,0,1-.78,0h0a4.29,4.29,0,0,1-.77-.08,8.42,8.42,0,0,1-.83-.18h0l-.83-.21h0L178,118h0a13.21,13.21,0,0,1-1.8-.66,7.69,7.69,0,0,1-1.45-.85,3,3,0,0,1-1.1-1.64,4,4,0,0,1,0-1.91c.06-.53.14-1.09.22-1.69s.2-1.29.32-2,.23-1.31.4-2.25l.15-.84-.23,0-1.83.25-1.81.26-1,.17c-.18.76-.33,1.49-.47,2.17-.18.92-.35,1.84-.5,2.76l-.42,2.49-.39,2.36v.08a3.84,3.84,0,0,1-.36.94,2.09,2.09,0,0,1-.76.8,2.33,2.33,0,0,1-1.21.26,6.74,6.74,0,0,1-1.2-.17l0,0-2.29-.62a10.46,10.46,0,0,1-1.23-.4,7.69,7.69,0,0,1-1.08-.52,6.12,6.12,0,0,1-1-.62,3.91,3.91,0,0,1-.85-.88,2.83,2.83,0,0,1-.47-1.33,4.29,4.29,0,0,1,.11-1.4h0c.22-1,.43-2.12.64-3.29s.41-2.49.59-3.82.4-2.84.57-4.19.35-2.69.55-4.37.37-3.14.53-4.46c.17-1.49.35-3,.52-4.45.15-1.33.33-2.75.52-4.29s.37-2.8.53-4v-.06l0-.06a5.05,5.05,0,0,1,.57-1.46,2.45,2.45,0,0,1,1.17-1h0a2.86,2.86,0,0,1,1.39-.16h0a6.57,6.57,0,0,1,1.37.35c.51.15,1,.31,1.51.49s1.06.4,1.65.65,1.11.5,1.61.76a16.18,16.18,0,0,1,1.42.84h0q.34.21.63.42h0a5.44,5.44,0,0,1,.57.46,3.43,3.43,0,0,1,.81,1.11,2.79,2.79,0,0,1,.2,1.39c0,.21,0,.4-.07.57h0c0,.18-.08.39-.13.61v.06c-.23.82-.48,1.74-.73,2.74s-.51,2.11-.76,3.19L172,96.57l.22,0c.69-.07,1.3-.12,1.85-.16l1.78-.14.86-.06q.48-2.09.9-3.87c.39-1.69.74-3.25,1.07-4.68s.7-3,1-4.48h0c.36-1.45.71-2.8,1-4v0a5,5,0,0,1,.66-1.48,2.34,2.34,0,0,1,1.31-1,4,4,0,0,1,1.32-.09h0a8.06,8.06,0,0,1,1.43.29h0c.46.13.93.28,1.42.46s1,.39,1.45.62a23.84,23.84,0,0,1,2.78,1.52l.05,0a8.69,8.69,0,0,1,1.1.93A3.36,3.36,0,0,1,193,81.5a3,3,0,0,1,.17,1.26Z"/><path class="cls-3" d="M131.61,116.93a1.67,1.67,0,0,0-.81,1.56c.12.59.94,1.43,2.46,2.53a25.93,25.93,0,0,0,8.23,4.54,19.19,19.19,0,0,0,7.84.74,17.55,17.55,0,0,0,5-1.18,14.62,14.62,0,0,0,3.47-2,10.28,10.28,0,0,0,2.18-2.41,14,14,0,0,0,1.19-2.35,3.9,3.9,0,0,0,.29-2.74,5.57,5.57,0,0,0-1.5-2.32,14.48,14.48,0,0,0-2.77-2q-1.65-1-3.51-1.92c-1.24-.64-2.47-1.3-3.71-2a25.81,25.81,0,0,1-3.41-2.25A4.3,4.3,0,0,1,145,103a6.58,6.58,0,0,1-.28-2.62,9.32,9.32,0,0,1,.74-2.75A16,16,0,0,1,146.82,95a18.77,18.77,0,0,1,1.73-2.19c1.64-1.76,3.94-3.83,3.51.21-.07.69-.17,1.41-.28,2.17a24.74,24.74,0,0,0-.5,4.26q-.15,4.16,6.79,5.94a2.58,2.58,0,0,0,1.8,0,2.5,2.5,0,0,0,1.08-1.34,26.31,26.31,0,0,0,.87-2.67q.41-1.53.72-3.18c.66-3.57,1.49-8-.7-11.2s-9.47-5.86-13.12-5.74a9.77,9.77,0,0,0-6.07,2.15,23,23,0,0,0-3.28,3,27.64,27.64,0,0,0-2.87,3.69c-3.5,5.36-5.78,12.41-.77,17.79,2.35,2.52,5.69,4.15,8.73,5.69l3,1.56a27.54,27.54,0,0,1,2.42,1.39,4.57,4.57,0,0,1,1.35,1.2.63.63,0,0,1-.14,1c-.86.81-2.35,1-4.45.74a26.64,26.64,0,0,1-7.53-2.64A8.5,8.5,0,0,0,131.61,116.93Z"/><path class="cls-2" d="M132.08,117.72a1.12,1.12,0,0,0-.3.33.6.6,0,0,0-.07.3,2.19,2.19,0,0,0,.45.58,13.73,13.73,0,0,0,1.64,1.35l0,0a32.1,32.1,0,0,0,4.11,2.73,19.35,19.35,0,0,0,3.82,1.65,19.12,19.12,0,0,0,3.73.75,18.83,18.83,0,0,0,3.75,0h0a20.47,20.47,0,0,0,2.62-.43,13.8,13.8,0,0,0,2.14-.69,15.08,15.08,0,0,0,1.8-.89,10.46,10.46,0,0,0,1.44-1,12,12,0,0,0,1.15-1.07,8.31,8.31,0,0,0,.84-1.11c.24-.39.46-.77.65-1.15a10.73,10.73,0,0,0,.46-1l0,0a4.2,4.2,0,0,0,.33-1.16,2.26,2.26,0,0,0-.08-.94,4.1,4.1,0,0,0-.46-1,5.31,5.31,0,0,0-.8-1,11.09,11.09,0,0,0-1.15-1q-.64-.47-1.44-.93c-.49-.28-1.06-.6-1.69-.94l-1.78-1c-.55-.28-1.17-.61-1.87-1l-1.87-1c-.62-.34-1.24-.72-1.84-1.11s-1.14-.79-1.67-1.19h0a6.13,6.13,0,0,1-1.21-1.17,4.88,4.88,0,0,1-.75-1.45,6.51,6.51,0,0,1-.31-1.47h0a7.62,7.62,0,0,1,0-1.51,9.47,9.47,0,0,1,.27-1.52h0a13.08,13.08,0,0,1,.53-1.52c.21-.48.44-.95.69-1.42s.52-.91.81-1.34.58-.83.88-1.22.62-.74.94-1.09a8.78,8.78,0,0,1,2.92-2.32h0c1.49-.47,2.49.19,2.17,3.26,0,.39-.09.75-.13,1.08s-.1.68-.17,1.13-.1.62-.14.87a18.72,18.72,0,0,0-.35,3.22v.06a3.53,3.53,0,0,0,1.32,2.84,11.84,11.84,0,0,0,4.79,2.18h0a3.13,3.13,0,0,0,.8.14.78.78,0,0,0,.34,0,.93.93,0,0,0,.27-.24,2.94,2.94,0,0,0,.37-.65h0c.13-.33.27-.71.41-1.15s.29-.93.41-1.39.26-1,.38-1.52.22-1,.32-1.58V98c.63-3.4,1.41-7.61-.56-10.47-.89-1.3-2.92-2.58-5.18-3.56a18.85,18.85,0,0,0-7.15-1.78,9.74,9.74,0,0,0-3.05.55,8,8,0,0,0-2.46,1.38l0,0a18.51,18.51,0,0,0-1.59,1.32A20.69,20.69,0,0,0,140.05,87c-.51.55-1,1.13-1.47,1.73s-.9,1.21-1.31,1.84h0a19.63,19.63,0,0,0-3.51,9.47,9.58,9.58,0,0,0,2.64,7.19c2.14,2.29,5.21,3.85,8.07,5.3l.4.2,1.54.79,1.5.77q.71.38,1.35.75c.42.23.79.46,1.14.69h0a7,7,0,0,1,.93.7,4.27,4.27,0,0,1,.69.76,1.66,1.66,0,0,1,.29,1.17,1.56,1.56,0,0,1-.63,1,4.18,4.18,0,0,1-2.18,1,9.61,9.61,0,0,1-3,0,20.62,20.62,0,0,1-3.64-.94,38.22,38.22,0,0,1-4.17-1.78l0,0a6.09,6.09,0,0,0-3.12-.69,8.53,8.53,0,0,0-3.49.83Zm-1.93-.51a2.83,2.83,0,0,1,.93-1l.07-.05.06,0a10.46,10.46,0,0,1,4.33-1,8,8,0,0,1,4,.9h0a35.32,35.32,0,0,0,4,1.69,18.28,18.28,0,0,0,3.29.86,7.93,7.93,0,0,0,2.41,0,2.5,2.5,0,0,0,1.18-.47,3.42,3.42,0,0,0-.27-.27,5.69,5.69,0,0,0-.71-.53h0c-.3-.19-.65-.41-1-.63s-.81-.45-1.29-.7l-1.49-.77-1.53-.78-.4-.21c-3-1.52-6.22-3.15-8.58-5.68a11.38,11.38,0,0,1-3.14-8.53,21.52,21.52,0,0,1,3.81-10.39h0c.45-.68.91-1.33,1.4-2s1-1.25,1.56-1.84,1.11-1.16,1.68-1.68,1.12-1,1.7-1.39h0a10.09,10.09,0,0,1,3-1.71,12.06,12.06,0,0,1,3.6-.65,20.84,20.84,0,0,1,7.95,1.93c2.54,1.11,4.86,2.61,6,4.21,2.41,3.49,1.55,8.11.86,11.84v.05c-.09.53-.21,1.08-.34,1.65s-.25,1.08-.4,1.6-.29,1.06-.43,1.48-.3.87-.46,1.29l0,0a4.63,4.63,0,0,1-.62,1.06,2.52,2.52,0,0,1-.9.74,2.59,2.59,0,0,1-1.18.23,5.18,5.18,0,0,1-1.25-.21h0a13.49,13.49,0,0,1-5.54-2.58,5.24,5.24,0,0,1-1.94-4.26,19.34,19.34,0,0,1,.37-3.54c.06-.34.12-.71.14-.84,0-.31.1-.67.15-1.1s.1-.73.13-1c.1-.94.24-1.3.21-1.32h0a7.71,7.71,0,0,0-2.14,1.82c-.28.31-.56.63-.83,1s-.54.71-.8,1.1a13,13,0,0,0-.72,1.19c-.22.4-.42.83-.62,1.28a10,10,0,0,0-.44,1.26h0a8.07,8.07,0,0,0-.22,1.22,5.53,5.53,0,0,0,0,1.15h0a5.42,5.42,0,0,0,.24,1.1,2.82,2.82,0,0,0,.47.89,3.74,3.74,0,0,0,.83.8l0,0c.5.39,1,.77,1.57,1.12s1.11.7,1.72,1l1.85,1,1.84,1c.65.33,1.26.66,1.82,1s1.12.62,1.73,1,1.1.68,1.6,1a13,13,0,0,1,1.34,1.12,7.42,7.42,0,0,1,1.07,1.28,5.62,5.62,0,0,1,.67,1.43,4,4,0,0,1,.16,1.67,5.73,5.73,0,0,1-.48,1.71h0a12,12,0,0,1-.52,1.17c-.21.41-.45.84-.73,1.29a9.34,9.34,0,0,1-1,1.37,12.61,12.61,0,0,1-1.34,1.27,13.15,13.15,0,0,1-1.69,1.16,17.75,17.75,0,0,1-2,1,15.52,15.52,0,0,1-2.44.79,24.92,24.92,0,0,1-2.85.47h0a20.26,20.26,0,0,1-4.12,0,21.43,21.43,0,0,1-4.09-.8,22.22,22.22,0,0,1-4.18-1.81,34,34,0,0,1-4.34-2.89h0a15.41,15.41,0,0,1-1.85-1.54,3.26,3.26,0,0,1-.95-1.54v-.1A2.44,2.44,0,0,1,130.15,117.21Z"/></svg>