<?xml version="1.0" encoding="utf-8"?>
<!-- Generator: Adobe Illustrator 15.0.0, SVG Export Plug-In . SVG Version: 6.00 Build 0)  -->
<!DOCTYPE svg PUBLIC "-//W3C//DTD SVG 1.1//EN" "http://www.w3.org/Graphics/SVG/1.1/DTD/svg11.dtd">
<svg version="1.1" id="Layer_1" xmlns="http://www.w3.org/2000/svg" xmlns:xlink="http://www.w3.org/1999/xlink" x="0px" y="0px"
	 width="143px" height="126px" viewBox="0 0 143 126" enable-background="new 0 0 143 126" xml:space="preserve">
<g>
	<path fill="#FFFFFF" d="M100.985,119.501h-56.59L7.266,6.579h113.519l15.161,18.185L100.985,119.501z M49.096,113.007h47.365
		l32.094-86.968L117.74,13.073H16.237L49.096,113.007z"/>
	<path fill="#FFFFFF" d="M22.393,16.371h15.423l3.674,13.081h0.321v1.307h0.326v1.314h0.334v1.311h0.325v0.981h0.33v1.311h0.326
		v1.311h0.325v1.311h0.334v1.311h0.326v0.985h0.326v1.314h0.33v1.307h0.326v1.315h0.326v0.985h0.33v1.307h0.326v1.311h0.33v1.302
		h0.33v0.985h0.326v1.315h0.33v1.311h0.325v1.311h0.326v1.306h0.334v0.981h0.321v1.315h0.33v1.311h0.325v1.311h0.326v0.98h0.334
		v1.315h0.326v1.311h0.33v1.311h0.33v1.314h0.33v0.985h0.33v1.298h0.326v1.315h0.326v1.306h0.33v0.985h0.326v1.314h0.326v1.307h0.33
		v0.981l3.408,10.502L61.18,75.32h0.334v-1.307h0.33v-0.985h0.321v-1.315h0.33v-1.306h0.326v-1.315h0.33v-1.298h0.325v-1.315h0.326
		v-0.985h0.326v-1.311h0.334v-1.311h0.325v-1.315h0.326v-1.307h0.33v-0.985h0.325v-1.311h0.334v-1.315h0.326v-1.307h0.326V54.02
		h0.326v-1.303h0.325v-0.984h0.33v-1.315h0.33v-1.306h0.326v-1.315h0.33V46.49h0.326v-1.306h0.33v-0.985h0.33v-1.311h0.326v-1.311
		h0.326v-1.315h0.334v-1.311h0.321v-1.307h0.326V36.66h0.33v-1.315h0.326v-1.307h0.334v-1.311h0.326v-1.311h0.325v-0.98h0.33v-1.315
		h0.325v-0.325h14.354v0.985h-0.326v1.311h-0.33v0.98h-0.33v0.985h-0.325v0.98h-0.33v0.981h-0.321v1.311h-0.33v0.989h-0.33v0.977
		h-0.325v0.985h-0.33v0.98h-0.325v0.989h-0.33v1.311h-0.33v0.985h-0.326v0.981h-0.33v0.985h-0.326v0.977h-0.33v1.307h-0.326v0.989
		h-0.326v0.981h-0.326v0.981h-0.33v0.985h-0.33v0.984H80.45v1.303h-0.33v0.989h-0.326v0.985h-0.334v0.977h-0.326v0.985H78.81v1.311
		h-0.321v0.985h-0.325v0.981h-0.33v0.989h-0.33v0.98h-0.326v0.981h-0.33v1.311H76.51v0.985h-0.321v0.977h-0.33v0.985h-0.326v0.985
		h-0.326v1.307h-0.334v0.98h-0.321v0.985h-0.326v0.985h-0.33v0.985h-0.326v0.981h-0.334v1.306h-0.326v0.985h-0.325v0.985h-0.33
		v0.981h-0.33v0.985h-0.326v0.985h-0.33v1.302H70.95v0.981h-0.33v0.985h-0.33v0.989h-0.326v0.981h-0.33v1.311H69.31v0.985h-0.325
		v0.977H68.65v0.985h-0.325v0.985h-0.33v0.985h-0.325v1.307h-0.321v0.985h-0.334v0.329h-19v-0.329h-0.325V94.65h-0.334v-1.307
		h-0.326v-0.985h-0.326v-0.985h-0.33v-0.985h-0.326v-0.977h-0.334v-0.985h-0.326v-0.985h-0.321v-0.972h-0.33v-1.323h-0.326v-0.985
		h-0.33V83.18h-0.33v-0.977h-0.325v-0.985h-0.33v-0.981h-0.325v-0.985h-0.33v-0.981h-0.33v-1.315h-0.326v-0.981H41.46v-0.98h-0.33
		v-0.981h-0.326v-0.985H40.48v-0.985h-0.33v-0.977h-0.326v-0.989H39.49v-1.311h-0.325v-0.972h-0.326v-0.985h-0.326v-0.985h-0.326
		v-0.98h-0.334v-0.981h-0.321v-0.989h-0.325v-0.981h-0.33v-1.314h-0.33v-0.981h-0.326v-0.985h-0.33v-0.985h-0.326v-0.985h-0.326
		V55.66h-0.334v-0.981h-0.325v-1.311h-0.326v-0.98h-0.326v-0.985h-0.326v-0.985h-0.334v-0.985h-0.325v-0.977H32.62v-0.985h-0.33
		V46.49h-0.326v-1.306h-0.334v-0.985h-0.33v-0.985h-0.325v-0.981h-0.33v-0.981h-0.33v-0.989h-0.321v-0.98h-0.33v-0.985h-0.326
		v-1.311h-0.33v-0.981h-0.33V35.02h-0.326v-0.981h-0.33v-0.98h-0.326v-0.985h-0.33v-0.98h-0.33v-0.985h-0.325L22.393,16.371z"/>
	<path fill="#FFFFFF" d="M74.979,57.986h23.558l10.887-29.189h13.043L93.692,108.97H81.245l13.148-40.068H75.389"/>
	<polygon fill="#FFFFFF" points="23.116,16.371 26.714,25.401 122.467,25.401 113.808,16.371 	"/>
	<polygon fill="#FFFFFF" points="92.356,108.97 94.774,99.939 48.36,99.939 51.798,108.97 	"/>
</g>
</svg>
