<?xml version="1.0" encoding="utf-8"?>
<!-- Generator: Adobe Illustrator 15.0.0, SVG Export Plug-In . SVG Version: 6.00 Build 0)  -->
<!DOCTYPE svg PUBLIC "-//W3C//DTD SVG 1.1//EN" "http://www.w3.org/Graphics/SVG/1.1/DTD/svg11.dtd">
<svg version="1.1" id="Layer_1" xmlns="http://www.w3.org/2000/svg" xmlns:xlink="http://www.w3.org/1999/xlink" x="0px" y="0px"
	 width="388.601px" height="131.605px" viewBox="0 0 388.601 131.605" enable-background="new 0 0 388.601 131.605"
	 xml:space="preserve">
<g>
	<path fill="#FFFFFF" d="M16.848,22.084h18.896v0.838h0.411v1.67h0.417v1.682h0.427v1.677h0.416v1.254h0.421v1.676h0.417v1.676
		h0.417v1.677h0.427v1.676h0.415v1.258h0.417v1.683h0.422v1.671h0.416v1.681h0.416v1.26h0.422v1.671h0.417v1.676h0.421v1.665h0.422
		v1.26h0.416v1.682h0.422v1.676h0.417v1.676h0.415v1.67h0.428v1.256h0.412v1.681h0.421v1.676h0.415v1.677h0.417v1.254h0.427v1.682
		h0.417v1.676h0.421v1.676h0.422v1.682h0.421v1.26h0.422v1.66h0.417v1.682h0.416v1.671h0.421v1.259h0.417v1.682h0.417v1.672h0.421
		v1.253l4.357,13.43l4.899-14.683h0.427v-1.672h0.42v-1.26h0.412v-1.681h0.422v-1.671h0.415v-1.682h0.422v-1.66h0.417v-1.682h0.416
		v-1.26h0.416v-1.676h0.427v-1.676h0.417v-1.682h0.416v-1.67h0.422v-1.261h0.416v-1.676h0.427v-1.681h0.417v-1.671h0.416v-1.683
		h0.416v-1.664h0.417v-1.26h0.421v-1.682h0.421v-1.671h0.416v-1.681h0.422V44.71h0.417v-1.671h0.42V41.78h0.422v-1.676h0.416v-1.677
		h0.417v-1.681h0.427v-1.676h0.41V33.4h0.417v-1.26h0.422v-1.681h0.416v-1.67h0.427v-1.677h0.416v-1.676h0.417v-1.253h0.422V22.5
		h0.416v-0.416h18.355v1.259h-0.417v1.676h-0.421v1.254H93.94v1.26h-0.416v1.254h-0.422v1.253h-0.411v1.676H92.27v1.267h-0.421
		v1.249h-0.416v1.258h-0.422v1.255h-0.417v1.265h-0.422v1.676H89.75v1.26h-0.416v1.254h-0.422v1.26h-0.417v1.249h-0.421v1.671
		h-0.416v1.265h-0.417V48.9h-0.416v1.255h-0.422v1.26h-0.421v1.26h-0.417v1.664h-0.422v1.267h-0.416v1.259h-0.427v1.248h-0.416
		v1.261h-0.417v1.676h-0.409v1.261h-0.417v1.253h-0.422v1.267h-0.422v1.254h-0.416v1.254h-0.42v1.676h-0.434v1.26h-0.411v1.25
		h-0.422v1.26h-0.416v1.26h-0.416v1.67h-0.428v1.255h-0.412v1.259h-0.415v1.26h-0.422v1.26h-0.417V82h-0.427v1.669h-0.416v1.261
		H75.51v1.26h-0.422v1.254h-0.422v1.26H74.25v1.26h-0.422v1.665h-0.411v1.254h-0.422v1.261h-0.422v1.264h-0.415v1.256h-0.422v1.676
		h-0.417v1.26h-0.416v1.248h-0.427v1.26h-0.416v1.26h-0.422v1.26h-0.417v1.672h-0.41v1.258h-0.427v0.423H44.087v-0.423H43.67v-1.258
		h-0.427v-1.672h-0.417v-1.26H42.41v-1.26h-0.42v-1.26h-0.417v-1.248h-0.427v-1.26h-0.416v-1.26h-0.411v-1.244h-0.422v-1.691h-0.417
		v-1.261h-0.42v-1.254h-0.421v-1.249h-0.417v-1.26h-0.422v-1.254h-0.416v-1.26H36.96v-1.254h-0.42v-1.683h-0.417v-1.253h-0.416
		v-1.256h-0.422v-1.254h-0.416v-1.26h-0.417v-1.26h-0.422v-1.25h-0.415v-1.264h-0.427v-1.676h-0.417v-1.244h-0.417v-1.26h-0.416
		v-1.26h-0.416V68.18h-0.428v-1.254h-0.41v-1.266h-0.417v-1.254h-0.421v-1.682h-0.422v-1.254h-0.417V60.21h-0.421v-1.259H28.17
		v-1.26h-0.417v-1.256h-0.427v-1.253H26.91v-1.676h-0.416v-1.255h-0.417v-1.26h-0.417v-1.26h-0.427v-1.26h-0.416v-1.249h-0.417
		v-1.259h-0.422V44.71h-0.416v-1.671h-0.427V41.78h-0.42v-1.26h-0.417v-1.255h-0.422v-1.254h-0.421v-1.265h-0.41v-1.255h-0.422
		v-1.258h-0.417v-1.677h-0.42v-1.254h-0.422v-1.26h-0.416v-1.253h-0.422v-1.254h-0.417v-1.26h-0.42v-1.254h-0.42V23.76h-0.417
		V22.084z"/>
	<path fill="#FFFFFF" d="M91.772,38.244h14.534v53.46H91.772V38.244z"/>
	<path fill="#FFFFFF" d="M108.598,38.244h15.312v0.259h0.26v0.52h0.26v0.518h0.259v0.52h0.259v0.778h0.26v0.52h0.26v0.52h0.258
		v0.518h0.26v0.52h0.26v0.778h0.26v0.52h0.259v0.518h0.26v0.52h0.26v0.778h0.259v0.52h0.26v0.52h0.259v0.518h0.259v0.52h0.26v0.778
		h0.259v0.52h0.26v0.52h0.26v0.518h0.26v0.778h0.26v0.52h0.26v0.52h0.258v0.52h0.26v0.518h0.26v0.778h0.258v0.52h0.26v0.52h0.26
		v0.519h0.26v0.52h0.26v0.777h0.26v0.52h0.259v0.52h0.259v0.519h0.26v0.778h0.26v0.52h0.258v0.52h0.26v0.52h0.26v0.518h0.26v0.778
		h0.259v0.521h0.26v0.519h0.26v0.519h0.26v0.779h0.259v0.518h0.259V38.244h12.457v53.46h-15.83v-0.26h-0.259v-0.778h-0.26v-0.52
		h-0.26v-0.52h-0.26V89.11h-0.26v-0.779h-0.26v-0.519h-0.258v-0.52h-0.26v-0.52h-0.26v-0.519h-0.258v-0.779h-0.26v-0.518h-0.26
		v-0.52h-0.26v-0.52h-0.26V83.4h-0.26v-0.778h-0.259v-0.52h-0.26v-0.52h-0.259v-0.52h-0.259v-0.777h-0.26v-0.519h-0.259v-0.52h-0.26
		v-0.519h-0.26v-0.52h-0.259V77.43h-0.26v-0.518h-0.26v-0.52h-0.26v-0.52h-0.258v-0.778h-0.26v-0.52h-0.26v-0.519h-0.259v-0.52
		h-0.259v-0.52h-0.26v-0.777h-0.26v-0.519h-0.26v-0.52h-0.26v-0.519h-0.26v-0.779h-0.26v-0.52h-0.258v-0.518h-0.26v-0.52h-0.26
		v-0.52h-0.258V67.05h-0.26v-0.52h-0.26v-0.519h-0.26v25.692h-12.457V38.244z"/>
	<path fill="#FFFFFF" d="M150.165,38.244h28.545v10.639h-0.26v0.26h-6.746v42.561h-14.533V49.144h-6.748v-0.26h-0.258V38.244z"/>
	<path fill="#FFFFFF" d="M180.397,38.244h23.617v0.259h2.594v0.26h1.557v0.26h1.299v0.259h1.037v0.259h0.778v0.26h0.78v0.26h0.519
		v0.259h0.778v0.259h0.518v0.26h0.521v0.26h0.26v0.26h0.519v0.26h0.26v0.26h0.519v0.258h0.259v0.26h0.26v0.26h0.26v0.26h0.52v0.518
		h0.26v0.26h0.26v0.26h0.26v0.26h0.258v0.259h0.26v0.519h0.26v0.26h0.26v0.518h0.259v0.52h0.261v0.259h0.26v0.779h0.26v0.518h0.26
		v0.778h0.259v0.779h0.259v1.038h0.26v1.298h0.26v2.596h0.258v4.151h-0.258v2.595h-0.26v1.298h-0.26v1.298h-0.259v0.779h-0.259
		v0.777h-0.26v0.779h-0.26v0.519h-0.26v0.52h-0.261v0.519h-0.259v0.52h-0.26v0.26h-0.26v0.52h-0.26v0.258h-0.258v0.52h-0.26v0.26
		h-0.26v0.259h-0.26v0.26h-0.26v0.261h-0.26v0.259h-0.26v0.26h-0.26v0.26h-0.259v0.26h-0.259v0.259h-0.26v0.26h-0.52v0.26h-0.259
		v0.26h-0.52v0.258h-0.521v0.26h-0.518v0.26h-0.519v0.26h0.259v0.26h0.26v0.26h0.26v0.259h0.258v0.26h0.26v0.26h0.261v0.26h0.26
		v0.259h0.26v0.26h0.259v0.52h0.26v0.26h0.26v0.26h0.26v0.518h0.259v0.26h0.259v0.52h0.26v0.259h0.26v0.52h0.26v0.52h0.26v0.26h0.26
		v0.519h0.26v0.52h0.26v0.518h0.258v0.52h0.26v0.779h0.26v0.259h0.26v0.52h0.259v0.519h0.261v0.52h0.26v0.26h0.26v0.52h0.26v0.518
		h0.259v0.26h0.259v0.519h0.26v0.26h0.26v0.26h0.258v0.52h0.26v0.26h0.261v0.519h0.26v0.26h0.26v0.26h0.259v0.26h0.26v0.518h0.26
		v0.26h0.26v0.26h0.259v0.26h0.26v0.519h0.259v0.26h0.26v0.26h0.26v0.26h0.26v0.259h0.26v0.26h0.26v0.52h0.26v0.26h0.258v0.26h0.26
		v0.26h0.26v0.258h0.26v0.26h0.259v0.26h0.261v0.26h0.26v0.259h0.26v0.259h0.26v0.261h0.26v0.26h0.259v0.26h0.259v0.26h0.26v0.259
		h0.26v0.26h0.258v0.26h0.261v0.26h0.26v0.258h0.26v0.26h0.26v0.26h0.259v0.26h-17.389v-0.52h-0.26v-0.26h-0.258v-0.518h-0.26v-0.26
		h-0.26v-0.26h-0.259v-0.519h-0.259v-0.26h-0.26v-0.521h-0.26v-0.259h-0.26v-0.519h-0.261v-0.26h-0.259v-0.518h-0.26v-0.26h-0.26
		v-0.52h-0.26v-0.26h-0.26v-0.52h-0.258v-0.259h-0.26v-0.52h-0.26v-0.26h-0.26v-0.519h-0.26v-0.26h-0.26v-0.52h-0.26v-0.26h-0.259
		V88.85h-0.259v-0.26h-0.26v-0.519h-0.26v-0.26h-0.26v-0.52h-0.26v-0.26h-0.259v-0.52h-0.26v-0.259h-0.26v-0.52h-0.261v-0.26h-0.26
		v-0.258h-0.258v-0.52h-0.26v-0.26h-0.259v-0.52h-0.259v-0.26h-0.26V83.14h-0.26v-0.26h-0.26v-0.519h-0.26v-0.26h-0.26v-0.52h-0.26
		v-0.26h-0.26v-0.26h-0.26v-0.518h-0.26v-0.26h-0.258v-0.26h-0.26v-0.519h-0.26v-0.26h-0.26v-0.26h-0.26v-0.52h-0.26v-0.259h-0.26
		v-0.26h-0.26v-0.52h-0.258v-0.258h-0.26v-0.26h-0.26v-0.26h-0.26v-0.52h-0.26v-0.26h-0.259v-0.26h-0.26v-0.259h-0.26v-0.52h-0.261
		v-0.26h-0.26v-0.259h-0.258v-0.26h-0.26v-0.26h-0.26v-0.52h-0.258v-0.26h-0.26V72.76h-0.26V72.5h-0.26v-0.26h-0.26v-0.26h-0.261
		v19.724h-14.532V38.244z M194.93,49.144v17.387h2.335v-0.259h1.04v-0.26h1.038v-0.26h0.518v-0.26h0.52v-0.26h0.52v-0.26h0.52v-0.26
		h0.518v-0.258h0.26v-0.26h0.26v-0.26h0.26v-0.26h0.26v-0.259h0.26v-0.26h0.26v-0.26h0.26v-0.259h0.26v-0.261h0.26V61.86h0.259
		v-0.52h0.259v-0.518h0.26v-0.779h0.258v-0.779h0.26v-1.557h0.261v-2.335h-0.261v-1.559h-0.26v-0.778h-0.258v-0.518h-0.26v-0.52
		h-0.259v-0.26h-0.259v-0.52h-0.26V50.96h-0.26v-0.26h-0.52v-0.26h-0.26v-0.26h-0.52v-0.258h-0.52v-0.26h-0.518v-0.26h-1.039v-0.26
		H194.93z"/>
	<path fill="#FFFFFF" d="M238.399,38.244h19.464v1.038h0.259v1.038h0.261v1.039h0.26v1.038h0.26v1.298h0.259v1.038h0.26v1.038h0.258
		v1.299h0.26v1.038h0.26v1.038h0.26v1.038h0.26v1.298h0.26v1.039h0.26v1.037h0.26v1.038h0.259v1.298h0.26v1.037h0.26v1.039h0.259
		v1.297h0.26v1.039h0.26v1.037h0.26v1.038h0.26v1.298h0.26v1.037h0.26v1.039h0.26v1.038h0.258v1.298h0.26v1.037h0.259v1.038h0.26
		v1.299h0.26V72.5h0.26v1.037h0.26v1.038h0.26v1.298h0.26v1.039h0.26v1.037h0.259v1.298h0.26v1.038h0.26v1.037h0.258v1.039h0.26
		v1.297h0.26v1.039h0.26v1.037h0.26v1.038h0.26v1.299h0.26v1.038h0.26v1.037h0.259v1.298h0.26v0.26h-14.272v-1.038h-0.26v-1.299
		h-0.26v-1.296h-0.26v-1.299h-0.26v-1.038h-0.26v-1.297h-0.26V83.14h-0.26v-1.298h-0.259v-0.779h-14.565l3.666-0.518l-3.666,0.518
		l0.173-0.892l-1.903-1.211l1.887,0.108l2.731,0.179l-2.731-0.179l0,0l-0.33-1.664l-0.173-2.77l2.715,2.795l-2.542-0.025
		l2.282,0.805h-0.26v1.038h-0.26v1.038h-0.26v1.037h-0.259v1.039h-0.26v0.778h-0.26v1.038h-0.258v1.039h-0.26v1.037h-0.26v1.038
		h-0.26v0.779h-0.26v1.038h-0.26v1.037h-0.26v1.038h-0.259v0.52h-15.052v-0.52h0.26v-1.038h0.26v-0.779h0.258v-1.037h0.26v-0.778
		h0.26v-0.779h0.259v-1.038h0.26v-0.777h0.26v-1.039h0.26V83.14h0.26v-0.778h0.26v-1.039h0.26v-0.777h0.26v-1.038h0.259v-0.778h0.26
		V77.95h0.26v-1.037h0.258v-0.779h0.26v-1.038h0.26v-0.778h0.26v-0.779h0.26V72.5h0.26v-0.778h0.26v-1.038h0.26v-0.779h0.259v-0.779
		h0.26v-1.037h0.259V67.31h0.26v-1.038h0.26v-0.779h0.26v-0.779h0.26v-1.037h0.26v-0.778h0.26V61.86h0.26v-0.779h0.258v-0.777h0.26
		v-1.039h0.26v-0.778h0.259v-1.038h0.26v-0.779h0.26v-0.777h0.26v-1.038h0.26v-0.779h0.26v-1.038h0.26v-0.777h0.259v-0.779h0.26
		v-1.038h0.26v-0.778h0.258v-1.039h0.26v-0.778h0.26v-0.778h0.26v-1.039h0.26v-0.778h0.26v-1.038h0.26v-0.78h0.26v-0.778h0.259
		v-1.038h0.26v-0.779h0.26v-1.038h0.259v-0.778h0.26V38.244z M248.003,53.036v0.778h-0.26v1.039h-0.26v0.778h-0.26v1.037h-0.26
		v1.039h-0.26v1.038h-0.26v1.038h-0.26v0.779h-0.259V61.6h-0.26v1.039h-0.26v1.037h-0.259v1.037h-0.26v0.779h-0.26v1.038h-0.26
		v1.038h-0.26v1.039h7.268v-0.52h-0.26v-1.298h-0.26v-1.298h-0.259v-1.297h-0.26v-1.298h-0.261V61.6h-0.259v-1.037h-0.26v-1.299
		h-0.26v-1.297h-0.26v-1.299h-0.26v-1.296h-0.259v-1.299h-0.26v-1.038H248.003z"/>
	<path fill="#FFFFFF" d="M285.567,38.244h6.487v0.259h2.077v0.26h1.296v0.26h1.039v0.259h1.038v0.259h0.518v0.26h0.779v0.26h0.52
		v0.259h0.519v0.259h0.52v0.26h0.519v0.26h0.26v0.26h0.52v0.26h0.26v0.26h0.26v0.258h0.258v0.26h0.26v0.26h0.26v0.26h0.259v0.258
		h0.26v0.26h0.26v0.26h0.261v0.26h0.259v0.26h0.26v0.518h0.26v0.26h0.26v0.519h0.259v0.519h0.26v0.52h0.26v0.52h0.258v0.778h0.26
		v0.52h0.26v0.778h0.26v1.038h0.26v1.298h0.26v1.557h0.26v0.778h-3.633v0.26h-9.604v-0.26h-0.258v-0.778h-0.26v-0.777h-0.26v-0.779
		h-0.26V50.96h-0.26v-0.52h-0.26v-0.26h-0.26v-0.258h-0.26v-0.26h-0.259v-0.26h-0.26v-0.26h-0.259v-0.26h-0.52v-0.259h-0.52v-0.259
		h-0.779v-0.26h-4.15v0.26h-0.52v0.259h-0.52v0.259h-0.26v0.26h-0.519v0.52h-0.26v0.26h-0.259v0.518h-0.26v1.038h-0.26v1.039h0.26
		v0.777h0.26v0.26h0.259v0.519h0.26v0.261h0.519v0.259h0.26v0.26h0.52v0.26h0.779v0.26h0.777v0.259h0.778v0.26h1.039v0.26h1.038
		v0.26h1.037v0.258h0.779v0.26h1.037v0.26h1.039v0.26h0.779v0.26h0.777v0.26h0.778v0.26h0.779v0.259h0.778v0.26h0.518v0.26h0.779
		v0.259h0.52v0.26h0.52v0.26h0.519v0.26h0.519v0.26h0.52v0.26h0.52v0.26h0.52v0.258h0.258v0.26h0.52v0.26h0.259v0.26h0.26v0.259
		h0.26v0.26h0.52v0.261h0.26v0.259h0.26v0.26h0.26v0.26h0.259v0.259h0.26v0.26h0.26v0.52h0.258v0.258h0.26v0.26h0.26v0.52h0.26v0.52
		h0.26v0.26h0.26v0.519h0.26v0.52h0.259v0.778h0.26v0.779h0.26v0.777h0.259v1.298h0.26v5.97h-0.26v1.556h-0.259v0.779h-0.26v0.778
		h-0.26v0.779h-0.259v0.518h-0.26v0.779h-0.26v0.52h-0.26v0.519h-0.26v0.26h-0.26v0.519h-0.26v0.26h-0.258v0.52h-0.26v0.26h-0.26
		v0.26h-0.259v0.518h-0.26v0.26h-0.26v0.26h-0.26v0.259h-0.259v0.26h-0.261v0.26h-0.26v0.26h-0.26v0.26h-0.519v0.26h-0.26v0.26
		h-0.258v0.259h-0.52v0.26h-0.26v0.26h-0.52v0.26h-0.519v0.258h-0.26v0.26h-0.519v0.26h-0.779v0.26h-0.52v0.26h-0.777v0.26h-0.778
		v0.259h-1.039v0.26h-1.298v0.26h-2.076v0.26h-7.006v-0.26h-2.076v-0.26h-1.559v-0.26h-1.036v-0.259h-1.038v-0.26h-0.78v-0.26
		h-0.778v-0.26h-0.518v-0.26h-0.52v-0.26h-0.52V89.11h-0.519v-0.26h-0.26v-0.26h-0.519v-0.26h-0.26v-0.259h-0.52v-0.26h-0.26v-0.26
		h-0.26v-0.26h-0.26v-0.26h-0.26v-0.26h-0.258v-0.26h-0.26v-0.259h-0.26v-0.52h-0.259v-0.26h-0.26v-0.258h-0.26v-0.52h-0.259v-0.26
		h-0.261v-0.52h-0.26V83.4h-0.26v-0.26h-0.259v-0.519h-0.26v-0.779h-0.26v-0.52h-0.258v-0.518h-0.26v-0.779h-0.26v-0.778h-0.26
		v-1.038h-0.26v-1.037h-0.26v-1.559h-0.26v-2.076h4.412v-0.26h8.822v0.26h0.26v1.298h0.26v1.038h0.26v0.779h0.26v0.52h0.26v0.518
		h0.26v0.52h0.26v0.259h0.259v0.52h0.26v0.26h0.26v0.26h0.259v0.26h0.26v0.259h0.52v0.26h0.26v0.26h0.52v0.26h0.518v0.258h0.778
		v0.26h4.153v-0.26h0.778v-0.258h0.778v-0.26h0.26v-0.26h0.52v-0.26h0.26v-0.259h0.26v-0.52h0.258v-0.26h0.26v-0.259h0.26V77.95
		h0.259v-0.777h0.26v-1.817h-0.26v-1.038h-0.259v-0.52h-0.26v-0.26h-0.26v-0.52h-0.258V72.76h-0.26V72.5h-0.26v-0.26h-0.52v-0.26
		h-0.26v-0.259h-0.52v-0.26h-0.519v-0.26h-0.519v-0.26h-0.779v-0.259h-0.779v-0.261h-0.777v-0.26h-0.778v-0.259h-1.039v-0.26h-1.036
		v-0.26h-0.779v-0.26h-1.039v-0.258h-0.778v-0.26h-0.778v-0.26h-0.779v-0.26h-0.52v-0.26h-0.776v-0.26h-0.52V67.31h-0.519v-0.26
		h-0.78v-0.26H278.3v-0.26h-0.518v-0.259h-0.26v-0.26h-0.52v-0.26h-0.52v-0.26h-0.26v-0.26h-0.519v-0.26h-0.26v-0.26h-0.259v-0.258
		h-0.52v-0.26h-0.26v-0.26h-0.26v-0.26h-0.26v-0.259h-0.26v-0.26h-0.26v-0.26h-0.258v-0.259h-0.26v-0.261h-0.26V61.86h-0.259V61.6
		h-0.26v-0.52h-0.26v-0.258h-0.259v-0.52h-0.261v-0.52h-0.26v-0.52h-0.26v-0.778h-0.259v-0.778h-0.26v-1.039h-0.26v-1.815h-0.258
		v-2.854h0.258v-1.817h0.26v-1.038h0.26v-0.778h0.259v-0.52h0.26v-0.778h0.26v-0.52h0.261v-0.52h0.259v-0.26h0.26v-0.518h0.26v-0.52
		h0.259v-0.259h0.26v-0.259h0.26v-0.26h0.258v-0.52h0.26v-0.26h0.26v-0.258h0.26v-0.26h0.26v-0.26h0.52v-0.26h0.26v-0.258h0.259
		v-0.26h0.52v-0.26h0.259v-0.26h0.52v-0.26h0.26v-0.26h0.52v-0.259h0.518v-0.259h0.52v-0.26h0.778v-0.26h0.779v-0.259h0.778v-0.259
		h1.037v-0.26h1.558v-0.26h2.077V38.244z"/>
	<path fill="#FFFFFF" d="M310.739,22.084h16.383l0.13,37.327h24.958V22.084h16.679v85.894h-16.335V73.371h-27.055v-0.417h-0.41V71.7
		h-0.416v-1.664h-0.422v-1.672h-0.412V66.7h-0.42v-1.672l4.118-0.41v8.753h-0.415v34.607h-16.383V22.084z"/>
	<polygon fill="#FFFFFF" points="88.885,22.084 86.81,33.632 307.571,33.632 307.571,22.084 	"/>
	<polygon fill="#FFFFFF" points="72.449,107.978 290.617,107.978 305.148,107.978 308.923,107.978 312.762,107.978 312.762,96.429 
		233.005,96.429 236.637,100.76 212.589,100.76 208.954,96.429 75.91,96.429 	"/>
</g>
</svg>
