<svg id="Layer_1" data-name="Layer 1" xmlns="http://www.w3.org/2000/svg" viewBox="0 0 623.62 623.62"><defs><style>.cls-1{fill:#fff;}.cls-2{fill:#ee3524;}.cls-3{fill:none;stroke:#000;stroke-miterlimit:10;stroke-width:1.21px;}.cls-4{fill:#231f20;}</style></defs><title>marco_fotoPerfil2</title><path class="cls-1" d="M635.81,633.31H12.19V9.69H635.81ZM314.22,128.88c-103.76,0-187.87,82.09-187.87,183.35s84.11,183.36,187.87,183.36S502.09,413.5,502.09,312.23,418,128.88,314.22,128.88Z" transform="translate(-12.19 -9.69)"/><polygon points="135.87 100.99 144.15 89.16 190.28 141.2 135.87 100.99"/><polygon points="127 121.68 132.91 113.41 179.63 141.79 127 121.68"/><polygon points="469.42 100.99 461.14 89.16 415.02 141.2 469.42 100.99"/><polygon points="478.3 121.69 472.38 113.41 425.66 141.79 478.3 121.69"/><polygon class="cls-2" points="311.45 103.06 302.19 97.96 292.74 102.7 294.73 92.32 287.31 84.79 297.8 83.48 302.66 74.1 307.15 83.67 317.57 85.39 309.86 92.61 311.45 103.06"/><polygon class="cls-3" points="311.45 103.06 302.19 97.96 292.74 102.7 294.73 92.32 287.31 84.79 297.8 83.48 302.66 74.1 307.15 83.67 317.57 85.39 309.86 92.61 311.45 103.06"/><path class="cls-4" d="M314.63,501.43c-103.82,0-188.28-84.46-188.28-188.28s84.46-188.27,188.28-188.27,188.28,84.46,188.28,188.27S418.45,501.43,314.63,501.43Zm0-360.55c-95,0-172.28,77.28-172.28,172.27s77.29,172.28,172.28,172.28,172.28-77.28,172.28-172.28S409.62,140.88,314.63,140.88Z" transform="translate(-12.19 -9.69)"/><path class="cls-4" d="M314.63,501.43c-103.82,0-188.28-84.46-188.28-188.28s84.46-188.27,188.28-188.27,188.28,84.46,188.28,188.27S418.45,501.43,314.63,501.43Zm0-360.55c-95,0-172.28,77.28-172.28,172.27s77.29,172.28,172.28,172.28,172.28-77.28,172.28-172.28S409.62,140.88,314.63,140.88Z" transform="translate(-12.19 -9.69)"/></svg>