<?xml version="1.0" encoding="utf-8"?>
<!-- Generator: Adobe Illustrator 22.1.0, SVG Export Plug-In . SVG Version: 6.00 Build 0)  -->
<svg version="1.1" id="Layer_1" xmlns="http://www.w3.org/2000/svg" xmlns:xlink="http://www.w3.org/1999/xlink" x="0px" y="0px"
	 viewBox="0 0 383.8 426.5" style="enable-background:new 0 0 383.8 426.5;" xml:space="preserve">
<style type="text/css">
	.st0{fill:#EE3524;}
	.st1{fill:none;stroke:#000000;stroke-width:1.205;stroke-miterlimit:10;}
</style>
<g>
	<polygon points="25.3,32.7 33.6,20.8 79.7,72.9 	"/>
	<polygon points="16.5,53.4 22.4,45.1 69.1,73.5 	"/>
</g>
<g>
	<polygon points="358.9,32.7 350.6,20.8 304.5,72.9 	"/>
	<polygon points="367.8,53.4 361.8,45.1 315.1,73.5 	"/>
</g>
<g>
	<polygon class="st0" points="200.9,34.8 191.6,29.7 182.2,34.4 184.2,24 176.8,16.5 187.3,15.2 192.1,5.8 196.6,15.4 207,17.1 
		199.3,24.3 	"/>
	<polygon class="st1" points="200.9,34.8 191.6,29.7 182.2,34.4 184.2,24 176.8,16.5 187.3,15.2 192.1,5.8 196.6,15.4 207,17.1 
		199.3,24.3 	"/>
</g>
<path d="M191.9,423.4C88.1,423.4,3.6,339,3.6,235.2c0-103.8,84.5-188.3,188.3-188.3c103.8,0,188.3,84.5,188.3,188.3
	C380.2,339,295.7,423.4,191.9,423.4z M191.9,62.9c-95,0-172.3,77.3-172.3,172.3c0,95,77.3,172.3,172.3,172.3s172.3-77.3,172.3-172.3
	C364.2,140.2,286.9,62.9,191.9,62.9z"/>
</svg>
