<?xml version="1.0" encoding="utf-8"?>
<!-- Generator: Adobe Illustrator 15.0.0, SVG Export Plug-In . SVG Version: 6.00 Build 0)  -->
<!DOCTYPE svg PUBLIC "-//W3C//DTD SVG 1.1//EN" "http://www.w3.org/Graphics/SVG/1.1/DTD/svg11.dtd">
<svg version="1.1" id="Layer_1" xmlns="http://www.w3.org/2000/svg" xmlns:xlink="http://www.w3.org/1999/xlink" x="0px" y="0px"
	 width="54px" height="52.776px" viewBox="0 0 54 52.776" enable-background="new 0 0 54 52.776" xml:space="preserve">
<path fill="#FFFFFF" d="M43,32.788c0,9.601,0,9.601-8.728,9.601H19.727c-4.82,0-8.728-4.3-8.728-9.601V19.989
	c0-9.601,0-9.601,8.728-9.601h14.545c4.82,0,8.728,4.298,8.728,9.601V32.788z M19.2,19.269c0,0-1.65,3.395,1.086,5.188
	c0,0-0.422,0.377-1.58,0c0,0-0.158,2.548,2.666,3.68c0,0-0.669,0.377-1.332,0c0,0,0.42,2.358,3.201,2.641
	c0,0-0.217,1.935-5.344,1.793c0,0,1.649,1.697,5.734,1.745c0,0,10.646-0.613,10.342-10.613l0.007-1.321l2.122-1.792l-1.867,0.188
	l1.172-1.886l-2.042,1.133l-0.478-0.237c0,0-0.695-1.273-2.651-1.32c0,0-2.78-0.189-3.236,3.207c0,0-0.065,0.662,0,1.746
	C27,23.419,23.284,24.36,19.2,19.269z"/>
</svg>
