<?xml version="1.0" encoding="utf-8"?>
<!-- Generator: Adobe Illustrator 15.0.0, SVG Export Plug-In . SVG Version: 6.00 Build 0)  -->
<!DOCTYPE svg PUBLIC "-//W3C//DTD SVG 1.1//EN" "http://www.w3.org/Graphics/SVG/1.1/DTD/svg11.dtd">
<svg version="1.1" id="Layer_1" xmlns="http://www.w3.org/2000/svg" xmlns:xlink="http://www.w3.org/1999/xlink" x="0px" y="0px"
	 width="54px" height="52.776px" viewBox="0 0 54 52.776" enable-background="new 0 0 54 52.776" xml:space="preserve">
<path fill="#FFFFFF" d="M43.686,32.787c0,9.602,0,9.602-8.727,9.602H20.414c-4.82,0-8.728-4.299-8.728-9.602V19.988
	c0-9.6,0-9.6,8.728-9.6h14.545c4.82,0,8.727,4.299,8.727,9.6V32.787z M32.356,18.972v-3.579h-2.742c-3.723-0.017-4,4.089-4,4.089
	l0.006,3.535l-2.601,0.001v3.72l2.547,0.121v10.523h3.281V26.752h2.961l0.549-3.721h-3.51v-2.553c0-1.886,1.289-1.541,1.289-1.541
	h2.221"/>
</svg>
