<?xml version="1.0" encoding="utf-8"?>
<!-- Generator: Adobe Illustrator 15.0.0, SVG Export Plug-In . SVG Version: 6.00 Build 0)  -->
<!DOCTYPE svg PUBLIC "-//W3C//DTD SVG 1.1//EN" "http://www.w3.org/Graphics/SVG/1.1/DTD/svg11.dtd">
<svg version="1.1" id="Layer_1" xmlns="http://www.w3.org/2000/svg" xmlns:xlink="http://www.w3.org/1999/xlink" x="0px" y="0px"
	 width="54px" height="52.776px" viewBox="0 0 54 52.776" enable-background="new 0 0 54 52.776" xml:space="preserve">
<path fill="#FFFFFF" d="M42.687,32.315c0,9.601,0,9.601-8.728,9.601H19.414c-4.819,0-8.727-4.299-8.727-9.601V19.517
	c0-9.601,0-9.601,8.727-9.601h14.545c4.82,0,8.728,4.298,8.728,9.601V32.315z M18.542,34.693h3.581V22.945h-3.581V34.693z
	 M24.051,34.693h3.502v-6.664c0.512-2.092,2.086-1.709,2.086-1.709c1.691-0.085,1.652,1.923,1.652,1.923l0.039,6.45h3.502V26.92
	c-0.433-3.887-3.424-3.975-3.424-3.975c-2.36-0.043-3.738,2.308-3.738,2.308h-0.157v-2.308h-3.463V34.693z M20.332,17.139
	c-0.988,0-1.79,0.83-1.79,1.856s0.802,1.858,1.79,1.858c0.989,0,1.791-0.832,1.791-1.858S21.32,17.139,20.332,17.139z"/>
</svg>
