<svg xmlns="http://www.w3.org/2000/svg" xmlns:xlink="http://www.w3.org/1999/xlink" viewBox="0 0 146.92 98.42"><defs><style>.cls-1,.cls-10,.cls-11,.cls-13{fill:none;}.cls-2{isolation:isolate;}.cls-3{mix-blend-mode:screen;}.cls-4{clip-path:url(#clip-path);}.cls-5{clip-path:url(#clip-path-2);}.cls-6{clip-path:url(#clip-path-3);}.cls-7{clip-path:url(#clip-path-4);}.cls-8{fill:#e4e418;}.cls-9{fill:#ee3524;}.cls-10,.cls-11,.cls-13{stroke:#000;stroke-miterlimit:10;}.cls-10{stroke-width:1.21px;}.cls-11{stroke-width:0.71px;}.cls-12{fill:#fff;}.cls-13{stroke-width:0.41px;}</style><clipPath id="clip-path"><rect class="cls-1" x="9.61" y="1.33" width="128.9" height="114.35"/></clipPath><clipPath id="clip-path-2"><path class="cls-1" d="M37.06,25.28C51.41,49.74,21.38,40.69,21.38,40.69,43,55.91,9.62,63.85,9.62,63.85c30.67-5.64,14.47,14.68,14.47,14.68C51.58,58.66,40.53,88,40.53,88c26.26-21.9,41.7,2.81,41.7,2.81,5.32-22.74,26.31-8.56,26.31-8.56-12-17.85,17.54-11.74,17.54-11.74-25.78-11.73,4.52-18.34,4.52-18.34-24.72-3.91,2.13-19.56,2.13-19.56C98.44,44.36,111.2,21.86,111.2,21.86,89.14,40,92.33,17.7,92.33,17.7,74,38,66.55,14,66.55,14c-4,32.77-29.49,11.24-29.49,11.24"/></clipPath><clipPath id="clip-path-3"><rect class="cls-1" x="14.24" y="1.33" width="124.27" height="114.35"/></clipPath><clipPath id="clip-path-4"><rect class="cls-1" x="14.25" y="1.33" width="124.27" height="114.35"/></clipPath></defs><title>solicitar_</title><g class="cls-2"><g id="Layer_1" data-name="Layer 1"><path d="M15.45,39.3a48.67,48.67,0,0,0,9.89,1.58,23.54,23.54,0,0,0,5-.22,9.92,9.92,0,0,0,4.43-1.72,5.45,5.45,0,0,0,2-3.79,11.73,11.73,0,0,0-.5-4.42,36.35,36.35,0,0,0-4-8.34l-2.1-3.46,3.28,2.61a47.2,47.2,0,0,0,5,3.22,37,37,0,0,0,5.35,2.57,23.06,23.06,0,0,0,5.66,1.43A12.24,12.24,0,0,0,55,28.12,11.12,11.12,0,0,0,59.52,25a19.6,19.6,0,0,0,3-4.71A33.88,33.88,0,0,0,64.35,15c.53-1.81.9-3.67,1.26-5.54L66,7.62l.43,1.75a41.45,41.45,0,0,0,5.13,7.51c2,2.18,4.41,3.95,7.13,4.28S84.31,20.5,87,19a68.25,68.25,0,0,0,7.78-5.48l.23-.18-.08.23a23.06,23.06,0,0,0,.9,7.75,6.76,6.76,0,0,0,2,3.13,4.76,4.76,0,0,0,3.45,1,11.7,11.7,0,0,0,3.85-1.05,31.39,31.39,0,0,0,3.63-1.9,74.87,74.87,0,0,0,6.74-4.79l2.43-1.89-1.26,2.74A29.6,29.6,0,0,0,115,22.94a13.79,13.79,0,0,0-.6,4.46,5.58,5.58,0,0,0,1.47,3.8,7.48,7.48,0,0,0,4,1.85c3.22.55,6.69.07,10.06-.46s6.74-1.44,10.09-2.33a60,60,0,0,0-7.24,5.33,23.56,23.56,0,0,0-5.65,6.6,5.39,5.39,0,0,0-.58,3.87A5.28,5.28,0,0,0,129.23,49a25.2,25.2,0,0,0,8.57,2.45l3.41.34-3.36,1a70.1,70.1,0,0,0-8.6,3.22,26.17,26.17,0,0,0-3.87,2.14A8.73,8.73,0,0,0,122.61,61a3.43,3.43,0,0,0,0,3.26,11.23,11.23,0,0,0,2.59,3.15,67.21,67.21,0,0,0,7.41,5.29,61.3,61.3,0,0,0-8.86-.9,28.32,28.32,0,0,0-8.74.86,7.78,7.78,0,0,0-3.54,2,4.46,4.46,0,0,0-1.09,3.51,10.84,10.84,0,0,0,1.15,3.76,25.14,25.14,0,0,0,2.1,3.5l1.9,2.75-3-1.82a32.88,32.88,0,0,0-4.19-2.12,32.21,32.21,0,0,0-4.45-1.57,17.6,17.6,0,0,0-9.12-.34,12.11,12.11,0,0,0-7,5.08,27,27,0,0,0-3.54,8.11l-.56,1.66-.84-1.46a28.78,28.78,0,0,0-8.81-9.37,24.22,24.22,0,0,0-12.73-4.21,27.34,27.34,0,0,0-13.16,3,43.67,43.67,0,0,0-10.79,7.6h0l-2,1.77L36.17,92c.44-1.49.86-3,1.18-4.53a36.26,36.26,0,0,0,.75-4.57,16.53,16.53,0,0,0-.05-4.45,4,4,0,0,0-1.92-3.15,6.26,6.26,0,0,0-4.15,0,28,28,0,0,0-4.49,1.79A88.84,88.84,0,0,0,19,82.18L14.7,84.5l3.18-3.28a20.86,20.86,0,0,0,4.76-7.38,9,9,0,0,0,.54-4.29,5.26,5.26,0,0,0-2.37-3.63,10.57,10.57,0,0,0-4.4-1.46,25.56,25.56,0,0,0-4.71-.13,50.9,50.9,0,0,0-9.26,1.56h0L2.1,64.54a101.31,101.31,0,0,0,9.73-3.92,29,29,0,0,0,8.34-5.46,8.21,8.21,0,0,0,2.23-3.84A7.07,7.07,0,0,0,21.86,47a16.49,16.49,0,0,0-2.73-4,38.17,38.17,0,0,0-3.68-3.62m0,0c3.06,1.75,6.06,3.88,7.94,7a8.28,8.28,0,0,1,1.17,5.33,9.71,9.71,0,0,1-2.47,5A25.92,25.92,0,0,1,13,62.76a45.88,45.88,0,0,1-10.5,3.13l-.34-1.36h0a84.58,84.58,0,0,1,9.54-.63,29,29,0,0,1,4.75.38,11.42,11.42,0,0,1,4.4,1.6,5.37,5.37,0,0,1,2.35,3.67,10.32,10.32,0,0,1-.38,4.34,36.37,36.37,0,0,1-3.71,8.16l-1.08-1h0a57.84,57.84,0,0,1,8.41-5.67,24.86,24.86,0,0,1,4.89-2.07,12,12,0,0,1,2.81-.48,6.4,6.4,0,0,1,3.08.56,5,5,0,0,1,2.23,2.13,7.7,7.7,0,0,1,.84,2.59,17,17,0,0,1,0,5,39.28,39.28,0,0,1-2.64,9.33l-1.23-.74h0A59.48,59.48,0,0,1,48,84.82a30.88,30.88,0,0,1,13.34-2.69,26.77,26.77,0,0,1,12.89,4,38.69,38.69,0,0,1,10,8.89l-1.4.2A31.57,31.57,0,0,1,84,90.74a22.37,22.37,0,0,1,2.11-4.28,13.83,13.83,0,0,1,8.06-6,19.23,19.23,0,0,1,10.28.47,32.68,32.68,0,0,1,9,4.31l-1.1.93h0a26.22,26.22,0,0,1-2-3.76,12,12,0,0,1-1.06-4.17,5.45,5.45,0,0,1,1.51-4.14,8.59,8.59,0,0,1,4-2.12,29.22,29.22,0,0,1,9-.55,62.29,62.29,0,0,1,8.84,1.25,30.15,30.15,0,0,1-8.65-4,11.47,11.47,0,0,1-3.41-3.55,5.46,5.46,0,0,1-.76-2.53,5.36,5.36,0,0,1,.59-2.62,10.2,10.2,0,0,1,3.51-3.66,24.44,24.44,0,0,1,4.32-2.27,42.85,42.85,0,0,1,9.28-2.61l0,1.38a26.18,26.18,0,0,1-8.94-3,6.17,6.17,0,0,1-2.95-3.61,6.13,6.13,0,0,1,.82-4.4,24.45,24.45,0,0,1,6.08-6.55,62,62,0,0,1,7.5-5.07,68.57,68.57,0,0,1-9.83,3.36,37.19,37.19,0,0,1-5.19,1,21.8,21.8,0,0,1-5.42.06,8.9,8.9,0,0,1-5.21-2.22,7.1,7.1,0,0,1-2.07-5,18.71,18.71,0,0,1,3-9.57l1.18.85a52,52,0,0,1-6.83,5,26.77,26.77,0,0,1-3.88,2,14,14,0,0,1-4.43,1.08,6.08,6.08,0,0,1-4.48-1.48,7.52,7.52,0,0,1-2.1-3.77,18.48,18.48,0,0,1,0-8l.14.06a26.74,26.74,0,0,1-6.5,7.22,17.63,17.63,0,0,1-4.58,2.53,12.48,12.48,0,0,1-5.6.72,12,12,0,0,1-5.27-2,15.41,15.41,0,0,1-3.68-3.66,20.84,20.84,0,0,1-3.66-8.84l.78-.06a38.11,38.11,0,0,1-2.31,11.36,19,19,0,0,1-3,5.25,13,13,0,0,1-5.21,3.82,14.49,14.49,0,0,1-6.61.77A22.38,22.38,0,0,1,43,29.09a38.5,38.5,0,0,1-10.51-6.52l1.18-.85a37.57,37.57,0,0,1,3.73,8.76,12.4,12.4,0,0,1,.34,4.78,6.26,6.26,0,0,1-2.51,4.22,10.7,10.7,0,0,1-4.82,1.7,24.65,24.65,0,0,1-5.08,0,49.68,49.68,0,0,1-9.87-1.93"/><g class="cls-3"><g class="cls-4"><g class="cls-5"><g class="cls-3"><g class="cls-6"><g class="cls-7"><path class="cls-8" d="M47.31,1.9a.05.05,0,1,0,0-.1.05.05,0,1,0,0,.1"/><path class="cls-8" d="M53.81,2.1a.27.27,0,0,0,.27-.25.27.27,0,0,0-.54,0,.27.27,0,0,0,.27.25"/><path class="cls-8" d="M60.31,2.23a.39.39,0,0,0,.41-.38.4.4,0,0,0-.41-.39.41.41,0,0,0-.42.39.4.4,0,0,0,.42.38"/><path class="cls-8" d="M66.81,2.33a.5.5,0,0,0,.52-.48.52.52,0,0,0-1,0,.5.5,0,0,0,.52.48"/><path class="cls-8" d="M73.31,2.36a.54.54,0,0,0,.56-.51.56.56,0,0,0-1.12,0,.54.54,0,0,0,.56.51"/><path class="cls-8" d="M79.81,2.35a.52.52,0,0,0,.54-.5.54.54,0,0,0-1.08,0,.52.52,0,0,0,.54.5"/><path class="cls-8" d="M86.31,2.28a.45.45,0,0,0,.47-.43.47.47,0,0,0-.94,0,.45.45,0,0,0,.47.43"/><path class="cls-8" d="M92.81,2.15a.3.3,0,1,0-.32-.3.31.31,0,0,0,.32.3"/><path class="cls-8" d="M99.31,2a.12.12,0,1,0-.13-.11.12.12,0,0,0,.13.11"/><path class="cls-8" d="M40.81,8.1a.29.29,0,0,0,.29-.27.29.29,0,0,0-.58,0,.29.29,0,0,0,.29.27"/><path class="cls-8" d="M47.31,8.34a.54.54,0,0,0,.56-.51.55.55,0,0,0-.56-.52.55.55,0,0,0-.56.52.54.54,0,0,0,.56.51"/><path class="cls-8" d="M53.81,8.58A.75.75,0,1,0,53,7.83a.79.79,0,0,0,.81.75"/><path class="cls-8" d="M60.31,8.72a.9.9,0,1,0,0-1.79.94.94,0,0,0-1,.9.94.94,0,0,0,1,.89"/><path class="cls-8" d="M66.81,8.83a1,1,0,0,0,1.08-1,1.08,1.08,0,0,0-2.16,0,1,1,0,0,0,1.08,1"/><path class="cls-8" d="M73.31,8.88a1.05,1.05,0,1,0,0-2.1,1.1,1.1,0,0,0-1.14,1,1.1,1.1,0,0,0,1.14,1.05"/><path class="cls-8" d="M79.81,8.84a1.05,1.05,0,0,0,1.1-1,1.1,1.1,0,0,0-2.2,0,1.05,1.05,0,0,0,1.1,1"/><path class="cls-8" d="M86.31,8.78a1,1,0,0,0,1-.95,1,1,0,0,0-2.06,0,1,1,0,0,0,1,.95"/><path class="cls-8" d="M92.81,8.63a.8.8,0,1,0-.87-.8.84.84,0,0,0,.87.8"/><path class="cls-8" d="M99.31,8.43a.6.6,0,1,0,0-1.2.6.6,0,1,0,0,1.2"/><path class="cls-8" d="M105.81,8.2a.39.39,0,0,0,.4-.37.4.4,0,0,0-.8,0,.39.39,0,0,0,.4.37"/><path class="cls-8" d="M112.31,7.89s.07,0,.07-.06a.07.07,0,1,0-.14,0s0,.06.07.06"/><path class="cls-8" d="M27.81,13.83a0,0,0,0,0,0,0,0,0,0,0,0,0,0l0,0,0,0"/><path class="cls-8" d="M34.31,14.18a.4.4,0,0,0,.4-.37.39.39,0,0,0-.4-.36.38.38,0,0,0-.4.36.38.38,0,0,0,.4.37"/><path class="cls-8" d="M40.81,14.51a.7.7,0,1,0-.76-.7.73.73,0,0,0,.76.7"/><path class="cls-8" d="M47.31,14.79a1,1,0,1,0-1.06-1,1,1,0,0,0,1.06,1"/><path class="cls-8" d="M53.81,15a1.21,1.21,0,1,0-1.32-1.21A1.26,1.26,0,0,0,53.81,15"/><path class="cls-8" d="M60.31,15.2a1.39,1.39,0,1,0-1.51-1.39,1.45,1.45,0,0,0,1.51,1.39"/><path class="cls-8" d="M66.81,15.32a1.52,1.52,0,1,0-1.64-1.51,1.58,1.58,0,0,0,1.64,1.51"/><path class="cls-8" d="M73.31,15.37A1.63,1.63,0,0,0,75,13.81a1.7,1.7,0,0,0-3.39,0,1.63,1.63,0,0,0,1.69,1.56"/><path class="cls-8" d="M79.81,15.34a1.6,1.6,0,0,0,1.66-1.53,1.67,1.67,0,0,0-3.32,0,1.61,1.61,0,0,0,1.66,1.53"/><path class="cls-8" d="M86.31,15.26a1.45,1.45,0,1,0-1.57-1.45,1.51,1.51,0,0,0,1.57,1.45"/><path class="cls-8" d="M92.81,15.09a1.28,1.28,0,1,0-1.39-1.28,1.33,1.33,0,0,0,1.39,1.28"/><path class="cls-8" d="M99.31,14.87a1.06,1.06,0,1,0-1.15-1.06,1.11,1.11,0,0,0,1.15,1.06"/><path class="cls-8" d="M105.81,14.61a.8.8,0,1,0,0-1.59.8.8,0,1,0,0,1.59"/><path class="cls-8" d="M112.31,14.29a.5.5,0,0,0,.52-.48.5.5,0,0,0-.52-.48.51.51,0,0,0-.52.48.5.5,0,0,0,.52.48"/><path class="cls-8" d="M118.81,13.94a.13.13,0,1,0,0-.26.13.13,0,1,0,0,.26"/><path class="cls-8" d="M27.81,20.16a.4.4,0,0,0,.4-.37.39.39,0,0,0-.4-.36.38.38,0,0,0-.4.36.39.39,0,0,0,.4.37"/><path class="cls-8" d="M34.31,20.55a.76.76,0,1,0-.83-.76.8.8,0,0,0,.83.76"/><path class="cls-8" d="M40.81,20.9a1.11,1.11,0,1,0-1.21-1.1,1.16,1.16,0,0,0,1.21,1.1"/><path class="cls-8" d="M47.31,21.22a1.43,1.43,0,1,0-1.55-1.43,1.5,1.5,0,0,0,1.55,1.43"/><path class="cls-8" d="M53.81,21.47A1.68,1.68,0,1,0,52,19.79a1.76,1.76,0,0,0,1.82,1.68"/><path class="cls-8" d="M60.31,21.67a1.88,1.88,0,1,0-2-1.88,2,2,0,0,0,2,1.88"/><path class="cls-8" d="M66.81,21.82a2,2,0,1,0-2.2-2,2.12,2.12,0,0,0,2.2,2"/><path class="cls-8" d="M73.31,21.87a2.08,2.08,0,1,0-2.25-2.08,2.16,2.16,0,0,0,2.25,2.08"/><path class="cls-8" d="M79.81,21.83a2,2,0,1,0-2.22-2,2.14,2.14,0,0,0,2.22,2"/><path class="cls-8" d="M86.31,21.73a1.95,1.95,0,1,0-2.11-1.94,2,2,0,0,0,2.11,1.94"/><path class="cls-8" d="M92.81,21.55a1.77,1.77,0,1,0-1.91-1.76,1.84,1.84,0,0,0,1.91,1.76"/><path class="cls-8" d="M99.31,21.3a1.52,1.52,0,1,0-1.64-1.51,1.58,1.58,0,0,0,1.64,1.51"/><path class="cls-8" d="M105.81,21a1.21,1.21,0,1,0-1.31-1.21A1.27,1.27,0,0,0,105.81,21"/><path class="cls-8" d="M112.31,20.67a.88.88,0,1,0-1-.88.92.92,0,0,0,1,.88"/><path class="cls-8" d="M118.81,20.29a.5.5,0,1,0-.54-.5.52.52,0,0,0,.54.5"/><path class="cls-8" d="M125.31,19.89a.1.1,0,0,0,.11-.1.11.11,0,0,0-.11-.1.1.1,0,0,0-.1.1.09.09,0,0,0,.1.1"/><path class="cls-8" d="M21.31,26a.27.27,0,1,0,0-.53.27.27,0,1,0,0,.53"/><path class="cls-8" d="M27.81,26.47a.7.7,0,1,0-.76-.7.73.73,0,0,0,.76.7"/><path class="cls-8" d="M34.31,26.89a1.12,1.12,0,1,0-1.21-1.11,1.17,1.17,0,0,0,1.21,1.11"/><path class="cls-8" d="M40.81,27.27a1.5,1.5,0,1,0-1.63-1.5,1.57,1.57,0,0,0,1.63,1.5"/><path class="cls-8" d="M47.31,27.6a1.83,1.83,0,1,0-2-1.83,1.91,1.91,0,0,0,2,1.83"/><path class="cls-8" d="M53.81,27.9a2.13,2.13,0,1,0-2.31-2.13,2.22,2.22,0,0,0,2.31,2.13"/><path class="cls-8" d="M60.31,28.15a2.38,2.38,0,1,0-2.58-2.38,2.49,2.49,0,0,0,2.58,2.38"/><path class="cls-8" d="M66.81,28.31a2.54,2.54,0,1,0-2.76-2.54,2.65,2.65,0,0,0,2.76,2.54"/><path class="cls-8" d="M73.31,28.36a2.59,2.59,0,1,0-2.81-2.59,2.71,2.71,0,0,0,2.81,2.59"/><path class="cls-8" d="M79.81,28.35A2.58,2.58,0,1,0,77,25.77a2.69,2.69,0,0,0,2.79,2.58"/><path class="cls-8" d="M86.31,28.21a2.44,2.44,0,1,0-2.64-2.44,2.55,2.55,0,0,0,2.64,2.44"/><path class="cls-8" d="M92.81,28a2.23,2.23,0,1,0-2.41-2.23A2.33,2.33,0,0,0,92.81,28"/><path class="cls-8" d="M99.31,27.72a2,2,0,1,0-2.11-1.95,2,2,0,0,0,2.11,1.95"/><path class="cls-8" d="M105.81,27.38a1.62,1.62,0,1,0-1.75-1.61,1.68,1.68,0,0,0,1.75,1.61"/><path class="cls-8" d="M112.31,27A1.23,1.23,0,1,0,111,25.77,1.28,1.28,0,0,0,112.31,27"/><path class="cls-8" d="M118.81,26.62a.85.85,0,1,0-.92-.84.88.88,0,0,0,.92.84"/><path class="cls-8" d="M125.31,26.19a.44.44,0,0,0,.45-.42.43.43,0,0,0-.45-.41.43.43,0,0,0-.45.41.44.44,0,0,0,.45.42"/><path class="cls-8" d="M14.81,31.8s0,0,0,0a.06.06,0,1,0-.11,0s0,0,.06,0"/><path class="cls-8" d="M21.31,32.27a.52.52,0,1,0-.56-.51.54.54,0,0,0,.56.51"/><path class="cls-8" d="M27.81,32.73a1,1,0,1,0-1.07-1,1,1,0,0,0,1.07,1"/><path class="cls-8" d="M34.31,33.18a1.43,1.43,0,1,0-1.55-1.42,1.5,1.5,0,0,0,1.55,1.42"/><path class="cls-8" d="M40.81,33.58a1.83,1.83,0,1,0-2-1.82,1.91,1.91,0,0,0,2,1.82"/><path class="cls-8" d="M47.31,34a2.23,2.23,0,1,0-2.42-2.22A2.33,2.33,0,0,0,47.31,34"/><path class="cls-8" d="M53.81,34.33A2.58,2.58,0,1,0,51,31.76a2.69,2.69,0,0,0,2.8,2.57"/><path class="cls-8" d="M60.31,34.61a2.86,2.86,0,1,0-3.1-2.85,3,3,0,0,0,3.1,2.85"/><path class="cls-8" d="M66.81,34.79a3,3,0,1,0-3.3-3,3.18,3.18,0,0,0,3.3,3"/><path class="cls-8" d="M73.31,34.87a3.13,3.13,0,1,0-3.39-3.11,3.26,3.26,0,0,0,3.39,3.11"/><path class="cls-8" d="M79.81,34.82a3.08,3.08,0,1,0-3.34-3.06,3.21,3.21,0,0,0,3.34,3.06"/><path class="cls-8" d="M86.31,34.67a2.93,2.93,0,1,0-3.17-2.91,3,3,0,0,0,3.17,2.91"/><path class="cls-8" d="M92.81,34.43a2.68,2.68,0,1,0-2.9-2.67,2.8,2.8,0,0,0,2.9,2.67"/><path class="cls-8" d="M99.31,34.09a2.34,2.34,0,1,0-2.54-2.33,2.44,2.44,0,0,0,2.54,2.33"/><path class="cls-8" d="M105.81,33.71a2,2,0,1,0-2.12-1.95,2,2,0,0,0,2.12,1.95"/><path class="cls-8" d="M112.31,33.32a1.56,1.56,0,1,0-1.69-1.56,1.63,1.63,0,0,0,1.69,1.56"/><path class="cls-8" d="M118.81,32.88a1.13,1.13,0,1,0-1.22-1.12,1.18,1.18,0,0,0,1.22,1.12"/><path class="cls-8" d="M125.31,32.44a.68.68,0,1,0-.74-.68.71.71,0,0,0,.74.68"/><path class="cls-8" d="M131.81,32a.22.22,0,0,0,.22-.2.21.21,0,0,0-.22-.2.2.2,0,0,0-.21.2.21.21,0,0,0,.21.2"/><path class="cls-8" d="M14.81,38a.25.25,0,1,0,0-.5.25.25,0,1,0,0,.5"/><path class="cls-8" d="M21.31,38.49a.75.75,0,1,0-.81-.75.78.78,0,0,0,.81.75"/><path class="cls-8" d="M27.81,39a1.21,1.21,0,1,0-1.32-1.21A1.26,1.26,0,0,0,27.81,39"/><path class="cls-8" d="M34.31,39.41a1.68,1.68,0,1,0-1.82-1.67,1.75,1.75,0,0,0,1.82,1.67"/><path class="cls-8" d="M40.81,39.86a2.13,2.13,0,1,0-2.31-2.12,2.23,2.23,0,0,0,2.31,2.12"/><path class="cls-8" d="M47.31,40.31a2.58,2.58,0,1,0-2.8-2.57,2.69,2.69,0,0,0,2.8,2.57"/><path class="cls-8" d="M53.81,40.69a3,3,0,1,0-3.21-2.95,3.09,3.09,0,0,0,3.21,2.95"/><path class="cls-8" d="M60.31,41a3.31,3.31,0,1,0-3.59-3.3A3.46,3.46,0,0,0,60.31,41"/><path class="cls-8" d="M66.81,41.27A3.55,3.55,0,1,0,63,37.74a3.7,3.7,0,0,0,3.84,3.53"/><path class="cls-8" d="M73.31,41.37a3.64,3.64,0,1,0-4-3.63,3.8,3.8,0,0,0,4,3.63"/><path class="cls-8" d="M79.81,41.32a3.6,3.6,0,1,0-3.89-3.58,3.74,3.74,0,0,0,3.89,3.58"/><path class="cls-8" d="M86.31,41.12a3.4,3.4,0,1,0-3.68-3.38,3.54,3.54,0,0,0,3.68,3.38"/><path class="cls-8" d="M92.81,40.81a3.08,3.08,0,1,0-3.34-3.07,3.22,3.22,0,0,0,3.34,3.07"/><path class="cls-8" d="M99.31,40.44a2.71,2.71,0,1,0-2.94-2.7,2.83,2.83,0,0,0,2.94,2.7"/><path class="cls-8" d="M105.81,40a2.28,2.28,0,1,0-2.47-2.27A2.38,2.38,0,0,0,105.81,40"/><path class="cls-8" d="M112.31,39.56a1.83,1.83,0,1,0-2-1.82,1.91,1.91,0,0,0,2,1.82"/><path class="cls-8" d="M118.81,39.12a1.38,1.38,0,1,0-1.5-1.38,1.44,1.44,0,0,0,1.5,1.38"/><path class="cls-8" d="M125.31,38.63a.9.9,0,1,0-1-.89.94.94,0,0,0,1,.89"/><path class="cls-8" d="M131.81,38.15a.44.44,0,0,0,.46-.41.46.46,0,0,0-.91,0,.43.43,0,0,0,.45.41"/><path class="cls-8" d="M14.81,44.1a.38.38,0,1,0,0-.76.38.38,0,1,0,0,.76"/><path class="cls-8" d="M21.31,44.62a.9.9,0,1,0-1-.9.94.94,0,0,0,1,.9"/><path class="cls-8" d="M27.81,45.11a1.4,1.4,0,1,0-1.52-1.39,1.45,1.45,0,0,0,1.52,1.39"/><path class="cls-8" d="M34.31,45.59a1.88,1.88,0,1,0-2-1.87,2,2,0,0,0,2,1.87"/><path class="cls-8" d="M40.81,46.09a2.38,2.38,0,1,0-2.58-2.37,2.48,2.48,0,0,0,2.58,2.37"/><path class="cls-8" d="M47.31,46.57a2.86,2.86,0,1,0-3.1-2.85,3,3,0,0,0,3.1,2.85"/><path class="cls-8" d="M53.81,47a3.31,3.31,0,1,0-3.59-3.3A3.46,3.46,0,0,0,53.81,47"/><path class="cls-8" d="M60.31,47.42a3.71,3.71,0,1,0-4-3.7,3.87,3.87,0,0,0,4,3.7"/><path class="cls-8" d="M66.81,47.42a3.71,3.71,0,1,0-4-3.7,3.87,3.87,0,0,0,4,3.7"/><path class="cls-8" d="M73.31,47.42a3.71,3.71,0,1,0-4-3.7,3.87,3.87,0,0,0,4,3.7"/><path class="cls-8" d="M79.81,47.42a3.71,3.71,0,1,0-4-3.7,3.87,3.87,0,0,0,4,3.7"/><path class="cls-8" d="M86.31,47.42a3.71,3.71,0,1,0-4-3.7,3.87,3.87,0,0,0,4,3.7"/><path class="cls-8" d="M92.81,47.15a3.44,3.44,0,1,0-3.73-3.43,3.59,3.59,0,0,0,3.73,3.43"/><path class="cls-8" d="M99.31,46.72a3,3,0,1,0-3.26-3,3.14,3.14,0,0,0,3.26,3"/><path class="cls-8" d="M105.81,46.26a2.55,2.55,0,1,0-2.76-2.54,2.66,2.66,0,0,0,2.76,2.54"/><path class="cls-8" d="M112.31,45.76a2,2,0,1,0-2.21-2,2.13,2.13,0,0,0,2.21,2"/><path class="cls-8" d="M118.81,45.28a1.56,1.56,0,1,0-1.69-1.56,1.63,1.63,0,0,0,1.69,1.56"/><path class="cls-8" d="M125.31,44.78a1.06,1.06,0,1,0-1.15-1.06,1.11,1.11,0,0,0,1.15,1.06"/><path class="cls-8" d="M131.81,44.29a.6.6,0,0,0,.62-.57.62.62,0,1,0-.62.57"/><path class="cls-8" d="M138.32,43.77a.05.05,0,1,0,0-.1.05.05,0,1,0,0,.1"/><path class="cls-8" d="M14.81,50.18a.5.5,0,0,0,.52-.48.53.53,0,1,0-.52.48"/><path class="cls-8" d="M21.31,50.7a1,1,0,1,0,0-2,1,1,0,1,0,0,2"/><path class="cls-8" d="M27.81,51.21a1.52,1.52,0,1,0-1.65-1.51,1.58,1.58,0,0,0,1.65,1.51"/><path class="cls-8" d="M34.31,51.72a2,2,0,1,0-2.2-2,2.12,2.12,0,0,0,2.2,2"/><path class="cls-8" d="M40.81,52.24a2.55,2.55,0,1,0-2.76-2.54,2.66,2.66,0,0,0,2.76,2.54"/><path class="cls-8" d="M47.31,52.74a3.05,3.05,0,1,0-3.3-3,3.18,3.18,0,0,0,3.3,3"/><path class="cls-8" d="M53.81,53.23A3.54,3.54,0,1,0,50,49.7a3.7,3.7,0,0,0,3.84,3.53"/><path class="cls-8" d="M60.31,53.4a3.71,3.71,0,1,0-4-3.7,3.87,3.87,0,0,0,4,3.7"/><path class="cls-8" d="M66.81,53.4a3.71,3.71,0,1,0-4-3.7,3.87,3.87,0,0,0,4,3.7"/><path class="cls-8" d="M73.31,53.4a3.71,3.71,0,1,0-4-3.7,3.87,3.87,0,0,0,4,3.7"/><path class="cls-8" d="M79.81,53.4a3.71,3.71,0,1,0-4-3.7,3.87,3.87,0,0,0,4,3.7"/><path class="cls-8" d="M86.31,53.4a3.71,3.71,0,1,0-4-3.7,3.87,3.87,0,0,0,4,3.7"/><path class="cls-8" d="M92.81,53.4a3.71,3.71,0,1,0-4-3.7,3.87,3.87,0,0,0,4,3.7"/><path class="cls-8" d="M99.31,52.9a3.21,3.21,0,1,0-3.48-3.2,3.35,3.35,0,0,0,3.48,3.2"/><path class="cls-8" d="M105.81,52.4a2.71,2.71,0,1,0-2.94-2.7,2.82,2.82,0,0,0,2.94,2.7"/><path class="cls-8" d="M112.31,51.89a2.2,2.2,0,1,0-2.38-2.19,2.29,2.29,0,0,0,2.38,2.19"/><path class="cls-8" d="M118.81,51.38A1.69,1.69,0,1,0,117,49.7a1.76,1.76,0,0,0,1.82,1.68"/><path class="cls-8" d="M125.31,50.88A1.18,1.18,0,1,0,124,49.7a1.23,1.23,0,0,0,1.28,1.18"/><path class="cls-8" d="M131.81,50.37a.67.67,0,1,0,0-1.33.67.67,0,1,0,0,1.33"/><path class="cls-8" d="M138.32,49.83a.13.13,0,1,0,0-.26.13.13,0,1,0,0,.26"/><path class="cls-8" d="M14.81,56.2a.52.52,0,1,0,0-1,.52.52,0,1,0,0,1"/><path class="cls-8" d="M21.31,56.73a1,1,0,1,0-1.14-1,1.09,1.09,0,0,0,1.14,1"/><path class="cls-8" d="M27.81,57.24a1.57,1.57,0,1,0-1.7-1.56,1.63,1.63,0,0,0,1.7,1.56"/><path class="cls-8" d="M34.31,57.76a2.08,2.08,0,1,0-2.25-2.08,2.18,2.18,0,0,0,2.25,2.08"/><path class="cls-8" d="M40.81,58.27A2.6,2.6,0,1,0,38,55.68a2.71,2.71,0,0,0,2.82,2.59"/><path class="cls-8" d="M47.31,58.8a3.13,3.13,0,1,0-3.39-3.12,3.26,3.26,0,0,0,3.39,3.12"/><path class="cls-8" d="M53.81,59.31a3.64,3.64,0,1,0-4-3.63,3.8,3.8,0,0,0,4,3.63"/><path class="cls-8" d="M60.31,59.38a3.71,3.71,0,1,0-4-3.7,3.87,3.87,0,0,0,4,3.7"/><path class="cls-8" d="M66.81,59.38a3.71,3.71,0,1,0-4-3.7,3.87,3.87,0,0,0,4,3.7"/><path class="cls-8" d="M73.31,59.38a3.71,3.71,0,1,0-4-3.7,3.87,3.87,0,0,0,4,3.7"/><path class="cls-8" d="M79.81,59.38a3.71,3.71,0,1,0-4-3.7,3.87,3.87,0,0,0,4,3.7"/><path class="cls-8" d="M86.31,59.38a3.71,3.71,0,1,0-4-3.7,3.87,3.87,0,0,0,4,3.7"/><path class="cls-8" d="M92.81,59.38a3.71,3.71,0,1,0-4-3.7,3.87,3.87,0,0,0,4,3.7"/><path class="cls-8" d="M99.31,59a3.31,3.31,0,1,0-3.58-3.3A3.45,3.45,0,0,0,99.31,59"/><path class="cls-8" d="M105.81,58.45a2.78,2.78,0,1,0-3-2.77,2.89,2.89,0,0,0,3,2.77"/><path class="cls-8" d="M112.31,57.94a2.26,2.26,0,1,0-2.45-2.26,2.36,2.36,0,0,0,2.45,2.26"/><path class="cls-8" d="M118.81,57.41a1.73,1.73,0,1,0-1.87-1.73,1.81,1.81,0,0,0,1.87,1.73"/><path class="cls-8" d="M125.31,56.89A1.21,1.21,0,1,0,124,55.68a1.27,1.27,0,0,0,1.31,1.21"/><path class="cls-8" d="M131.81,56.38a.7.7,0,1,0-.75-.7.73.73,0,0,0,.75.7"/><path class="cls-8" d="M138.32,55.87a.2.2,0,0,0,.19-.19.19.19,0,0,0-.19-.18.19.19,0,0,0-.2.18.2.2,0,0,0,.2.19"/><path class="cls-8" d="M14.81,62.16a.5.5,0,1,0-.54-.49.52.52,0,0,0,.54.49"/><path class="cls-8" d="M21.31,62.67a1,1,0,1,0,0-2,1,1,0,1,0,0,2"/><path class="cls-8" d="M27.81,63.19a1.53,1.53,0,1,0-1.66-1.52,1.6,1.6,0,0,0,1.66,1.52"/><path class="cls-8" d="M34.31,63.71a2.05,2.05,0,1,0-2.22-2,2.14,2.14,0,0,0,2.22,2"/><path class="cls-8" d="M40.81,64.23A2.57,2.57,0,1,0,38,61.67a2.69,2.69,0,0,0,2.8,2.56"/><path class="cls-8" d="M47.31,64.73A3.08,3.08,0,1,0,44,61.67a3.2,3.2,0,0,0,3.34,3.06"/><path class="cls-8" d="M53.81,65.25a3.6,3.6,0,1,0-3.9-3.58,3.75,3.75,0,0,0,3.9,3.58"/><path class="cls-8" d="M60.31,65.36a3.71,3.71,0,1,0-4-3.69,3.86,3.86,0,0,0,4,3.69"/><path class="cls-8" d="M66.81,65.36a3.71,3.71,0,1,0-4-3.69,3.86,3.86,0,0,0,4,3.69"/><path class="cls-8" d="M73.31,65.36a3.71,3.71,0,1,0-4-3.69,3.86,3.86,0,0,0,4,3.69"/><path class="cls-8" d="M79.81,65.36a3.71,3.71,0,1,0-4-3.69,3.86,3.86,0,0,0,4,3.69"/><path class="cls-8" d="M86.31,65.36a3.71,3.71,0,1,0-4-3.69,3.86,3.86,0,0,0,4,3.69"/><path class="cls-8" d="M92.81,65.36a3.71,3.71,0,1,0-4-3.69,3.86,3.86,0,0,0,4,3.69"/><path class="cls-8" d="M99.31,64.91a3.26,3.26,0,1,0-3.53-3.24,3.39,3.39,0,0,0,3.53,3.24"/><path class="cls-8" d="M105.81,64.4a2.74,2.74,0,1,0-3-2.73,2.87,2.87,0,0,0,3,2.73"/><path class="cls-8" d="M112.31,63.88a2.23,2.23,0,1,0-2.42-2.21,2.33,2.33,0,0,0,2.42,2.21"/><path class="cls-8" d="M118.81,63.37a1.71,1.71,0,1,0-1.85-1.7,1.78,1.78,0,0,0,1.85,1.7"/><path class="cls-8" d="M125.31,62.86A1.2,1.2,0,1,0,124,61.67a1.25,1.25,0,0,0,1.29,1.19"/><path class="cls-8" d="M131.81,62.34a.71.71,0,0,0,.74-.67.74.74,0,1,0-.74.67"/><path class="cls-8" d="M138.32,61.81a.15.15,0,0,0,.16-.14.16.16,0,0,0-.16-.16.15.15,0,0,0-.16.16.14.14,0,0,0,.16.14"/><path class="cls-8" d="M14.81,68.08a.45.45,0,0,0,.46-.43.44.44,0,0,0-.46-.43.45.45,0,0,0-.47.43.46.46,0,0,0,.47.43"/><path class="cls-8" d="M21.31,68.59a.95.95,0,1,0-1-.94,1,1,0,0,0,1,.94"/><path class="cls-8" d="M27.81,69.09a1.45,1.45,0,1,0-1.57-1.44,1.51,1.51,0,0,0,1.57,1.44"/><path class="cls-8" d="M34.31,69.59a2,2,0,1,0-2.11-1.94,2,2,0,0,0,2.11,1.94"/><path class="cls-8" d="M40.81,70.08a2.44,2.44,0,1,0-2.65-2.43,2.54,2.54,0,0,0,2.65,2.43"/><path class="cls-8" d="M47.31,70.57a2.93,2.93,0,1,0-3.18-2.92,3.05,3.05,0,0,0,3.18,2.92"/><path class="cls-8" d="M53.81,71a3.4,3.4,0,1,0-3.68-3.38A3.55,3.55,0,0,0,53.81,71"/><path class="cls-8" d="M60.31,71.34a3.71,3.71,0,1,0-4-3.69,3.86,3.86,0,0,0,4,3.69"/><path class="cls-8" d="M66.81,71.34a3.71,3.71,0,1,0-4-3.69,3.86,3.86,0,0,0,4,3.69"/><path class="cls-8" d="M73.31,71.34a3.71,3.71,0,1,0-4-3.69,3.86,3.86,0,0,0,4,3.69"/><path class="cls-8" d="M79.81,71.34a3.71,3.71,0,1,0-4-3.69,3.86,3.86,0,0,0,4,3.69"/><path class="cls-8" d="M86.31,71.34a3.71,3.71,0,1,0-4-3.69,3.86,3.86,0,0,0,4,3.69"/><path class="cls-8" d="M92.81,71.18A3.55,3.55,0,1,0,89,67.65a3.7,3.7,0,0,0,3.84,3.53"/><path class="cls-8" d="M99.31,70.71A3.08,3.08,0,1,0,96,67.65a3.21,3.21,0,0,0,3.33,3.06"/><path class="cls-8" d="M105.81,70.23A2.59,2.59,0,1,0,103,67.65a2.71,2.71,0,0,0,2.81,2.58"/><path class="cls-8" d="M112.31,69.75a2.11,2.11,0,1,0-2.29-2.1,2.2,2.2,0,0,0,2.29,2.1"/><path class="cls-8" d="M118.81,69.25a1.61,1.61,0,1,0-1.75-1.6,1.68,1.68,0,0,0,1.75,1.6"/><path class="cls-8" d="M125.31,68.76a1.12,1.12,0,1,0-1.2-1.11,1.16,1.16,0,0,0,1.2,1.11"/><path class="cls-8" d="M131.81,68.24a.6.6,0,1,0,0-1.19.6.6,0,1,0,0,1.19"/><path class="cls-8" d="M138.32,67.73a.09.09,0,0,0,.09-.08.09.09,0,0,0-.09-.09.09.09,0,1,0,0,.17"/><path class="cls-8" d="M14.81,73.93a.31.31,0,0,0,.32-.3.31.31,0,0,0-.32-.3.31.31,0,0,0-.33.3.32.32,0,0,0,.33.3"/><path class="cls-8" d="M21.31,74.42a.8.8,0,1,0,0-1.59.8.8,0,1,0,0,1.59"/><path class="cls-8" d="M27.81,74.9a1.28,1.28,0,1,0-1.39-1.27,1.34,1.34,0,0,0,1.39,1.27"/><path class="cls-8" d="M34.31,75.38a1.76,1.76,0,1,0-1.91-1.75,1.84,1.84,0,0,0,1.91,1.75"/><path class="cls-8" d="M40.81,75.85a2.23,2.23,0,1,0-2.42-2.22,2.33,2.33,0,0,0,2.42,2.22"/><path class="cls-8" d="M47.31,76.3a2.68,2.68,0,1,0-2.9-2.67,2.8,2.8,0,0,0,2.9,2.67"/><path class="cls-8" d="M53.81,76.7a3.08,3.08,0,1,0-3.34-3.07,3.21,3.21,0,0,0,3.34,3.07"/><path class="cls-8" d="M60.31,77.06a3.44,3.44,0,1,0-3.73-3.43,3.59,3.59,0,0,0,3.73,3.43"/><path class="cls-8" d="M66.81,77.33a3.71,3.71,0,1,0-4-3.7,3.87,3.87,0,0,0,4,3.7"/><path class="cls-8" d="M73.31,77.33a3.71,3.71,0,1,0-4-3.7,3.87,3.87,0,0,0,4,3.7"/><path class="cls-8" d="M79.81,77.33a3.71,3.71,0,1,0-4-3.7,3.87,3.87,0,0,0,4,3.7"/><path class="cls-8" d="M86.31,77.16a3.55,3.55,0,1,0-3.84-3.53,3.7,3.7,0,0,0,3.84,3.53"/><path class="cls-8" d="M92.81,76.83a3.21,3.21,0,1,0-3.48-3.2,3.35,3.35,0,0,0,3.48,3.2"/><path class="cls-8" d="M99.31,76.43a2.81,2.81,0,1,0-3-2.8,2.93,2.93,0,0,0,3,2.8"/><path class="cls-8" d="M105.81,76a2.38,2.38,0,1,0-2.58-2.37A2.48,2.48,0,0,0,105.81,76"/><path class="cls-8" d="M112.31,75.54a1.92,1.92,0,1,0-2.07-1.91,2,2,0,0,0,2.07,1.91"/><path class="cls-8" d="M118.81,75.07a1.45,1.45,0,1,0,0-2.88,1.44,1.44,0,1,0,0,2.88"/><path class="cls-8" d="M125.31,74.59a1,1,0,1,0-1-1,1,1,0,0,0,1,1"/><path class="cls-8" d="M131.81,74.09a.47.47,0,1,0-.5-.46.49.49,0,0,0,.5.46"/><path class="cls-8" d="M14.81,79.72a.11.11,0,0,0,.12-.11.12.12,0,0,0-.12-.12.12.12,0,1,0,0,.23"/><path class="cls-8" d="M21.31,80.21a.6.6,0,1,0-.65-.6.63.63,0,0,0,.65.6"/><path class="cls-8" d="M27.81,80.67a1.06,1.06,0,1,0-1.15-1.06,1.1,1.1,0,0,0,1.15,1.06"/><path class="cls-8" d="M34.31,81.12a1.52,1.52,0,1,0-1.64-1.51,1.58,1.58,0,0,0,1.64,1.51"/><path class="cls-8" d="M40.81,81.55a1.95,1.95,0,1,0-2.11-1.94,2,2,0,0,0,2.11,1.94"/><path class="cls-8" d="M47.31,82a2.35,2.35,0,1,0-2.54-2.34A2.45,2.45,0,0,0,47.31,82"/><path class="cls-8" d="M53.81,82.31a2.71,2.71,0,1,0-2.94-2.7,2.83,2.83,0,0,0,2.94,2.7"/><path class="cls-8" d="M60.31,82.61a3,3,0,1,0-3.26-3,3.14,3.14,0,0,0,3.26,3"/><path class="cls-8" d="M66.81,82.81a3.21,3.21,0,1,0-3.48-3.2,3.35,3.35,0,0,0,3.48,3.2"/><path class="cls-8" d="M73.31,82.91a3.31,3.31,0,1,0-3.59-3.3,3.46,3.46,0,0,0,3.59,3.3"/><path class="cls-8" d="M79.81,82.86a3.26,3.26,0,1,0-3.53-3.25,3.4,3.4,0,0,0,3.53,3.25"/><path class="cls-8" d="M86.31,82.68A3.08,3.08,0,1,0,83,79.61a3.21,3.21,0,0,0,3.34,3.07"/><path class="cls-8" d="M92.81,82.41a2.81,2.81,0,1,0-3-2.8,2.93,2.93,0,0,0,3,2.8"/><path class="cls-8" d="M99.31,82.06a2.46,2.46,0,1,0-2.66-2.45,2.57,2.57,0,0,0,2.66,2.45"/><path class="cls-8" d="M105.81,81.68a2.08,2.08,0,1,0-2.25-2.07,2.17,2.17,0,0,0,2.25,2.07"/><path class="cls-8" d="M112.31,81.27a1.67,1.67,0,1,0-1.8-1.66,1.74,1.74,0,0,0,1.8,1.66"/><path class="cls-8" d="M118.81,80.82a1.21,1.21,0,1,0-1.31-1.21,1.27,1.27,0,0,0,1.31,1.21"/><path class="cls-8" d="M125.31,80.37a.76.76,0,1,0-.82-.76.8.8,0,0,0,.82.76"/><path class="cls-8" d="M131.81,79.89a.3.3,0,0,0,.31-.28.31.31,0,0,0-.61,0,.3.3,0,0,0,.3.28"/><path class="cls-8" d="M21.31,86a.38.38,0,0,0,.39-.37.37.37,0,0,0-.39-.36.38.38,0,0,0-.4.36.39.39,0,0,0,.4.37"/><path class="cls-8" d="M27.81,86.39a.8.8,0,1,0,0-1.6.8.8,0,1,0,0,1.6"/><path class="cls-8" d="M34.31,86.8A1.21,1.21,0,1,0,33,85.59a1.26,1.26,0,0,0,1.32,1.21"/><path class="cls-8" d="M40.81,87.2a1.62,1.62,0,1,0-1.75-1.61,1.69,1.69,0,0,0,1.75,1.61"/><path class="cls-8" d="M47.31,87.55a2,2,0,1,0-2.13-2,2,2,0,0,0,2.13,2"/><path class="cls-8" d="M53.81,87.86a2.28,2.28,0,1,0-2.47-2.27,2.38,2.38,0,0,0,2.47,2.27"/><path class="cls-8" d="M60.31,88.13a2.55,2.55,0,1,0-2.76-2.54,2.66,2.66,0,0,0,2.76,2.54"/><path class="cls-8" d="M66.81,88.3a2.71,2.71,0,1,0-2.94-2.71,2.84,2.84,0,0,0,2.94,2.71"/><path class="cls-8" d="M73.31,88.36a2.78,2.78,0,1,0-3-2.77,2.9,2.9,0,0,0,3,2.77"/><path class="cls-8" d="M79.81,88.33a2.75,2.75,0,1,0-3-2.74,2.86,2.86,0,0,0,3,2.74"/><path class="cls-8" d="M86.31,88.18a2.6,2.6,0,1,0-2.81-2.59,2.7,2.7,0,0,0,2.81,2.59"/><path class="cls-8" d="M92.81,88a2.38,2.38,0,1,0-2.58-2.37A2.48,2.48,0,0,0,92.81,88"/><path class="cls-8" d="M99.31,87.66a2.08,2.08,0,1,0-2.25-2.07,2.17,2.17,0,0,0,2.25,2.07"/><path class="cls-8" d="M105.81,87.31a1.73,1.73,0,1,0-1.87-1.72,1.8,1.8,0,0,0,1.87,1.72"/><path class="cls-8" d="M112.31,86.93a1.35,1.35,0,1,0,0-2.69,1.35,1.35,0,1,0,0,2.69"/><path class="cls-8" d="M118.81,86.54a1,1,0,1,0-1-1,1,1,0,0,0,1,1"/><path class="cls-8" d="M125.31,86.09a.52.52,0,0,0,.54-.5.54.54,0,1,0-.54.5"/><path class="cls-8" d="M131.81,85.64a.05.05,0,1,0,0-.1,0,0,0,0,0,0,.1"/><path class="cls-8" d="M21.31,91.64a.07.07,0,0,0,.07-.07.07.07,0,0,0-.14,0,.07.07,0,0,0,.07.07"/><path class="cls-8" d="M27.81,92.05a.48.48,0,1,0-.53-.48.5.5,0,0,0,.53.48"/><path class="cls-8" d="M34.31,92.45a.88.88,0,1,0,0-1.76.88.88,0,1,0,0,1.76"/><path class="cls-8" d="M40.81,92.8a1.23,1.23,0,1,0-1.34-1.23,1.28,1.28,0,0,0,1.34,1.23"/><path class="cls-8" d="M47.31,93.13a1.57,1.57,0,1,0-1.7-1.56,1.63,1.63,0,0,0,1.7,1.56"/><path class="cls-8" d="M53.81,93.4a1.83,1.83,0,1,0-2-1.83,1.91,1.91,0,0,0,2,1.83"/><path class="cls-8" d="M60.31,93.61a2,2,0,1,0-2.22-2,2.14,2.14,0,0,0,2.22,2"/><path class="cls-8" d="M66.81,93.76a2.2,2.2,0,1,0-2.38-2.19,2.29,2.29,0,0,0,2.38,2.19"/><path class="cls-8" d="M73.31,93.83a2.26,2.26,0,1,0-2.45-2.26,2.36,2.36,0,0,0,2.45,2.26"/><path class="cls-8" d="M79.81,93.79a2.23,2.23,0,1,0-2.41-2.22,2.31,2.31,0,0,0,2.41,2.22"/><path class="cls-8" d="M86.31,93.68A2.12,2.12,0,1,0,84,91.57a2.21,2.21,0,0,0,2.29,2.11"/><path class="cls-8" d="M92.81,93.48a1.91,1.91,0,1,0-2.07-1.91,2,2,0,0,0,2.07,1.91"/><path class="cls-8" d="M99.31,93.23a1.67,1.67,0,1,0-1.8-1.66,1.74,1.74,0,0,0,1.8,1.66"/><path class="cls-8" d="M105.81,92.91a1.34,1.34,0,1,0-1.46-1.34,1.4,1.4,0,0,0,1.46,1.34"/><path class="cls-8" d="M112.31,92.57a1,1,0,1,0-1.08-1,1,1,0,0,0,1.08,1"/><path class="cls-8" d="M118.81,92.18a.61.61,0,1,0-.66-.61.64.64,0,0,0,.66.61"/><path class="cls-8" d="M125.31,91.77a.2.2,0,1,0,0-.4.2.2,0,1,0,0,.4"/><path class="cls-8" d="M27.81,97.69a.14.14,0,0,0,.14-.14.13.13,0,0,0-.14-.13.14.14,0,1,0,0,.27"/><path class="cls-8" d="M34.31,98.05a.52.52,0,0,0,.54-.5.54.54,0,0,0-1.08,0,.52.52,0,0,0,.54.5"/><path class="cls-8" d="M40.81,98.4a.85.85,0,1,0-.92-.85.89.89,0,0,0,.92.85"/><path class="cls-8" d="M47.31,98.68a1.13,1.13,0,1,0-1.23-1.13,1.17,1.17,0,0,0,1.23,1.13"/><path class="cls-8" d="M53.81,98.93a1.38,1.38,0,1,0-1.5-1.38,1.45,1.45,0,0,0,1.5,1.38"/><path class="cls-8" d="M60.31,99.11a1.57,1.57,0,1,0-1.69-1.56,1.63,1.63,0,0,0,1.69,1.56"/><path class="cls-8" d="M66.81,99.23A1.68,1.68,0,1,0,65,97.55a1.75,1.75,0,0,0,1.82,1.68"/><path class="cls-8" d="M73.31,99.28a1.73,1.73,0,1,0-1.87-1.73,1.81,1.81,0,0,0,1.87,1.73"/><path class="cls-8" d="M79.81,99.26A1.71,1.71,0,1,0,78,97.55a1.8,1.8,0,0,0,1.86,1.71"/><path class="cls-8" d="M86.31,99.16a1.62,1.62,0,1,0-1.75-1.61,1.69,1.69,0,0,0,1.75,1.61"/><path class="cls-8" d="M92.81,99a1.45,1.45,0,1,0-1.57-1.45A1.51,1.51,0,0,0,92.81,99"/><path class="cls-8" d="M99.31,98.76A1.21,1.21,0,1,0,98,97.55a1.27,1.27,0,0,0,1.31,1.21"/><path class="cls-8" d="M105.81,98.5a.95.95,0,1,0-1-1,1,1,0,0,0,1,1"/><path class="cls-8" d="M112.31,98.17a.62.62,0,1,0,0-1.23.62.62,0,1,0,0,1.23"/><path class="cls-8" d="M118.81,97.82a.27.27,0,1,0,0-.53.27.27,0,1,0,0,.53"/></g></g></g></g></g></g><polygon points="5.42 14.65 9.04 9.9 29.17 30.8 5.42 14.65"/><polygon points="1.55 22.96 4.13 19.64 24.52 31.04 1.55 22.96"/><polygon points="141.74 13.1 138.12 8.35 117.99 29.25 141.74 13.1"/><polygon points="145.61 21.41 143.03 18.09 122.64 29.49 145.61 21.41"/><polygon class="cls-9" points="86.03 13.94 81.99 11.89 77.87 13.79 78.74 9.62 75.5 6.6 80.07 6.07 82.19 2.3 84.15 6.14 88.7 6.84 85.34 9.74 86.03 13.94"/><polygon class="cls-10" points="86.03 13.94 81.99 11.89 77.87 13.79 78.74 9.62 75.5 6.6 80.07 6.07 82.19 2.3 84.15 6.14 88.7 6.84 85.34 9.74 86.03 13.94"/><polygon class="cls-11" points="104.16 91.45 101.78 90.24 99.35 91.36 99.86 88.9 97.95 87.12 100.65 86.81 101.9 84.59 103.05 86.86 105.74 87.26 103.75 88.97 104.16 91.45"/><polygon class="cls-12" points="46.5 21.46 45.82 20.17 44.29 19.96 45.4 18.97 45.15 17.56 46.52 18.23 47.89 17.57 47.63 18.98 48.73 19.98 47.19 20.18 46.5 21.46"/><polygon class="cls-13" points="46.5 21.46 45.82 20.17 44.29 19.96 45.4 18.97 45.15 17.56 46.52 18.23 47.89 17.57 47.63 18.98 48.73 19.98 47.19 20.18 46.5 21.46"/><polygon class="cls-9" points="54.61 96.8 53.94 92.6 49.8 90.73 53.93 88.85 54.59 84.64 57.81 87.68 62.35 86.95 60.22 90.71 62.37 94.47 57.82 93.76 54.61 96.8"/><rect class="cls-1" x="-726.67" y="-843.92" width="1600" height="1804.74"/><rect class="cls-1" x="-726.67" y="-843.92" width="1600" height="1804.74"/><rect class="cls-1" x="-711.67" y="-824.92" width="1600" height="1804.74"/><path class="cls-12" d="M29.28,77.6a11.72,11.72,0,0,1-2.91-.35L24,76.62,21.54,64.84l1.21.43a8.87,8.87,0,0,1-2.18-4.47,8.44,8.44,0,0,1,1.6-7.07,9.76,9.76,0,0,1,5.7-3.33,13.56,13.56,0,0,1,5-.08l2.61.51,2.37,11.56a9.17,9.17,0,0,1,1.72,3.85A9,9,0,0,1,32.19,77.3,14.52,14.52,0,0,1,29.28,77.6Z"/><path class="cls-12" d="M43.33,74.8c-4.73,0-9.62-3.27-11.24-11.18-2-10,2.84-14.66,8.08-15.74h0c5.29-1.07,11.47,1.89,13.33,11,.81,4,.59,7.37-.65,10a10.17,10.17,0,0,1-7.44,5.68A10.34,10.34,0,0,1,43.33,74.8ZM42.14,58a9.39,9.39,0,0,0,.22,3.55,8.85,8.85,0,0,0,1.08,3A9.25,9.25,0,0,0,43.23,61,9.11,9.11,0,0,0,42.14,58Z"/><polygon class="cls-12" points="50.4 73.38 45.02 47.08 55.19 45 58.55 61.45 64.61 60.22 66.62 70.06 50.4 73.38"/><rect class="cls-12" x="57.07" y="43.83" width="10.38" height="26.84" transform="matrix(0.98, -0.2, 0.2, 0.98, -10.21, 13.64)"/><path class="cls-12" d="M73.6,68.54a11.28,11.28,0,0,1-7.47-2.73,14.85,14.85,0,0,1-4.62-8.43,14.28,14.28,0,0,1,1.33-10.12,11.83,11.83,0,0,1,8-5.66,12.58,12.58,0,0,1,5.47,0l2.38.64,4.69,22.93-2.59,1.42a15.78,15.78,0,0,1-4.37,1.65A14.13,14.13,0,0,1,73.6,68.54Zm0-17.18a3.86,3.86,0,0,0-.72.08c-1.36.28-1.53,1.92-1.23,3.36.81,4,2.22,3.7,2.82,3.58a2.86,2.86,0,0,0,1.26-.61l4.52-4.05-5.93-2.24A2,2,0,0,0,73.64,51.36Z"/><rect class="cls-12" x="75.06" y="40.15" width="10.38" height="26.84" transform="translate(-9.11 17.17) rotate(-11.56)"/><polygon class="cls-12" points="85.63 66.17 82.27 49.72 78.04 50.59 76.02 40.74 94.65 36.93 96.67 46.78 92.43 47.65 95.8 64.09 85.63 66.17"/><polygon class="cls-12" points="88.07 65.67 91.51 37.57 99.71 35.9 113.68 60.44 102.95 62.63 100.48 58.12 99.24 58.37 98.74 63.49 88.07 65.67"/><path class="cls-12" d="M105.29,62.15,99.91,35.86l8.65-1.77a9.23,9.23,0,0,1,7,1,8.79,8.79,0,0,1,3.91,5.84,8.54,8.54,0,0,1-.67,5.65L125.68,58,114.83,60.2h0Z"/><polygon class="cls-12" points="119.04 59.34 116.83 48.54 117.09 48.48 113.5 33.08 124.2 30.89 126.95 46.47 127.21 46.41 129.42 57.22 119.04 59.34"/><path class="cls-9" d="M32.59,56.49a6.37,6.37,0,0,0-3.32-.2A2.76,2.76,0,0,0,27,59.63c.24,1.19.87,1.83,3.83,2.83,3.19,1,4.47,2.47,4.91,4.58.6,2.94-.76,5.61-4.3,6.34a9.38,9.38,0,0,1-4,0L26.87,71a7.81,7.81,0,0,0,3.76.47,3.07,3.07,0,0,0,2.69-3.58c-.29-1.43-.83-2.17-3.63-3.17C26,63.36,25,62.37,24.49,60c-.62-3,1.38-5.1,4.18-5.67a9.71,9.71,0,0,1,3.46-.08Z"/><path class="cls-9" d="M41,51.8c4.1-.84,7.44,2.15,8.61,7.86,1.3,6.37-.6,10.12-5,11-4.1.84-7.43-2.14-8.6-7.85C34.7,56.45,36.61,52.69,41,51.8Zm3.25,17c2.44-.5,4.09-2.93,2.92-8.62-.76-3.72-2.66-7.08-5.78-6.45-2.43.5-4.08,2.94-2.92,8.62C39.2,66.05,41.1,69.41,44.22,68.77Z"/><path class="cls-9" d="M49.74,50.2l2.33-.48,3.36,16.45,6.06-1.24.41,2-8.38,1.72Z"/><path class="cls-9" d="M59.21,48.26l2.33-.47,3.78,18.46L63,66.72Z"/><path class="cls-9" d="M78.91,63.08a11.82,11.82,0,0,1-3.24,1.24c-5.85,1.2-9.22-2.74-10.24-7.74-1.18-5.77,1.44-10.08,6.25-11.06a8.58,8.58,0,0,1,3.63-.05l.46,2.27a6.5,6.5,0,0,0-3.65-.22c-3,.62-5.27,3.59-4.35,8.09,1,4.76,3.52,7.51,7.54,6.69a6.75,6.75,0,0,0,3.13-1.55Z"/><path class="cls-9" d="M77.2,44.58l2.33-.47L83.3,62.57,81,63Z"/><path class="cls-9" d="M85.38,45l-4.23.87-.41-2,10.79-2.21.41,2-4.23.87L91.08,61l-2.33.47Z"/><path class="cls-9" d="M97.67,40.4l9.8,17.22-2.43.5-2.46-4.51-7,1.44-.49,5.11-2.33.48,2.41-19.72Zm3.89,11.32L96.84,43.1h0l-1,9.8Z"/><path class="cls-9" d="M104.63,39l4.73-1a5.29,5.29,0,0,1,4.15.48,4.78,4.78,0,0,1,2.09,3.23,4.31,4.31,0,0,1-2.74,5.17v0a2.42,2.42,0,0,1,2.38,1.39l4.1,6.87-2.51.52-3.39-5.81a2.66,2.66,0,0,0-3.37-1.52L109,48.6,110.73,57l-2.33.48Zm4,7.72,1.8-.36a3.18,3.18,0,0,0,2.77-4c-.42-2.06-2-2.77-4-2.35l-1.86.38Z"/><path class="cls-9" d="M121.47,49.63l-3.14-13.46,2.64-.54,2.4,13.61Zm.08,2,2.54-.52.61,3-2.54.52Z"/><path class="cls-12" d="M29.28,77.6a11.72,11.72,0,0,1-2.91-.35L24,76.62,21.54,64.84l1.21.43a8.87,8.87,0,0,1-2.18-4.47,8.44,8.44,0,0,1,1.6-7.07,9.76,9.76,0,0,1,5.7-3.33,13.56,13.56,0,0,1,5-.08l2.61.51,2.37,11.56a9.17,9.17,0,0,1,1.72,3.85A9,9,0,0,1,32.19,77.3,14.52,14.52,0,0,1,29.28,77.6Z"/><path class="cls-12" d="M43.33,74.8c-4.73,0-9.62-3.27-11.24-11.18-2-10,2.84-14.66,8.08-15.74h0c5.29-1.07,11.47,1.89,13.33,11,.81,4,.59,7.37-.65,10a10.17,10.17,0,0,1-7.44,5.68A10.34,10.34,0,0,1,43.33,74.8ZM42.14,58a9.39,9.39,0,0,0,.22,3.55,8.85,8.85,0,0,0,1.08,3A9.25,9.25,0,0,0,43.23,61,9.11,9.11,0,0,0,42.14,58Z"/><polygon class="cls-12" points="50.4 73.38 45.02 47.08 55.19 45 58.55 61.45 64.61 60.22 66.62 70.06 50.4 73.38"/><rect class="cls-12" x="57.07" y="43.83" width="10.38" height="26.84" transform="matrix(0.98, -0.2, 0.2, 0.98, -10.21, 13.64)"/><path class="cls-12" d="M73.6,68.54a11.28,11.28,0,0,1-7.47-2.73,14.85,14.85,0,0,1-4.62-8.43,14.28,14.28,0,0,1,1.33-10.12,11.83,11.83,0,0,1,8-5.66,12.58,12.58,0,0,1,5.47,0l2.38.64,4.69,22.93-2.59,1.42a15.78,15.78,0,0,1-4.37,1.65A14.13,14.13,0,0,1,73.6,68.54Zm0-17.18a3.86,3.86,0,0,0-.72.08c-1.36.28-1.53,1.92-1.23,3.36.81,4,2.22,3.7,2.82,3.58a2.86,2.86,0,0,0,1.26-.61l4.52-4.05-5.93-2.24A2,2,0,0,0,73.64,51.36Z"/><rect class="cls-12" x="75.06" y="40.15" width="10.38" height="26.84" transform="translate(-9.11 17.17) rotate(-11.56)"/><polygon class="cls-12" points="85.63 66.17 82.27 49.72 78.04 50.59 76.02 40.74 94.65 36.93 96.67 46.78 92.43 47.65 95.8 64.09 85.63 66.17"/><polygon class="cls-12" points="88.07 65.67 91.51 37.57 99.71 35.9 113.68 60.44 102.95 62.63 100.48 58.12 99.24 58.37 98.74 63.49 88.07 65.67"/><path class="cls-12" d="M105.29,62.15,99.91,35.86l8.65-1.77a9.23,9.23,0,0,1,7,1,8.79,8.79,0,0,1,3.91,5.84,8.54,8.54,0,0,1-.67,5.65L125.68,58,114.83,60.2h0Z"/><polygon class="cls-12" points="119.04 59.34 116.83 48.54 117.09 48.48 113.5 33.08 124.2 30.89 126.95 46.47 127.21 46.41 129.42 57.22 119.04 59.34"/><path class="cls-9" d="M32.59,56.49a6.37,6.37,0,0,0-3.32-.2A2.76,2.76,0,0,0,27,59.63c.24,1.19.87,1.83,3.83,2.83,3.19,1,4.47,2.47,4.91,4.58.6,2.94-.76,5.61-4.3,6.34a9.38,9.38,0,0,1-4,0L26.87,71a7.81,7.81,0,0,0,3.76.47,3.07,3.07,0,0,0,2.69-3.58c-.29-1.43-.83-2.17-3.63-3.17C26,63.36,25,62.37,24.49,60c-.62-3,1.38-5.1,4.18-5.67a9.71,9.71,0,0,1,3.46-.08Z"/><path class="cls-9" d="M41,51.8c4.1-.84,7.44,2.15,8.61,7.86,1.3,6.37-.6,10.12-5,11-4.1.84-7.43-2.14-8.6-7.85C34.7,56.45,36.61,52.69,41,51.8Zm3.25,17c2.44-.5,4.09-2.93,2.92-8.62-.76-3.72-2.66-7.08-5.78-6.45-2.43.5-4.08,2.94-2.92,8.62C39.2,66.05,41.1,69.41,44.22,68.77Z"/><path class="cls-9" d="M49.74,50.2l2.33-.48,3.36,16.45,6.06-1.24.41,2-8.38,1.72Z"/><path class="cls-9" d="M59.21,48.26l2.33-.47,3.78,18.46L63,66.72Z"/><path class="cls-9" d="M78.91,63.08a11.82,11.82,0,0,1-3.24,1.24c-5.85,1.2-9.22-2.74-10.24-7.74-1.18-5.77,1.44-10.08,6.25-11.06a8.58,8.58,0,0,1,3.63-.05l.46,2.27a6.5,6.5,0,0,0-3.65-.22c-3,.62-5.27,3.59-4.35,8.09,1,4.76,3.52,7.51,7.54,6.69a6.75,6.75,0,0,0,3.13-1.55Z"/><path class="cls-9" d="M77.2,44.58l2.33-.47L83.3,62.57,81,63Z"/><path class="cls-9" d="M85.38,45l-4.23.87-.41-2,10.79-2.21.41,2-4.23.87L91.08,61l-2.33.47Z"/><path class="cls-9" d="M97.67,40.4l9.8,17.22-2.43.5-2.46-4.51-7,1.44-.49,5.11-2.33.48,2.41-19.72Zm3.89,11.32L96.84,43.1h0l-1,9.8Z"/><path class="cls-9" d="M104.63,39l4.73-1a5.29,5.29,0,0,1,4.15.48,4.78,4.78,0,0,1,2.09,3.23,4.31,4.31,0,0,1-2.74,5.17v0a2.42,2.42,0,0,1,2.38,1.39l4.1,6.87-2.51.52-3.39-5.81a2.66,2.66,0,0,0-3.37-1.52L109,48.6,110.73,57l-2.33.48Zm4,7.72,1.8-.36a3.18,3.18,0,0,0,2.77-4c-.42-2.06-2-2.77-4-2.35l-1.86.38Z"/><path class="cls-9" d="M121.47,49.63l-3.14-13.46,2.64-.54,2.4,13.61Zm.08,2,2.54-.52.61,3-2.54.52Z"/></g></g></svg>